%TF.GenerationSoftware,KiCad,Pcbnew,10.0.2*%
%TF.CreationDate,2026-07-03T19:17:40+02:00*%
%TF.ProjectId,PUTM_AMS_MASTER_ISOLATION,5055544d-5f41-44d5-935f-4d4153544552,rev?*%
%TF.SameCoordinates,Original*%
%TF.FileFunction,Legend,Bot*%
%TF.FilePolarity,Positive*%
%FSLAX46Y46*%
G04 Gerber Fmt 4.6, Leading zero omitted, Abs format (unit mm)*
G04 Created by KiCad (PCBNEW 10.0.2) date 2026-07-03 19:17:40*
%MOMM*%
%LPD*%
G01*
G04 APERTURE LIST*
%ADD10C,0.125000*%
%ADD11C,0.120000*%
G04 APERTURE END LIST*
D10*
X178572809Y-82366666D02*
X178549000Y-82390475D01*
X178549000Y-82390475D02*
X178525190Y-82461904D01*
X178525190Y-82461904D02*
X178525190Y-82509523D01*
X178525190Y-82509523D02*
X178549000Y-82580951D01*
X178549000Y-82580951D02*
X178596619Y-82628570D01*
X178596619Y-82628570D02*
X178644238Y-82652380D01*
X178644238Y-82652380D02*
X178739476Y-82676189D01*
X178739476Y-82676189D02*
X178810904Y-82676189D01*
X178810904Y-82676189D02*
X178906142Y-82652380D01*
X178906142Y-82652380D02*
X178953761Y-82628570D01*
X178953761Y-82628570D02*
X179001380Y-82580951D01*
X179001380Y-82580951D02*
X179025190Y-82509523D01*
X179025190Y-82509523D02*
X179025190Y-82461904D01*
X179025190Y-82461904D02*
X179001380Y-82390475D01*
X179001380Y-82390475D02*
X178977571Y-82366666D01*
X178660428Y-82099999D02*
X178469952Y-82099999D01*
X178869952Y-82233332D02*
X178660428Y-82099999D01*
X178660428Y-82099999D02*
X178869952Y-81966666D01*
X181966666Y-117927190D02*
X181990475Y-117951000D01*
X181990475Y-117951000D02*
X182061904Y-117974809D01*
X182061904Y-117974809D02*
X182109523Y-117974809D01*
X182109523Y-117974809D02*
X182180951Y-117951000D01*
X182180951Y-117951000D02*
X182228570Y-117903380D01*
X182228570Y-117903380D02*
X182252380Y-117855761D01*
X182252380Y-117855761D02*
X182276189Y-117760523D01*
X182276189Y-117760523D02*
X182276189Y-117689095D01*
X182276189Y-117689095D02*
X182252380Y-117593857D01*
X182252380Y-117593857D02*
X182228570Y-117546238D01*
X182228570Y-117546238D02*
X182180951Y-117498619D01*
X182180951Y-117498619D02*
X182109523Y-117474809D01*
X182109523Y-117474809D02*
X182061904Y-117474809D01*
X182061904Y-117474809D02*
X181990475Y-117498619D01*
X181990475Y-117498619D02*
X181966666Y-117522428D01*
X181699999Y-117839571D02*
X181699999Y-118030047D01*
X181833332Y-117630047D02*
X181699999Y-117839571D01*
X181699999Y-117839571D02*
X181566666Y-117630047D01*
X168716666Y-136677190D02*
X168740475Y-136701000D01*
X168740475Y-136701000D02*
X168811904Y-136724809D01*
X168811904Y-136724809D02*
X168859523Y-136724809D01*
X168859523Y-136724809D02*
X168930951Y-136701000D01*
X168930951Y-136701000D02*
X168978570Y-136653380D01*
X168978570Y-136653380D02*
X169002380Y-136605761D01*
X169002380Y-136605761D02*
X169026189Y-136510523D01*
X169026189Y-136510523D02*
X169026189Y-136439095D01*
X169026189Y-136439095D02*
X169002380Y-136343857D01*
X169002380Y-136343857D02*
X168978570Y-136296238D01*
X168978570Y-136296238D02*
X168930951Y-136248619D01*
X168930951Y-136248619D02*
X168859523Y-136224809D01*
X168859523Y-136224809D02*
X168811904Y-136224809D01*
X168811904Y-136224809D02*
X168740475Y-136248619D01*
X168740475Y-136248619D02*
X168716666Y-136272428D01*
X168449999Y-136589571D02*
X168449999Y-136780047D01*
X168583332Y-136380047D02*
X168449999Y-136589571D01*
X168449999Y-136589571D02*
X168316666Y-136380047D01*
X180927190Y-92683333D02*
X180951000Y-92659524D01*
X180951000Y-92659524D02*
X180974809Y-92588095D01*
X180974809Y-92588095D02*
X180974809Y-92540476D01*
X180974809Y-92540476D02*
X180951000Y-92469048D01*
X180951000Y-92469048D02*
X180903380Y-92421429D01*
X180903380Y-92421429D02*
X180855761Y-92397619D01*
X180855761Y-92397619D02*
X180760523Y-92373810D01*
X180760523Y-92373810D02*
X180689095Y-92373810D01*
X180689095Y-92373810D02*
X180593857Y-92397619D01*
X180593857Y-92397619D02*
X180546238Y-92421429D01*
X180546238Y-92421429D02*
X180498619Y-92469048D01*
X180498619Y-92469048D02*
X180474809Y-92540476D01*
X180474809Y-92540476D02*
X180474809Y-92588095D01*
X180474809Y-92588095D02*
X180498619Y-92659524D01*
X180498619Y-92659524D02*
X180522428Y-92683333D01*
X180839571Y-92950000D02*
X181030047Y-92950000D01*
X180630047Y-92816667D02*
X180839571Y-92950000D01*
X180839571Y-92950000D02*
X180630047Y-93083333D01*
X191533333Y-115572809D02*
X191509524Y-115549000D01*
X191509524Y-115549000D02*
X191438095Y-115525190D01*
X191438095Y-115525190D02*
X191390476Y-115525190D01*
X191390476Y-115525190D02*
X191319048Y-115549000D01*
X191319048Y-115549000D02*
X191271429Y-115596619D01*
X191271429Y-115596619D02*
X191247619Y-115644238D01*
X191247619Y-115644238D02*
X191223810Y-115739476D01*
X191223810Y-115739476D02*
X191223810Y-115810904D01*
X191223810Y-115810904D02*
X191247619Y-115906142D01*
X191247619Y-115906142D02*
X191271429Y-115953761D01*
X191271429Y-115953761D02*
X191319048Y-116001380D01*
X191319048Y-116001380D02*
X191390476Y-116025190D01*
X191390476Y-116025190D02*
X191438095Y-116025190D01*
X191438095Y-116025190D02*
X191509524Y-116001380D01*
X191509524Y-116001380D02*
X191533333Y-115977571D01*
X191800000Y-115660428D02*
X191800000Y-115469952D01*
X191666667Y-115869952D02*
X191800000Y-115660428D01*
X191800000Y-115660428D02*
X191933333Y-115869952D01*
X181783333Y-129822809D02*
X181759524Y-129799000D01*
X181759524Y-129799000D02*
X181688095Y-129775190D01*
X181688095Y-129775190D02*
X181640476Y-129775190D01*
X181640476Y-129775190D02*
X181569048Y-129799000D01*
X181569048Y-129799000D02*
X181521429Y-129846619D01*
X181521429Y-129846619D02*
X181497619Y-129894238D01*
X181497619Y-129894238D02*
X181473810Y-129989476D01*
X181473810Y-129989476D02*
X181473810Y-130060904D01*
X181473810Y-130060904D02*
X181497619Y-130156142D01*
X181497619Y-130156142D02*
X181521429Y-130203761D01*
X181521429Y-130203761D02*
X181569048Y-130251380D01*
X181569048Y-130251380D02*
X181640476Y-130275190D01*
X181640476Y-130275190D02*
X181688095Y-130275190D01*
X181688095Y-130275190D02*
X181759524Y-130251380D01*
X181759524Y-130251380D02*
X181783333Y-130227571D01*
X182050000Y-129910428D02*
X182050000Y-129719952D01*
X181916667Y-130119952D02*
X182050000Y-129910428D01*
X182050000Y-129910428D02*
X182183333Y-130119952D01*
X168716666Y-132177190D02*
X168740475Y-132201000D01*
X168740475Y-132201000D02*
X168811904Y-132224809D01*
X168811904Y-132224809D02*
X168859523Y-132224809D01*
X168859523Y-132224809D02*
X168930951Y-132201000D01*
X168930951Y-132201000D02*
X168978570Y-132153380D01*
X168978570Y-132153380D02*
X169002380Y-132105761D01*
X169002380Y-132105761D02*
X169026189Y-132010523D01*
X169026189Y-132010523D02*
X169026189Y-131939095D01*
X169026189Y-131939095D02*
X169002380Y-131843857D01*
X169002380Y-131843857D02*
X168978570Y-131796238D01*
X168978570Y-131796238D02*
X168930951Y-131748619D01*
X168930951Y-131748619D02*
X168859523Y-131724809D01*
X168859523Y-131724809D02*
X168811904Y-131724809D01*
X168811904Y-131724809D02*
X168740475Y-131748619D01*
X168740475Y-131748619D02*
X168716666Y-131772428D01*
X168449999Y-132089571D02*
X168449999Y-132280047D01*
X168583332Y-131880047D02*
X168449999Y-132089571D01*
X168449999Y-132089571D02*
X168316666Y-131880047D01*
X181966666Y-104427190D02*
X181990475Y-104451000D01*
X181990475Y-104451000D02*
X182061904Y-104474809D01*
X182061904Y-104474809D02*
X182109523Y-104474809D01*
X182109523Y-104474809D02*
X182180951Y-104451000D01*
X182180951Y-104451000D02*
X182228570Y-104403380D01*
X182228570Y-104403380D02*
X182252380Y-104355761D01*
X182252380Y-104355761D02*
X182276189Y-104260523D01*
X182276189Y-104260523D02*
X182276189Y-104189095D01*
X182276189Y-104189095D02*
X182252380Y-104093857D01*
X182252380Y-104093857D02*
X182228570Y-104046238D01*
X182228570Y-104046238D02*
X182180951Y-103998619D01*
X182180951Y-103998619D02*
X182109523Y-103974809D01*
X182109523Y-103974809D02*
X182061904Y-103974809D01*
X182061904Y-103974809D02*
X181990475Y-103998619D01*
X181990475Y-103998619D02*
X181966666Y-104022428D01*
X181699999Y-104339571D02*
X181699999Y-104530047D01*
X181833332Y-104130047D02*
X181699999Y-104339571D01*
X181699999Y-104339571D02*
X181566666Y-104130047D01*
X181783333Y-134322809D02*
X181759524Y-134299000D01*
X181759524Y-134299000D02*
X181688095Y-134275190D01*
X181688095Y-134275190D02*
X181640476Y-134275190D01*
X181640476Y-134275190D02*
X181569048Y-134299000D01*
X181569048Y-134299000D02*
X181521429Y-134346619D01*
X181521429Y-134346619D02*
X181497619Y-134394238D01*
X181497619Y-134394238D02*
X181473810Y-134489476D01*
X181473810Y-134489476D02*
X181473810Y-134560904D01*
X181473810Y-134560904D02*
X181497619Y-134656142D01*
X181497619Y-134656142D02*
X181521429Y-134703761D01*
X181521429Y-134703761D02*
X181569048Y-134751380D01*
X181569048Y-134751380D02*
X181640476Y-134775190D01*
X181640476Y-134775190D02*
X181688095Y-134775190D01*
X181688095Y-134775190D02*
X181759524Y-134751380D01*
X181759524Y-134751380D02*
X181783333Y-134727571D01*
X182050000Y-134410428D02*
X182050000Y-134219952D01*
X181916667Y-134619952D02*
X182050000Y-134410428D01*
X182050000Y-134410428D02*
X182183333Y-134619952D01*
X191533333Y-102072809D02*
X191509524Y-102049000D01*
X191509524Y-102049000D02*
X191438095Y-102025190D01*
X191438095Y-102025190D02*
X191390476Y-102025190D01*
X191390476Y-102025190D02*
X191319048Y-102049000D01*
X191319048Y-102049000D02*
X191271429Y-102096619D01*
X191271429Y-102096619D02*
X191247619Y-102144238D01*
X191247619Y-102144238D02*
X191223810Y-102239476D01*
X191223810Y-102239476D02*
X191223810Y-102310904D01*
X191223810Y-102310904D02*
X191247619Y-102406142D01*
X191247619Y-102406142D02*
X191271429Y-102453761D01*
X191271429Y-102453761D02*
X191319048Y-102501380D01*
X191319048Y-102501380D02*
X191390476Y-102525190D01*
X191390476Y-102525190D02*
X191438095Y-102525190D01*
X191438095Y-102525190D02*
X191509524Y-102501380D01*
X191509524Y-102501380D02*
X191533333Y-102477571D01*
X191800000Y-102160428D02*
X191800000Y-101969952D01*
X191666667Y-102369952D02*
X191800000Y-102160428D01*
X191800000Y-102160428D02*
X191933333Y-102369952D01*
%TO.C,C10*%
D11*
X178150000Y-85550000D02*
X178150000Y-81750000D01*
X181150000Y-83450000D02*
X178350000Y-83450000D01*
X181150000Y-83850000D02*
X178350000Y-83850000D01*
X181350000Y-85550000D02*
X181350000Y-81750000D01*
%TO.C,C21*%
X183050000Y-115350000D02*
X183050000Y-118150000D01*
X183450000Y-115350000D02*
X183450000Y-118150000D01*
X185150000Y-115150000D02*
X181350000Y-115150000D01*
X185150000Y-118350000D02*
X181350000Y-118350000D01*
%TO.C,C8*%
X169800000Y-134100000D02*
X169800000Y-136900000D01*
X170200000Y-134100000D02*
X170200000Y-136900000D01*
X171900000Y-133900000D02*
X168100000Y-133900000D01*
X171900000Y-137100000D02*
X168100000Y-137100000D01*
%TO.C,J3*%
X150690000Y-103690000D02*
X154810000Y-103690000D01*
X150690000Y-111810000D02*
X150690000Y-103690000D01*
X150690000Y-111810000D02*
X152750000Y-111810000D01*
X152750000Y-109750000D02*
X154810000Y-109750000D01*
X152750000Y-111810000D02*
X152750000Y-109750000D01*
X153750000Y-111810000D02*
X154810000Y-111810000D01*
X154810000Y-109750000D02*
X154810000Y-103690000D01*
X154810000Y-111810000D02*
X154810000Y-110750000D01*
%TO.C,C26*%
X178150000Y-89500000D02*
X178150000Y-93300000D01*
X178350000Y-91200000D02*
X181150000Y-91200000D01*
X178350000Y-91600000D02*
X181150000Y-91600000D01*
X181350000Y-89500000D02*
X181350000Y-93300000D01*
%TO.C,C36*%
X188350000Y-115150000D02*
X192150000Y-115150000D01*
X188350000Y-118350000D02*
X192150000Y-118350000D01*
X190050000Y-118150000D02*
X190050000Y-115350000D01*
X190450000Y-118150000D02*
X190450000Y-115350000D01*
%TO.C,C6*%
X178600000Y-129400000D02*
X182400000Y-129400000D01*
X178600000Y-132600000D02*
X182400000Y-132600000D01*
X180300000Y-132400000D02*
X180300000Y-129600000D01*
X180700000Y-132400000D02*
X180700000Y-129600000D01*
%TO.C,J1*%
X150690000Y-113690000D02*
X150690000Y-114750000D01*
X150690000Y-115750000D02*
X150690000Y-133810000D01*
X151750000Y-113690000D02*
X150690000Y-113690000D01*
X152750000Y-113690000D02*
X152750000Y-115750000D01*
X152750000Y-115750000D02*
X150690000Y-115750000D01*
X154810000Y-113690000D02*
X152750000Y-113690000D01*
X154810000Y-113690000D02*
X154810000Y-133810000D01*
X154810000Y-133810000D02*
X150690000Y-133810000D01*
%TO.C,C1*%
X169800000Y-129600000D02*
X169800000Y-132400000D01*
X170200000Y-129600000D02*
X170200000Y-132400000D01*
X171900000Y-129400000D02*
X168100000Y-129400000D01*
X171900000Y-132600000D02*
X168100000Y-132600000D01*
%TO.C,C22*%
X183050000Y-101850000D02*
X183050000Y-104650000D01*
X183450000Y-101850000D02*
X183450000Y-104650000D01*
X185150000Y-101650000D02*
X181350000Y-101650000D01*
X185150000Y-104850000D02*
X181350000Y-104850000D01*
%TO.C,C7*%
X178600000Y-133900000D02*
X182400000Y-133900000D01*
X178600000Y-137100000D02*
X182400000Y-137100000D01*
X180300000Y-136900000D02*
X180300000Y-134100000D01*
X180700000Y-136900000D02*
X180700000Y-134100000D01*
%TO.C,C56*%
X188350000Y-101650000D02*
X192150000Y-101650000D01*
X188350000Y-104850000D02*
X192150000Y-104850000D01*
X190050000Y-104650000D02*
X190050000Y-101850000D01*
X190450000Y-104650000D02*
X190450000Y-101850000D01*
%TD*%
M02*
