G04 #@! TF.GenerationSoftware,KiCad,Pcbnew,10.0.2*
G04 #@! TF.CreationDate,2026-07-03T19:15:53+02:00*
G04 #@! TF.ProjectId,PUTM_EV_AMS_MASTER,5055544d-5f45-4565-9f41-4d535f4d4153,rev?*
G04 #@! TF.SameCoordinates,Original*
G04 #@! TF.FileFunction,Soldermask,Top*
G04 #@! TF.FilePolarity,Negative*
%FSLAX46Y46*%
G04 Gerber Fmt 4.6, Leading zero omitted, Abs format (unit mm)*
G04 Created by KiCad (PCBNEW 10.0.2) date 2026-07-03 19:15:53*
%MOMM*%
%LPD*%
G01*
G04 APERTURE LIST*
G04 Aperture macros list*
%AMRoundRect*
0 Rectangle with rounded corners*
0 $1 Rounding radius*
0 $2 $3 $4 $5 $6 $7 $8 $9 X,Y pos of 4 corners*
0 Add a 4 corners polygon primitive as box body*
4,1,4,$2,$3,$4,$5,$6,$7,$8,$9,$2,$3,0*
0 Add four circle primitives for the rounded corners*
1,1,$1+$1,$2,$3*
1,1,$1+$1,$4,$5*
1,1,$1+$1,$6,$7*
1,1,$1+$1,$8,$9*
0 Add four rect primitives between the rounded corners*
20,1,$1+$1,$2,$3,$4,$5,0*
20,1,$1+$1,$4,$5,$6,$7,0*
20,1,$1+$1,$6,$7,$8,$9,0*
20,1,$1+$1,$8,$9,$2,$3,0*%
G04 Aperture macros list end*
%ADD10RoundRect,0.250500X0.250500X0.275500X-0.250500X0.275500X-0.250500X-0.275500X0.250500X-0.275500X0*%
%ADD11RoundRect,0.275500X-0.500500X0.275500X-0.500500X-0.275500X0.500500X-0.275500X0.500500X0.275500X0*%
%ADD12RoundRect,0.250500X0.275500X-0.250500X0.275500X0.250500X-0.275500X0.250500X-0.275500X-0.250500X0*%
%ADD13RoundRect,0.225500X-0.225500X-0.300500X0.225500X-0.300500X0.225500X0.300500X-0.225500X0.300500X0*%
%ADD14RoundRect,0.225500X0.371938X0.053033X0.053033X0.371938X-0.371938X-0.053033X-0.053033X-0.371938X0*%
%ADD15RoundRect,0.225500X0.225500X0.300500X-0.225500X0.300500X-0.225500X-0.300500X0.225500X-0.300500X0*%
%ADD16RoundRect,0.250500X-0.275500X0.250500X-0.275500X-0.250500X0.275500X-0.250500X0.275500X0.250500X0*%
%ADD17RoundRect,0.175500X-0.538000X-0.175500X0.538000X-0.175500X0.538000X0.175500X-0.538000X0.175500X0*%
%ADD18RoundRect,0.250500X-0.250500X-0.275500X0.250500X-0.275500X0.250500X0.275500X-0.250500X0.275500X0*%
%ADD19RoundRect,0.225500X0.300500X-0.225500X0.300500X0.225500X-0.300500X0.225500X-0.300500X-0.225500X0*%
%ADD20C,2.302000*%
%ADD21RoundRect,0.051000X-0.600000X-0.600000X0.600000X-0.600000X0.600000X0.600000X-0.600000X0.600000X0*%
%ADD22C,1.302000*%
%ADD23RoundRect,0.051000X-1.012500X-1.012500X1.012500X-1.012500X1.012500X1.012500X-1.012500X1.012500X0*%
%ADD24C,2.127000*%
%ADD25RoundRect,0.051000X-0.525000X-0.775000X0.525000X-0.775000X0.525000X0.775000X-0.525000X0.775000X0*%
%ADD26RoundRect,0.244250X0.244250X0.281750X-0.244250X0.281750X-0.244250X-0.281750X0.244250X-0.281750X0*%
%ADD27RoundRect,0.244250X-0.406750X0.244250X-0.406750X-0.244250X0.406750X-0.244250X0.406750X0.244250X0*%
%ADD28RoundRect,0.225500X-0.371938X-0.053033X-0.053033X-0.371938X0.371938X0.053033X0.053033X0.371938X0*%
%ADD29RoundRect,0.175500X0.175500X-0.538000X0.175500X0.538000X-0.175500X0.538000X-0.175500X-0.538000X0*%
%ADD30C,3.302000*%
%ADD31C,1.102000*%
%ADD32RoundRect,0.175500X0.175500X-0.613000X0.175500X0.613000X-0.175500X0.613000X-0.175500X-0.613000X0*%
%ADD33RoundRect,0.175500X-0.175500X0.900500X-0.175500X-0.900500X0.175500X-0.900500X0.175500X0.900500X0*%
%ADD34RoundRect,0.051000X-0.600000X0.600000X-0.600000X-0.600000X0.600000X-0.600000X0.600000X0.600000X0*%
%ADD35RoundRect,0.075500X-0.075500X0.388000X-0.075500X-0.388000X0.075500X-0.388000X0.075500X0.388000X0*%
%ADD36RoundRect,0.075500X-0.388000X0.075500X-0.388000X-0.075500X0.388000X-0.075500X0.388000X0.075500X0*%
%ADD37RoundRect,0.051000X-0.850000X0.850000X-0.850000X-0.850000X0.850000X-0.850000X0.850000X0.850000X0*%
%ADD38RoundRect,0.100500X0.100500X-0.725500X0.100500X0.725500X-0.100500X0.725500X-0.100500X-0.725500X0*%
%ADD39RoundRect,0.100500X0.725500X-0.100500X0.725500X0.100500X-0.725500X0.100500X-0.725500X-0.100500X0*%
%ADD40RoundRect,0.250500X0.017678X-0.371938X0.371938X-0.017678X-0.017678X0.371938X-0.371938X0.017678X0*%
%ADD41RoundRect,0.051000X0.675000X0.675000X-0.675000X0.675000X-0.675000X-0.675000X0.675000X-0.675000X0*%
%ADD42C,1.452000*%
%ADD43RoundRect,0.051000X-0.500000X0.500000X-0.500000X-0.500000X0.500000X-0.500000X0.500000X0.500000X0*%
%ADD44RoundRect,0.125500X0.125500X-0.663000X0.125500X0.663000X-0.125500X0.663000X-0.125500X-0.663000X0*%
%ADD45RoundRect,0.225500X-0.300500X0.225500X-0.300500X-0.225500X0.300500X-0.225500X0.300500X0.225500X0*%
%ADD46RoundRect,0.162600X-1.104400X-0.650400X1.104400X-0.650400X1.104400X0.650400X-1.104400X0.650400X0*%
%ADD47C,1.626000*%
%ADD48RoundRect,0.162600X1.104400X0.650400X-1.104400X0.650400X-1.104400X-0.650400X1.104400X-0.650400X0*%
%ADD49RoundRect,0.188000X-0.643000X-0.188000X0.643000X-0.188000X0.643000X0.188000X-0.643000X0.188000X0*%
%ADD50RoundRect,0.051000X-0.675000X-0.675000X0.675000X-0.675000X0.675000X0.675000X-0.675000X0.675000X0*%
G04 APERTURE END LIST*
D10*
X119025000Y-83775000D03*
X117475000Y-83775000D03*
D11*
X141250000Y-116050000D03*
X141250000Y-117950000D03*
D12*
X135500000Y-87987500D03*
X135500000Y-86437500D03*
D13*
X137175000Y-81962500D03*
X138825000Y-81962500D03*
D14*
X134283363Y-82445863D03*
X133116637Y-81279137D03*
D10*
X129275000Y-76000000D03*
X127725000Y-76000000D03*
D15*
X113075000Y-105500000D03*
X111425000Y-105500000D03*
D16*
X144000000Y-105725000D03*
X144000000Y-107275000D03*
D17*
X110112500Y-131550000D03*
X110112500Y-132500000D03*
X110112500Y-133450000D03*
X112387500Y-133450000D03*
X112387500Y-132500000D03*
X112387500Y-131550000D03*
D18*
X125225000Y-60500000D03*
X126775000Y-60500000D03*
D10*
X155525000Y-60500000D03*
X153975000Y-60500000D03*
D15*
X113075000Y-103000000D03*
X111425000Y-103000000D03*
D10*
X129275000Y-74500000D03*
X127725000Y-74500000D03*
X130025000Y-60500000D03*
X128475000Y-60500000D03*
D19*
X146250000Y-95787500D03*
X146250000Y-94137500D03*
D16*
X109500000Y-73825000D03*
X109500000Y-75375000D03*
D12*
X124500000Y-114275000D03*
X124500000Y-112725000D03*
D20*
X105000000Y-51500000D03*
X114000000Y-51500000D03*
D21*
X108500000Y-52500000D03*
D22*
X110500000Y-52500000D03*
X108500000Y-50500000D03*
X110500000Y-50500000D03*
D23*
X131500000Y-51500000D03*
D24*
X125500000Y-51500000D03*
D17*
X151112500Y-83050000D03*
X151112500Y-84950000D03*
X153387500Y-84000000D03*
D25*
X112040000Y-62950000D03*
X109500000Y-62950000D03*
X106960000Y-62950000D03*
X106960000Y-71600000D03*
X109500000Y-71600000D03*
X112040000Y-71600000D03*
D26*
X105287500Y-100500000D03*
X103712500Y-100500000D03*
D27*
X149250000Y-56937500D03*
X149250000Y-59062500D03*
D28*
X132066637Y-82329137D03*
X133233363Y-83495863D03*
D18*
X150975000Y-59000000D03*
X152525000Y-59000000D03*
D27*
X145750000Y-56937500D03*
X145750000Y-59062500D03*
D13*
X117425000Y-127000000D03*
X119075000Y-127000000D03*
D29*
X120800000Y-125137500D03*
X121750000Y-125137500D03*
X122700000Y-125137500D03*
X122700000Y-122862500D03*
X120800000Y-122862500D03*
D13*
X124425000Y-111250000D03*
X126075000Y-111250000D03*
X120925000Y-128750000D03*
X122575000Y-128750000D03*
D30*
X139750000Y-59750000D03*
D31*
X114250000Y-146500000D03*
D26*
X105287500Y-108000000D03*
X103712500Y-108000000D03*
D10*
X145525000Y-88212500D03*
X143975000Y-88212500D03*
D30*
X105500000Y-86500000D03*
D15*
X126075000Y-125250000D03*
X124425000Y-125250000D03*
X113075000Y-100500000D03*
X111425000Y-100500000D03*
D13*
X124425000Y-123500000D03*
X126075000Y-123500000D03*
D18*
X114475000Y-83775000D03*
X116025000Y-83775000D03*
X143975000Y-86712500D03*
X145525000Y-86712500D03*
D32*
X117050000Y-120687500D03*
X118950000Y-120687500D03*
X118000000Y-118812500D03*
D30*
X105500000Y-144500000D03*
D11*
X143500000Y-116050000D03*
X143500000Y-117950000D03*
D33*
X155445000Y-62625000D03*
X154175000Y-62625000D03*
X152905000Y-62625000D03*
X151635000Y-62625000D03*
X150365000Y-62625000D03*
X149095000Y-62625000D03*
X147825000Y-62625000D03*
X146555000Y-62625000D03*
X146555000Y-71925000D03*
X147825000Y-71925000D03*
X149095000Y-71925000D03*
X150365000Y-71925000D03*
X151635000Y-71925000D03*
X152905000Y-71925000D03*
X154175000Y-71925000D03*
X155445000Y-71925000D03*
D32*
X120800000Y-120687500D03*
X122700000Y-120687500D03*
X121750000Y-118812500D03*
D17*
X110112500Y-124550000D03*
X110112500Y-125500000D03*
X110112500Y-126450000D03*
X112387500Y-126450000D03*
X112387500Y-125500000D03*
X112387500Y-124550000D03*
D20*
X158500000Y-79600000D03*
X158500000Y-88600000D03*
D34*
X157500000Y-83100000D03*
D22*
X157500000Y-85100000D03*
X159500000Y-83100000D03*
X159500000Y-85100000D03*
D35*
X140550000Y-86000000D03*
X140150000Y-86000000D03*
X139750000Y-86000000D03*
X139350000Y-86000000D03*
X138950000Y-86000000D03*
D36*
X138287500Y-86662500D03*
X138287500Y-87062500D03*
X138287500Y-87462500D03*
X138287500Y-87862500D03*
X138287500Y-88262500D03*
D35*
X138950000Y-88925000D03*
X139350000Y-88925000D03*
X139750000Y-88925000D03*
X140150000Y-88925000D03*
X140550000Y-88925000D03*
D36*
X141212500Y-88262500D03*
X141212500Y-87862500D03*
X141212500Y-87462500D03*
X141212500Y-87062500D03*
X141212500Y-86662500D03*
D37*
X139750000Y-87462500D03*
D10*
X145525000Y-89712500D03*
X143975000Y-89712500D03*
X151775000Y-76000000D03*
X150225000Y-76000000D03*
D17*
X110112500Y-115550000D03*
X110112500Y-116500000D03*
X110112500Y-117450000D03*
X112387500Y-117450000D03*
X112387500Y-116500000D03*
X112387500Y-115550000D03*
D38*
X130500000Y-115675000D03*
X131000000Y-115675000D03*
X131500000Y-115675000D03*
X132000000Y-115675000D03*
X132500000Y-115675000D03*
X133000000Y-115675000D03*
X133500000Y-115675000D03*
X134000000Y-115675000D03*
X134500000Y-115675000D03*
X135000000Y-115675000D03*
X135500000Y-115675000D03*
X136000000Y-115675000D03*
X136500000Y-115675000D03*
X137000000Y-115675000D03*
X137500000Y-115675000D03*
X138000000Y-115675000D03*
D39*
X139925000Y-113750000D03*
X139925000Y-113250000D03*
X139925000Y-112750000D03*
X139925000Y-112250000D03*
X139925000Y-111750000D03*
X139925000Y-111250000D03*
X139925000Y-110750000D03*
X139925000Y-110250000D03*
X139925000Y-109750000D03*
X139925000Y-109250000D03*
X139925000Y-108750000D03*
X139925000Y-108250000D03*
X139925000Y-107750000D03*
X139925000Y-107250000D03*
X139925000Y-106750000D03*
X139925000Y-106250000D03*
D38*
X138000000Y-104325000D03*
X137500000Y-104325000D03*
X137000000Y-104325000D03*
X136500000Y-104325000D03*
X136000000Y-104325000D03*
X135500000Y-104325000D03*
X135000000Y-104325000D03*
X134500000Y-104325000D03*
X134000000Y-104325000D03*
X133500000Y-104325000D03*
X133000000Y-104325000D03*
X132500000Y-104325000D03*
X132000000Y-104325000D03*
X131500000Y-104325000D03*
X131000000Y-104325000D03*
X130500000Y-104325000D03*
D39*
X128575000Y-106250000D03*
X128575000Y-106750000D03*
X128575000Y-107250000D03*
X128575000Y-107750000D03*
X128575000Y-108250000D03*
X128575000Y-108750000D03*
X128575000Y-109250000D03*
X128575000Y-109750000D03*
X128575000Y-110250000D03*
X128575000Y-110750000D03*
X128575000Y-111250000D03*
X128575000Y-111750000D03*
X128575000Y-112250000D03*
X128575000Y-112750000D03*
X128575000Y-113250000D03*
X128575000Y-113750000D03*
D12*
X113275000Y-88650000D03*
X113275000Y-87100000D03*
D23*
X154000000Y-51500000D03*
D24*
X148000000Y-51500000D03*
D40*
X134201992Y-84510508D03*
X135298008Y-83414492D03*
D18*
X129975000Y-102500000D03*
X131525000Y-102500000D03*
D29*
X123550000Y-134887500D03*
X124500000Y-134887500D03*
X125450000Y-134887500D03*
X125450000Y-132612500D03*
X124500000Y-132612500D03*
X123550000Y-132612500D03*
D41*
X106500000Y-117500000D03*
D42*
X104500000Y-117500000D03*
X106500000Y-115500000D03*
X104500000Y-115500000D03*
X106500000Y-113500000D03*
X104500000Y-113500000D03*
X106500000Y-111500000D03*
X104500000Y-111500000D03*
D30*
X158497056Y-144497056D03*
D10*
X137025000Y-117500000D03*
X135475000Y-117500000D03*
X133025000Y-74500000D03*
X131475000Y-74500000D03*
D31*
X118440000Y-141000000D03*
X118440000Y-139730000D03*
X119710000Y-141000000D03*
X119710000Y-139730000D03*
X120980000Y-141000000D03*
X120980000Y-139730000D03*
X122250000Y-141000000D03*
X122250000Y-139730000D03*
X123520000Y-141000000D03*
X123520000Y-139730000D03*
X124790000Y-141000000D03*
X124790000Y-139730000D03*
X126060000Y-141000000D03*
D43*
X126060000Y-139730000D03*
D19*
X138750000Y-80537500D03*
X138750000Y-78887500D03*
D10*
X144275000Y-98212500D03*
X142725000Y-98212500D03*
D19*
X142250000Y-80537500D03*
X142250000Y-78887500D03*
D44*
X114475000Y-93112500D03*
X115125000Y-93112500D03*
X115775000Y-93112500D03*
X116425000Y-93112500D03*
X117075000Y-93112500D03*
X117725000Y-93112500D03*
X118375000Y-93112500D03*
X119025000Y-93112500D03*
X119025000Y-87387500D03*
X118375000Y-87387500D03*
X117725000Y-87387500D03*
X117075000Y-87387500D03*
X116425000Y-87387500D03*
X115775000Y-87387500D03*
X115125000Y-87387500D03*
X114475000Y-87387500D03*
D27*
X125000000Y-56937500D03*
X125000000Y-59062500D03*
D10*
X155525000Y-74500000D03*
X153975000Y-74500000D03*
D12*
X113275000Y-93400000D03*
X113275000Y-91850000D03*
D45*
X111750000Y-91775000D03*
X111750000Y-93425000D03*
D29*
X142550000Y-96100000D03*
X143500000Y-96100000D03*
X144450000Y-96100000D03*
X144450000Y-93825000D03*
X142550000Y-93825000D03*
D16*
X141750000Y-112225000D03*
X141750000Y-113775000D03*
D12*
X126750000Y-114275000D03*
X126750000Y-112725000D03*
D15*
X134075000Y-86462500D03*
X132425000Y-86462500D03*
D26*
X105287500Y-103000000D03*
X103712500Y-103000000D03*
D15*
X126075000Y-127000000D03*
X124425000Y-127000000D03*
D18*
X117475000Y-122750000D03*
X119025000Y-122750000D03*
D10*
X151775000Y-74500000D03*
X150225000Y-74500000D03*
D18*
X137225000Y-83462500D03*
X138775000Y-83462500D03*
D33*
X132945000Y-62625000D03*
X131675000Y-62625000D03*
X130405000Y-62625000D03*
X129135000Y-62625000D03*
X127865000Y-62625000D03*
X126595000Y-62625000D03*
X125325000Y-62625000D03*
X124055000Y-62625000D03*
X124055000Y-71925000D03*
X125325000Y-71925000D03*
X126595000Y-71925000D03*
X127865000Y-71925000D03*
X129135000Y-71925000D03*
X130405000Y-71925000D03*
X131675000Y-71925000D03*
X132945000Y-71925000D03*
D10*
X115775000Y-95350000D03*
X114225000Y-95350000D03*
D18*
X128475000Y-59000000D03*
X130025000Y-59000000D03*
D27*
X147500000Y-56937500D03*
X147500000Y-59062500D03*
D18*
X153975000Y-59000000D03*
X155525000Y-59000000D03*
D13*
X140675000Y-81962500D03*
X142325000Y-81962500D03*
D46*
X152986681Y-143875001D03*
D47*
X152151681Y-143875001D03*
D46*
X152986681Y-141335001D03*
D47*
X152151681Y-141335001D03*
D46*
X152986681Y-138795001D03*
D47*
X152151681Y-138795001D03*
D46*
X152986681Y-136255001D03*
D47*
X152151681Y-136255001D03*
D46*
X152986681Y-133715001D03*
D47*
X152151681Y-133715001D03*
D46*
X152986681Y-131175001D03*
D47*
X152151681Y-131175001D03*
D46*
X152986681Y-128635001D03*
D47*
X152151681Y-128635001D03*
X136911681Y-128635001D03*
D48*
X136076681Y-128635001D03*
D47*
X136911681Y-131175001D03*
D48*
X136076681Y-131175001D03*
D47*
X136911681Y-133715001D03*
D48*
X136076681Y-133715001D03*
D47*
X136911681Y-136255001D03*
D48*
X136076681Y-136255001D03*
D47*
X136911681Y-138795001D03*
D48*
X136076681Y-138795001D03*
D47*
X136911681Y-141335001D03*
D48*
X136076681Y-141335001D03*
D47*
X136911681Y-143875001D03*
D48*
X136076681Y-143875001D03*
D32*
X124550000Y-120687500D03*
X126450000Y-120687500D03*
X125500000Y-118812500D03*
D15*
X117575000Y-85275000D03*
X115925000Y-85275000D03*
D16*
X141750000Y-105725000D03*
X141750000Y-107275000D03*
D10*
X133025000Y-60500000D03*
X131475000Y-60500000D03*
D13*
X117425000Y-128750000D03*
X119075000Y-128750000D03*
D45*
X116000000Y-80700000D03*
X116000000Y-82350000D03*
D17*
X110112500Y-120800000D03*
X110112500Y-121750000D03*
X110112500Y-122700000D03*
X112387500Y-122700000D03*
X112387500Y-121750000D03*
X112387500Y-120800000D03*
D29*
X119050000Y-134887500D03*
X120000000Y-134887500D03*
X120950000Y-134887500D03*
X120950000Y-132612500D03*
X120000000Y-132612500D03*
X119050000Y-132612500D03*
D17*
X110112500Y-111550000D03*
X110112500Y-112500000D03*
X110112500Y-113450000D03*
X112387500Y-113450000D03*
X112387500Y-112500000D03*
X112387500Y-111550000D03*
D27*
X123250000Y-56937500D03*
X123250000Y-59062500D03*
D45*
X117500000Y-80700000D03*
X117500000Y-82350000D03*
D15*
X136325000Y-91212500D03*
X134675000Y-91212500D03*
D31*
X112250000Y-146500000D03*
D19*
X145500000Y-117825000D03*
X145500000Y-116175000D03*
D18*
X143975000Y-85212500D03*
X145525000Y-85212500D03*
X140725000Y-83462500D03*
X142275000Y-83462500D03*
D17*
X110112500Y-138550000D03*
X110112500Y-139500000D03*
X110112500Y-140450000D03*
X112387500Y-140450000D03*
X112387500Y-139500000D03*
X112387500Y-138550000D03*
D13*
X132425000Y-87962500D03*
X134075000Y-87962500D03*
X134675000Y-92962500D03*
X136325000Y-92962500D03*
D49*
X130650000Y-138800000D03*
X130650000Y-139750000D03*
X130650000Y-140700000D03*
X133350000Y-140700000D03*
X133350000Y-138800000D03*
D17*
X110112500Y-135050000D03*
X110112500Y-136950000D03*
X112387500Y-136000000D03*
D18*
X117475000Y-125250000D03*
X119025000Y-125250000D03*
D50*
X104500000Y-121500000D03*
D42*
X106500000Y-121500000D03*
X104500000Y-123500000D03*
X106500000Y-123500000D03*
X104500000Y-125500000D03*
X106500000Y-125500000D03*
X104500000Y-127500000D03*
X106500000Y-127500000D03*
X104500000Y-129500000D03*
X106500000Y-129500000D03*
X104500000Y-131500000D03*
X106500000Y-131500000D03*
X104500000Y-133500000D03*
X106500000Y-133500000D03*
X104500000Y-135500000D03*
X106500000Y-135500000D03*
X104500000Y-137500000D03*
X106500000Y-137500000D03*
X104500000Y-139500000D03*
X106500000Y-139500000D03*
D18*
X131475000Y-59000000D03*
X133025000Y-59000000D03*
D10*
X152525000Y-60500000D03*
X150975000Y-60500000D03*
D27*
X126750000Y-56937500D03*
X126750000Y-59062500D03*
D18*
X147725000Y-60500000D03*
X149275000Y-60500000D03*
D26*
X105287500Y-105500000D03*
X103712500Y-105500000D03*
D15*
X113075000Y-108000000D03*
X111425000Y-108000000D03*
G36*
X161943039Y-65019685D02*
G01*
X161988794Y-65072489D01*
X162000000Y-65124000D01*
X162000000Y-68876000D01*
X161980315Y-68943039D01*
X161927511Y-68988794D01*
X161876000Y-69000000D01*
X102124000Y-69000000D01*
X102056961Y-68980315D01*
X102011206Y-68927511D01*
X102000000Y-68876000D01*
X102000000Y-65124000D01*
X102019685Y-65056961D01*
X102072489Y-65011206D01*
X102124000Y-65000000D01*
X161876000Y-65000000D01*
X161943039Y-65019685D01*
G37*
M02*
