G04 #@! TF.GenerationSoftware,KiCad,Pcbnew,10.0.2*
G04 #@! TF.CreationDate,2026-07-03T19:15:53+02:00*
G04 #@! TF.ProjectId,PUTM_EV_AMS_MASTER,5055544d-5f45-4565-9f41-4d535f4d4153,rev?*
G04 #@! TF.SameCoordinates,Original*
G04 #@! TF.FileFunction,Soldermask,Bot*
G04 #@! TF.FilePolarity,Negative*
%FSLAX46Y46*%
G04 Gerber Fmt 4.6, Leading zero omitted, Abs format (unit mm)*
G04 Created by KiCad (PCBNEW 10.0.2) date 2026-07-03 19:15:53*
%MOMM*%
%LPD*%
G01*
G04 APERTURE LIST*
G04 Aperture macros list*
%AMRoundRect*
0 Rectangle with rounded corners*
0 $1 Rounding radius*
0 $2 $3 $4 $5 $6 $7 $8 $9 X,Y pos of 4 corners*
0 Add a 4 corners polygon primitive as box body*
4,1,4,$2,$3,$4,$5,$6,$7,$8,$9,$2,$3,0*
0 Add four circle primitives for the rounded corners*
1,1,$1+$1,$2,$3*
1,1,$1+$1,$4,$5*
1,1,$1+$1,$6,$7*
1,1,$1+$1,$8,$9*
0 Add four rect primitives between the rounded corners*
20,1,$1+$1,$2,$3,$4,$5,0*
20,1,$1+$1,$4,$5,$6,$7,0*
20,1,$1+$1,$6,$7,$8,$9,0*
20,1,$1+$1,$8,$9,$2,$3,0*%
G04 Aperture macros list end*
%ADD10C,0.102000*%
%ADD11C,2.302000*%
%ADD12RoundRect,0.051000X-0.600000X-0.600000X0.600000X-0.600000X0.600000X0.600000X-0.600000X0.600000X0*%
%ADD13C,1.302000*%
%ADD14RoundRect,0.051000X-1.012500X-1.012500X1.012500X-1.012500X1.012500X1.012500X-1.012500X1.012500X0*%
%ADD15C,2.127000*%
%ADD16C,3.302000*%
%ADD17RoundRect,0.051000X-0.600000X0.600000X-0.600000X-0.600000X0.600000X-0.600000X0.600000X0.600000X0*%
%ADD18RoundRect,0.051000X0.675000X0.675000X-0.675000X0.675000X-0.675000X-0.675000X0.675000X-0.675000X0*%
%ADD19C,1.452000*%
%ADD20C,1.102000*%
%ADD21RoundRect,0.051000X-0.500000X0.500000X-0.500000X-0.500000X0.500000X-0.500000X0.500000X0.500000X0*%
%ADD22C,1.626000*%
%ADD23RoundRect,0.051000X-0.675000X-0.675000X0.675000X-0.675000X0.675000X0.675000X-0.675000X0.675000X0*%
%ADD24RoundRect,0.272666X-0.340834X-0.653334X0.340834X-0.653334X0.340834X0.653334X-0.340834X0.653334X0*%
%ADD25RoundRect,0.272666X0.340834X0.653334X-0.340834X0.653334X-0.340834X-0.653334X0.340834X-0.653334X0*%
G04 APERTURE END LIST*
D10*
X138750000Y-86500000D02*
X140750000Y-86500000D01*
X140750000Y-88500000D01*
X138750000Y-88500000D01*
X138750000Y-86500000D01*
G36*
X138750000Y-86500000D02*
G01*
X140750000Y-86500000D01*
X140750000Y-88500000D01*
X138750000Y-88500000D01*
X138750000Y-86500000D01*
G37*
D11*
X105000000Y-51500000D03*
X114000000Y-51500000D03*
D12*
X108500000Y-52500000D03*
D13*
X110500000Y-52500000D03*
X108500000Y-50500000D03*
X110500000Y-50500000D03*
D14*
X131500000Y-51500000D03*
D15*
X125500000Y-51500000D03*
D16*
X139750000Y-59750000D03*
X105500000Y-86500000D03*
X105500000Y-144500000D03*
D11*
X158500000Y-79600000D03*
X158500000Y-88600000D03*
D17*
X157500000Y-83100000D03*
D13*
X157500000Y-85100000D03*
X159500000Y-83100000D03*
X159500000Y-85100000D03*
D14*
X154000000Y-51500000D03*
D15*
X148000000Y-51500000D03*
D18*
X106500000Y-117500000D03*
D19*
X104500000Y-117500000D03*
X106500000Y-115500000D03*
X104500000Y-115500000D03*
X106500000Y-113500000D03*
X104500000Y-113500000D03*
X106500000Y-111500000D03*
X104500000Y-111500000D03*
D16*
X158497056Y-144497056D03*
D20*
X118440000Y-141000000D03*
X118440000Y-139730000D03*
X119710000Y-141000000D03*
X119710000Y-139730000D03*
X120980000Y-141000000D03*
X120980000Y-139730000D03*
X122250000Y-141000000D03*
X122250000Y-139730000D03*
X123520000Y-141000000D03*
X123520000Y-139730000D03*
X124790000Y-141000000D03*
X124790000Y-139730000D03*
X126060000Y-141000000D03*
D21*
X126060000Y-139730000D03*
D22*
X152151681Y-143875001D03*
X152151681Y-141335001D03*
X152151681Y-138795001D03*
X152151681Y-136255001D03*
X152151681Y-133715001D03*
X152151681Y-131175001D03*
X152151681Y-128635001D03*
X136911681Y-128635001D03*
X136911681Y-131175001D03*
X136911681Y-133715001D03*
X136911681Y-136255001D03*
X136911681Y-138795001D03*
X136911681Y-141335001D03*
X136911681Y-143875001D03*
D23*
X104500000Y-121500000D03*
D19*
X106500000Y-121500000D03*
X104500000Y-123500000D03*
X106500000Y-123500000D03*
X104500000Y-125500000D03*
X106500000Y-125500000D03*
X104500000Y-127500000D03*
X106500000Y-127500000D03*
X104500000Y-129500000D03*
X106500000Y-129500000D03*
X104500000Y-131500000D03*
X106500000Y-131500000D03*
X104500000Y-133500000D03*
X106500000Y-133500000D03*
X104500000Y-135500000D03*
X106500000Y-135500000D03*
X104500000Y-137500000D03*
X106500000Y-137500000D03*
X104500000Y-139500000D03*
X106500000Y-139500000D03*
D24*
X144787500Y-56000000D03*
X147712500Y-56000000D03*
D20*
X142000000Y-91000000D03*
D25*
X134462500Y-56000000D03*
X131537500Y-56000000D03*
D24*
X122037500Y-56000000D03*
X124962500Y-56000000D03*
D20*
X126000000Y-122250000D03*
D24*
X149537500Y-56000000D03*
X152462500Y-56000000D03*
D20*
X128000000Y-118250000D03*
D25*
X157212500Y-56000000D03*
X154287500Y-56000000D03*
D20*
X128000000Y-120250000D03*
X144000000Y-91000000D03*
D24*
X126787500Y-56000000D03*
X129712500Y-56000000D03*
D20*
X126000000Y-120250000D03*
G36*
X161943039Y-65019685D02*
G01*
X161988794Y-65072489D01*
X162000000Y-65124000D01*
X162000000Y-68876000D01*
X161980315Y-68943039D01*
X161927511Y-68988794D01*
X161876000Y-69000000D01*
X102124000Y-69000000D01*
X102056961Y-68980315D01*
X102011206Y-68927511D01*
X102000000Y-68876000D01*
X102000000Y-65124000D01*
X102019685Y-65056961D01*
X102072489Y-65011206D01*
X102124000Y-65000000D01*
X161876000Y-65000000D01*
X161943039Y-65019685D01*
G37*
M02*
