M48
; DRILL file KiCad 10.0.2 date 2026-07-03T19:15:46
; FORMAT={-:-/ absolute / metric / decimal}
; #@! TF.CreationDate,2026-07-03T19:15:46+02:00
; #@! TF.GenerationSoftware,Kicad,Pcbnew,10.0.2
; #@! TF.FileFunction,Plated,1,4,PTH
FMAT,2
METRIC
; #@! TA.AperFunction,Plated,PTH,ViaDrill
T1C0.200
; #@! TA.AperFunction,Plated,PTH,ComponentDrill
T2C0.650
; #@! TA.AperFunction,Plated,PTH,ComponentDrill
T3C0.700
; #@! TA.AperFunction,Plated,PTH,ComponentDrill
T4C0.800
; #@! TA.AperFunction,Plated,PTH,ComponentDrill
T5C0.889
; #@! TA.AperFunction,Plated,PTH,ComponentDrill
T6C1.350
%
G90
G05
T1
X103.0Y-138.5
X104.425Y-100.5
X104.425Y-103.0
X104.425Y-105.5
X104.425Y-108.0
X108.0Y-114.25
X108.0Y-123.25
X108.25Y-136.25
X109.0Y-112.5
X109.0Y-116.5
X109.0Y-121.75
X109.0Y-125.5
X109.0Y-132.5
X109.0Y-135.725
X109.0Y-139.5
X109.05Y-133.45
X109.05Y-136.95
X109.5Y-76.4
X109.75Y-128.25
X111.2Y-111.55
X111.2Y-113.45
X111.2Y-115.55
X111.2Y-117.45
X111.2Y-124.5
X111.2Y-126.5
X111.2Y-135.05
X111.2Y-136.95
X111.25Y-120.25
X111.25Y-121.25
X111.25Y-122.25
X111.75Y-91.05
X112.25Y-146.5
X112.4Y-123.8
X112.5Y-87.35
X112.5Y-88.35
X113.275Y-91.075
X113.45Y-138.55
X113.45Y-140.45
X113.5Y-112.5
X113.5Y-116.5
X113.5Y-121.75
X113.5Y-124.5
X113.5Y-125.5
X113.5Y-126.5
X113.5Y-132.5
X113.5Y-136.0
X113.5Y-139.5
X113.75Y-120.75
X114.5Y-84.6
X114.5Y-96.1
X114.5Y-117.0
X115.25Y-98.5
X115.25Y-115.0
X115.5Y-96.1
X115.75Y-118.5
X115.75Y-129.0
X116.0Y-113.0
X116.5Y-125.0
X116.5Y-127.0
X116.5Y-133.5
X116.75Y-117.5
X117.475Y-123.475
X117.75Y-94.15
X118.0Y-116.75
X118.25Y-95.5
X118.35Y-94.15
X118.5Y-105.25
X118.75Y-113.0
X118.75Y-119.55
X119.0Y-84.6
X119.0Y-131.5
X119.0Y-133.8
X119.05Y-86.35
X119.05Y-94.15
X120.0Y-131.5
X120.0Y-136.0
X120.5Y-127.0
X121.0Y-133.75
X121.75Y-112.0
X122.7Y-119.55
X122.7Y-126.2
X123.25Y-59.75
X123.5Y-128.75
X123.5Y-131.5
X124.0Y-61.0
X124.0Y-73.5
X124.5Y-129.0
X124.5Y-131.5
X124.5Y-136.0
X125.25Y-112.75
X125.25Y-127.0
X125.5Y-114.25
X125.725Y-120.25
X126.0Y-112.75
X126.0Y-122.25
X126.45Y-119.0
X126.75Y-123.5
X126.75Y-127.0
X126.75Y-132.25
X127.0Y-76.0
X127.25Y-111.225
X127.5Y-131.275
X127.75Y-56.0
X128.0Y-118.25
X128.0Y-120.25
X128.75Y-56.0
X129.25Y-73.5
X129.5Y-139.75
X129.75Y-110.75
X129.75Y-112.0
X129.75Y-112.75
X130.0Y-58.25
X130.0Y-74.5
X130.0Y-76.0
X130.0Y-101.75
X130.0Y-107.25
X130.5Y-135.0
X130.75Y-61.25
X130.75Y-74.5
X131.25Y-105.75
X131.5Y-101.75
X131.75Y-58.25
X132.0Y-105.75
X132.75Y-58.25
X132.75Y-99.5
X132.75Y-106.25
X132.75Y-107.0
X132.75Y-109.0
X133.75Y-74.5
X133.75Y-91.212
X133.75Y-92.962
X133.75Y-102.0
X133.75Y-122.0
X134.25Y-108.5
X134.75Y-100.0
X135.0Y-110.75
X135.0Y-112.5
X135.25Y-99.25
X135.25Y-114.25
X135.25Y-119.0
X135.5Y-118.25
X135.75Y-98.5
X135.75Y-109.25
X136.0Y-122.0
X136.5Y-110.75
X136.938Y-92.962
X137.0Y-114.25
X137.0Y-118.25
X137.175Y-81.037
X137.25Y-110.75
X137.5Y-99.25
X138.009Y-110.766
X138.25Y-100.0
X138.5Y-114.25
X138.75Y-107.25
X139.0Y-100.75
X139.25Y-87.0
X139.25Y-88.0
X139.5Y-115.75
X139.5Y-117.75
X139.75Y-93.0
X139.75Y-101.5
X140.25Y-87.0
X140.25Y-88.0
X140.25Y-116.5
X140.25Y-117.5
X140.5Y-102.25
X140.675Y-81.125
X142.0Y-91.0
X142.25Y-86.537
X142.5Y-105.75
X142.5Y-107.25
X142.5Y-112.25
X142.5Y-113.75
X142.517Y-87.987
X143.0Y-99.212
X143.25Y-88.5
X143.25Y-105.75
X143.25Y-107.25
X143.5Y-97.0
X143.5Y-118.75
X144.0Y-84.5
X144.0Y-91.0
X144.0Y-99.212
X144.45Y-92.5
X145.5Y-118.5
X145.75Y-59.75
X146.25Y-93.212
X146.5Y-61.25
X146.5Y-73.5
X146.5Y-85.212
X146.5Y-86.712
X146.5Y-88.212
X146.5Y-89.712
X149.5Y-76.0
X149.75Y-84.95
X150.5Y-56.0
X151.5Y-56.0
X151.75Y-73.5
X152.5Y-58.25
X152.5Y-74.5
X152.5Y-76.0
X153.0Y-125.25
X153.25Y-61.25
X153.25Y-74.5
X154.25Y-58.25
X154.5Y-84.0
X155.25Y-58.25
X156.25Y-74.5
T2
X118.44Y-139.73
X118.44Y-141.0
X119.71Y-139.73
X119.71Y-141.0
X120.98Y-139.73
X120.98Y-141.0
X122.25Y-139.73
X122.25Y-141.0
X123.52Y-139.73
X123.52Y-141.0
X124.79Y-139.73
X124.79Y-141.0
X126.06Y-139.73
X126.06Y-141.0
T3
X108.5Y-50.5
X108.5Y-52.5
X110.5Y-50.5
X110.5Y-52.5
X157.5Y-83.1
X157.5Y-85.1
X159.5Y-83.1
X159.5Y-85.1
T4
X104.5Y-111.5
X104.5Y-113.5
X104.5Y-115.5
X104.5Y-117.5
X104.5Y-121.5
X104.5Y-123.5
X104.5Y-125.5
X104.5Y-127.5
X104.5Y-129.5
X104.5Y-131.5
X104.5Y-133.5
X104.5Y-135.5
X104.5Y-137.5
X104.5Y-139.5
X106.5Y-111.5
X106.5Y-113.5
X106.5Y-115.5
X106.5Y-117.5
X106.5Y-121.5
X106.5Y-123.5
X106.5Y-125.5
X106.5Y-127.5
X106.5Y-129.5
X106.5Y-131.5
X106.5Y-133.5
X106.5Y-135.5
X106.5Y-137.5
X106.5Y-139.5
T5
X136.912Y-128.635
X136.912Y-131.175
X136.912Y-133.715
X136.912Y-136.255
X136.912Y-138.795
X136.912Y-141.335
X136.912Y-143.875
X152.152Y-128.635
X152.152Y-131.175
X152.152Y-133.715
X152.152Y-136.255
X152.152Y-138.795
X152.152Y-141.335
X152.152Y-143.875
T6
X125.5Y-51.5
X131.5Y-51.5
X148.0Y-51.5
X154.0Y-51.5
M30
