G04 #@! TF.GenerationSoftware,KiCad,Pcbnew,10.0.2*
G04 #@! TF.CreationDate,2026-07-03T19:15:53+02:00*
G04 #@! TF.ProjectId,PUTM_EV_AMS_MASTER,5055544d-5f45-4565-9f41-4d535f4d4153,rev?*
G04 #@! TF.SameCoordinates,Original*
G04 #@! TF.FileFunction,Legend,Bot*
G04 #@! TF.FilePolarity,Positive*
%FSLAX46Y46*%
G04 Gerber Fmt 4.6, Leading zero omitted, Abs format (unit mm)*
G04 Created by KiCad (PCBNEW 10.0.2) date 2026-07-03 19:15:53*
%MOMM*%
%LPD*%
G01*
G04 APERTURE LIST*
%ADD10C,0.150000*%
%ADD11C,0.200000*%
%ADD12C,0.500000*%
%ADD13C,0.750000*%
%ADD14C,0.120000*%
%ADD15C,0.000000*%
G04 APERTURE END LIST*
D10*
X139800000Y-64900000D02*
X139300000Y-63900000D01*
X139800000Y-64150000D01*
X140300000Y-63900000D01*
X139800000Y-64900000D01*
G36*
X139800000Y-64900000D02*
G01*
X139300000Y-63900000D01*
X139800000Y-64150000D01*
X140300000Y-63900000D01*
X139800000Y-64900000D01*
G37*
X139800000Y-69100000D02*
X140300000Y-70100000D01*
X139800000Y-69850000D01*
X139300000Y-70100000D01*
X139800000Y-69100000D01*
G36*
X140300000Y-70100000D02*
G01*
X139800000Y-69850000D01*
X139300000Y-70100000D01*
X139800000Y-69100000D01*
X140300000Y-70100000D01*
G37*
D11*
X114890000Y-122000000D02*
X129500000Y-122000000D01*
X129500000Y-128000000D01*
X114890000Y-128000000D01*
X114890000Y-122000000D01*
D12*
X142085714Y-71065904D02*
X142085714Y-72399238D01*
X142561905Y-70304000D02*
X143038095Y-71732571D01*
X143038095Y-71732571D02*
X141800000Y-71732571D01*
X141038095Y-72399238D02*
X141038095Y-71065904D01*
X141038095Y-71256380D02*
X140942857Y-71161142D01*
X140942857Y-71161142D02*
X140752381Y-71065904D01*
X140752381Y-71065904D02*
X140466666Y-71065904D01*
X140466666Y-71065904D02*
X140276190Y-71161142D01*
X140276190Y-71161142D02*
X140180952Y-71351619D01*
X140180952Y-71351619D02*
X140180952Y-72399238D01*
X140180952Y-71351619D02*
X140085714Y-71161142D01*
X140085714Y-71161142D02*
X139895238Y-71065904D01*
X139895238Y-71065904D02*
X139609524Y-71065904D01*
X139609524Y-71065904D02*
X139419047Y-71161142D01*
X139419047Y-71161142D02*
X139323809Y-71351619D01*
X139323809Y-71351619D02*
X139323809Y-72399238D01*
X138371428Y-72399238D02*
X138371428Y-71065904D01*
X138371428Y-71256380D02*
X138276190Y-71161142D01*
X138276190Y-71161142D02*
X138085714Y-71065904D01*
X138085714Y-71065904D02*
X137799999Y-71065904D01*
X137799999Y-71065904D02*
X137609523Y-71161142D01*
X137609523Y-71161142D02*
X137514285Y-71351619D01*
X137514285Y-71351619D02*
X137514285Y-72399238D01*
X137514285Y-71351619D02*
X137419047Y-71161142D01*
X137419047Y-71161142D02*
X137228571Y-71065904D01*
X137228571Y-71065904D02*
X136942857Y-71065904D01*
X136942857Y-71065904D02*
X136752380Y-71161142D01*
X136752380Y-71161142D02*
X136657142Y-71351619D01*
X136657142Y-71351619D02*
X136657142Y-72399238D01*
D13*
X120535713Y-61348857D02*
X118821428Y-61348857D01*
X119678570Y-64348857D02*
X119678570Y-61348857D01*
X117964285Y-64206000D02*
X117535714Y-64348857D01*
X117535714Y-64348857D02*
X116821428Y-64348857D01*
X116821428Y-64348857D02*
X116535714Y-64206000D01*
X116535714Y-64206000D02*
X116392856Y-64063142D01*
X116392856Y-64063142D02*
X116249999Y-63777428D01*
X116249999Y-63777428D02*
X116249999Y-63491714D01*
X116249999Y-63491714D02*
X116392856Y-63206000D01*
X116392856Y-63206000D02*
X116535714Y-63063142D01*
X116535714Y-63063142D02*
X116821428Y-62920285D01*
X116821428Y-62920285D02*
X117392856Y-62777428D01*
X117392856Y-62777428D02*
X117678571Y-62634571D01*
X117678571Y-62634571D02*
X117821428Y-62491714D01*
X117821428Y-62491714D02*
X117964285Y-62206000D01*
X117964285Y-62206000D02*
X117964285Y-61920285D01*
X117964285Y-61920285D02*
X117821428Y-61634571D01*
X117821428Y-61634571D02*
X117678571Y-61491714D01*
X117678571Y-61491714D02*
X117392856Y-61348857D01*
X117392856Y-61348857D02*
X116678571Y-61348857D01*
X116678571Y-61348857D02*
X116249999Y-61491714D01*
X118607142Y-72848857D02*
X120035714Y-72848857D01*
X120035714Y-72848857D02*
X120035714Y-69848857D01*
X118035714Y-69848857D02*
X117035714Y-72848857D01*
X117035714Y-72848857D02*
X116035714Y-69848857D01*
D11*
X128380326Y-129787219D02*
X128380326Y-128787219D01*
X128380326Y-128787219D02*
X127999374Y-128787219D01*
X127999374Y-128787219D02*
X127904136Y-128834838D01*
X127904136Y-128834838D02*
X127856517Y-128882457D01*
X127856517Y-128882457D02*
X127808898Y-128977695D01*
X127808898Y-128977695D02*
X127808898Y-129120552D01*
X127808898Y-129120552D02*
X127856517Y-129215790D01*
X127856517Y-129215790D02*
X127904136Y-129263409D01*
X127904136Y-129263409D02*
X127999374Y-129311028D01*
X127999374Y-129311028D02*
X128380326Y-129311028D01*
X127380326Y-129691980D02*
X127332707Y-129739600D01*
X127332707Y-129739600D02*
X127380326Y-129787219D01*
X127380326Y-129787219D02*
X127427945Y-129739600D01*
X127427945Y-129739600D02*
X127380326Y-129691980D01*
X127380326Y-129691980D02*
X127380326Y-129787219D01*
X125666041Y-129787219D02*
X126142231Y-129787219D01*
X126142231Y-129787219D02*
X126142231Y-128787219D01*
X124951755Y-129739600D02*
X125046993Y-129787219D01*
X125046993Y-129787219D02*
X125237469Y-129787219D01*
X125237469Y-129787219D02*
X125332707Y-129739600D01*
X125332707Y-129739600D02*
X125380326Y-129644361D01*
X125380326Y-129644361D02*
X125380326Y-129263409D01*
X125380326Y-129263409D02*
X125332707Y-129168171D01*
X125332707Y-129168171D02*
X125237469Y-129120552D01*
X125237469Y-129120552D02*
X125046993Y-129120552D01*
X125046993Y-129120552D02*
X124951755Y-129168171D01*
X124951755Y-129168171D02*
X124904136Y-129263409D01*
X124904136Y-129263409D02*
X124904136Y-129358647D01*
X124904136Y-129358647D02*
X125380326Y-129453885D01*
X124523183Y-129739600D02*
X124427945Y-129787219D01*
X124427945Y-129787219D02*
X124237469Y-129787219D01*
X124237469Y-129787219D02*
X124142231Y-129739600D01*
X124142231Y-129739600D02*
X124094612Y-129644361D01*
X124094612Y-129644361D02*
X124094612Y-129596742D01*
X124094612Y-129596742D02*
X124142231Y-129501504D01*
X124142231Y-129501504D02*
X124237469Y-129453885D01*
X124237469Y-129453885D02*
X124380326Y-129453885D01*
X124380326Y-129453885D02*
X124475564Y-129406266D01*
X124475564Y-129406266D02*
X124523183Y-129311028D01*
X124523183Y-129311028D02*
X124523183Y-129263409D01*
X124523183Y-129263409D02*
X124475564Y-129168171D01*
X124475564Y-129168171D02*
X124380326Y-129120552D01*
X124380326Y-129120552D02*
X124237469Y-129120552D01*
X124237469Y-129120552D02*
X124142231Y-129168171D01*
X123666040Y-129787219D02*
X123666040Y-129120552D01*
X123666040Y-128787219D02*
X123713659Y-128834838D01*
X123713659Y-128834838D02*
X123666040Y-128882457D01*
X123666040Y-128882457D02*
X123618421Y-128834838D01*
X123618421Y-128834838D02*
X123666040Y-128787219D01*
X123666040Y-128787219D02*
X123666040Y-128882457D01*
X122761279Y-129739600D02*
X122856517Y-129787219D01*
X122856517Y-129787219D02*
X123046993Y-129787219D01*
X123046993Y-129787219D02*
X123142231Y-129739600D01*
X123142231Y-129739600D02*
X123189850Y-129691980D01*
X123189850Y-129691980D02*
X123237469Y-129596742D01*
X123237469Y-129596742D02*
X123237469Y-129311028D01*
X123237469Y-129311028D02*
X123189850Y-129215790D01*
X123189850Y-129215790D02*
X123142231Y-129168171D01*
X123142231Y-129168171D02*
X123046993Y-129120552D01*
X123046993Y-129120552D02*
X122856517Y-129120552D01*
X122856517Y-129120552D02*
X122761279Y-129168171D01*
X122332707Y-129787219D02*
X122332707Y-128787219D01*
X122237469Y-129406266D02*
X121951755Y-129787219D01*
X121951755Y-129120552D02*
X122332707Y-129501504D01*
X121523183Y-129787219D02*
X121523183Y-129120552D01*
X121523183Y-128787219D02*
X121570802Y-128834838D01*
X121570802Y-128834838D02*
X121523183Y-128882457D01*
X121523183Y-128882457D02*
X121475564Y-128834838D01*
X121475564Y-128834838D02*
X121523183Y-128787219D01*
X121523183Y-128787219D02*
X121523183Y-128882457D01*
X114890000Y-128000000D02*
X129500000Y-128000000D01*
X129500000Y-130500000D01*
X114890000Y-130500000D01*
X114890000Y-128000000D01*
X128427945Y-132001504D02*
X127951755Y-132001504D01*
X128523183Y-132287219D02*
X128189850Y-131287219D01*
X128189850Y-131287219D02*
X127856517Y-132287219D01*
X127523183Y-132287219D02*
X127523183Y-131287219D01*
X127523183Y-131287219D02*
X127189850Y-132001504D01*
X127189850Y-132001504D02*
X126856517Y-131287219D01*
X126856517Y-131287219D02*
X126856517Y-132287219D01*
X126427945Y-132239600D02*
X126285088Y-132287219D01*
X126285088Y-132287219D02*
X126046993Y-132287219D01*
X126046993Y-132287219D02*
X125951755Y-132239600D01*
X125951755Y-132239600D02*
X125904136Y-132191980D01*
X125904136Y-132191980D02*
X125856517Y-132096742D01*
X125856517Y-132096742D02*
X125856517Y-132001504D01*
X125856517Y-132001504D02*
X125904136Y-131906266D01*
X125904136Y-131906266D02*
X125951755Y-131858647D01*
X125951755Y-131858647D02*
X126046993Y-131811028D01*
X126046993Y-131811028D02*
X126237469Y-131763409D01*
X126237469Y-131763409D02*
X126332707Y-131715790D01*
X126332707Y-131715790D02*
X126380326Y-131668171D01*
X126380326Y-131668171D02*
X126427945Y-131572933D01*
X126427945Y-131572933D02*
X126427945Y-131477695D01*
X126427945Y-131477695D02*
X126380326Y-131382457D01*
X126380326Y-131382457D02*
X126332707Y-131334838D01*
X126332707Y-131334838D02*
X126237469Y-131287219D01*
X126237469Y-131287219D02*
X125999374Y-131287219D01*
X125999374Y-131287219D02*
X125856517Y-131334838D01*
X124666040Y-132287219D02*
X124666040Y-131287219D01*
X124666040Y-131287219D02*
X124332707Y-132001504D01*
X124332707Y-132001504D02*
X123999374Y-131287219D01*
X123999374Y-131287219D02*
X123999374Y-132287219D01*
X123570802Y-132001504D02*
X123094612Y-132001504D01*
X123666040Y-132287219D02*
X123332707Y-131287219D01*
X123332707Y-131287219D02*
X122999374Y-132287219D01*
X122713659Y-132239600D02*
X122570802Y-132287219D01*
X122570802Y-132287219D02*
X122332707Y-132287219D01*
X122332707Y-132287219D02*
X122237469Y-132239600D01*
X122237469Y-132239600D02*
X122189850Y-132191980D01*
X122189850Y-132191980D02*
X122142231Y-132096742D01*
X122142231Y-132096742D02*
X122142231Y-132001504D01*
X122142231Y-132001504D02*
X122189850Y-131906266D01*
X122189850Y-131906266D02*
X122237469Y-131858647D01*
X122237469Y-131858647D02*
X122332707Y-131811028D01*
X122332707Y-131811028D02*
X122523183Y-131763409D01*
X122523183Y-131763409D02*
X122618421Y-131715790D01*
X122618421Y-131715790D02*
X122666040Y-131668171D01*
X122666040Y-131668171D02*
X122713659Y-131572933D01*
X122713659Y-131572933D02*
X122713659Y-131477695D01*
X122713659Y-131477695D02*
X122666040Y-131382457D01*
X122666040Y-131382457D02*
X122618421Y-131334838D01*
X122618421Y-131334838D02*
X122523183Y-131287219D01*
X122523183Y-131287219D02*
X122285088Y-131287219D01*
X122285088Y-131287219D02*
X122142231Y-131334838D01*
X121856516Y-131287219D02*
X121285088Y-131287219D01*
X121570802Y-132287219D02*
X121570802Y-131287219D01*
X120951754Y-131763409D02*
X120618421Y-131763409D01*
X120475564Y-132287219D02*
X120951754Y-132287219D01*
X120951754Y-132287219D02*
X120951754Y-131287219D01*
X120951754Y-131287219D02*
X120475564Y-131287219D01*
X119475564Y-132287219D02*
X119808897Y-131811028D01*
X120046992Y-132287219D02*
X120046992Y-131287219D01*
X120046992Y-131287219D02*
X119666040Y-131287219D01*
X119666040Y-131287219D02*
X119570802Y-131334838D01*
X119570802Y-131334838D02*
X119523183Y-131382457D01*
X119523183Y-131382457D02*
X119475564Y-131477695D01*
X119475564Y-131477695D02*
X119475564Y-131620552D01*
X119475564Y-131620552D02*
X119523183Y-131715790D01*
X119523183Y-131715790D02*
X119570802Y-131763409D01*
X119570802Y-131763409D02*
X119666040Y-131811028D01*
X119666040Y-131811028D02*
X120046992Y-131811028D01*
X114900000Y-130500000D02*
X129500000Y-130500000D01*
X129500000Y-133000000D01*
X114900000Y-133000000D01*
X114900000Y-130500000D01*
X114900000Y-133000000D02*
X123000000Y-133000000D01*
X123000000Y-135500000D01*
X114900000Y-135500000D01*
X114900000Y-133000000D01*
X127951755Y-134120552D02*
X127951755Y-134787219D01*
X128189850Y-133739600D02*
X128427945Y-134453885D01*
X128427945Y-134453885D02*
X127808898Y-134453885D01*
X127427945Y-134691980D02*
X127380326Y-134739600D01*
X127380326Y-134739600D02*
X127427945Y-134787219D01*
X127427945Y-134787219D02*
X127475564Y-134739600D01*
X127475564Y-134739600D02*
X127427945Y-134691980D01*
X127427945Y-134691980D02*
X127427945Y-134787219D01*
X126999374Y-133882457D02*
X126951755Y-133834838D01*
X126951755Y-133834838D02*
X126856517Y-133787219D01*
X126856517Y-133787219D02*
X126618422Y-133787219D01*
X126618422Y-133787219D02*
X126523184Y-133834838D01*
X126523184Y-133834838D02*
X126475565Y-133882457D01*
X126475565Y-133882457D02*
X126427946Y-133977695D01*
X126427946Y-133977695D02*
X126427946Y-134072933D01*
X126427946Y-134072933D02*
X126475565Y-134215790D01*
X126475565Y-134215790D02*
X127046993Y-134787219D01*
X127046993Y-134787219D02*
X126427946Y-134787219D01*
X123000000Y-133000000D02*
X129500000Y-133000000D01*
X129500000Y-135500000D01*
X123000000Y-135500000D01*
X123000000Y-133000000D01*
D14*
X145522936Y-55090000D02*
X146977064Y-55090000D01*
X145522936Y-56910000D02*
X146977064Y-56910000D01*
X142700000Y-91000000D02*
G75*
G02*
X141300000Y-91000000I-700000J0D01*
G01*
X141300000Y-91000000D02*
G75*
G02*
X142700000Y-91000000I700000J0D01*
G01*
X133727064Y-55090000D02*
X132272936Y-55090000D01*
X133727064Y-56910000D02*
X132272936Y-56910000D01*
X122772936Y-55090000D02*
X124227064Y-55090000D01*
X122772936Y-56910000D02*
X124227064Y-56910000D01*
X126700000Y-122250000D02*
G75*
G02*
X125300000Y-122250000I-700000J0D01*
G01*
X125300000Y-122250000D02*
G75*
G02*
X126700000Y-122250000I700000J0D01*
G01*
X150272936Y-55090000D02*
X151727064Y-55090000D01*
X150272936Y-56910000D02*
X151727064Y-56910000D01*
D15*
G36*
X125813091Y-123948861D02*
G01*
X126049486Y-123950974D01*
X126211960Y-124409340D01*
X126213488Y-124413651D01*
X126242360Y-124495284D01*
X126269557Y-124572504D01*
X126294621Y-124643984D01*
X126317092Y-124708397D01*
X126336508Y-124764417D01*
X126352411Y-124810715D01*
X126364339Y-124845965D01*
X126371834Y-124868839D01*
X126374434Y-124878011D01*
X126374310Y-124878711D01*
X126369938Y-124881640D01*
X126358262Y-124883944D01*
X126337839Y-124885687D01*
X126307228Y-124886932D01*
X126264988Y-124887744D01*
X126209678Y-124888184D01*
X126139856Y-124888317D01*
X125905277Y-124888317D01*
X125881678Y-124822503D01*
X125881231Y-124821256D01*
X125866259Y-124779269D01*
X125849699Y-124732501D01*
X125835054Y-124690845D01*
X125812029Y-124625000D01*
X123131627Y-124627026D01*
X123060152Y-124627080D01*
X122818861Y-124627267D01*
X122592874Y-124627449D01*
X122381684Y-124627631D01*
X122184782Y-124627815D01*
X122001663Y-124628004D01*
X121831818Y-124628202D01*
X121674741Y-124628411D01*
X121529925Y-124628634D01*
X121396862Y-124628875D01*
X121275045Y-124629136D01*
X121163967Y-124629421D01*
X121063122Y-124629733D01*
X120972001Y-124630074D01*
X120890098Y-124630449D01*
X120816905Y-124630859D01*
X120751916Y-124631308D01*
X120694623Y-124631799D01*
X120644519Y-124632335D01*
X120601097Y-124632919D01*
X120563850Y-124633554D01*
X120532271Y-124634243D01*
X120505852Y-124634990D01*
X120484087Y-124635797D01*
X120466468Y-124636667D01*
X120452488Y-124637604D01*
X120441640Y-124638611D01*
X120433416Y-124639690D01*
X120427311Y-124640844D01*
X120422816Y-124642078D01*
X120419424Y-124643393D01*
X120390987Y-124658616D01*
X120358102Y-124687214D01*
X120334699Y-124725411D01*
X120329566Y-124738021D01*
X120317686Y-124784813D01*
X120313968Y-124834845D01*
X120318144Y-124883732D01*
X120329946Y-124927093D01*
X120349104Y-124960543D01*
X120353880Y-124965778D01*
X120376817Y-124985629D01*
X120402369Y-125002344D01*
X120435270Y-125019944D01*
X123432011Y-125021990D01*
X126428752Y-125024036D01*
X126436653Y-125045922D01*
X126440378Y-125056256D01*
X126457100Y-125102971D01*
X126475256Y-125154126D01*
X126494094Y-125207557D01*
X126512861Y-125261101D01*
X126530805Y-125312593D01*
X126547174Y-125359869D01*
X126561214Y-125400766D01*
X126572175Y-125433119D01*
X126579303Y-125454764D01*
X126581846Y-125463538D01*
X126575409Y-125464047D01*
X126553480Y-125464596D01*
X126516410Y-125465127D01*
X126464627Y-125465639D01*
X126398560Y-125466132D01*
X126318635Y-125466604D01*
X126225282Y-125467054D01*
X126118929Y-125467482D01*
X126000002Y-125467887D01*
X125868931Y-125468267D01*
X125726142Y-125468621D01*
X125572065Y-125468949D01*
X125407128Y-125469250D01*
X125231757Y-125469522D01*
X125046381Y-125469765D01*
X124851429Y-125469978D01*
X124647328Y-125470159D01*
X124434506Y-125470308D01*
X124213391Y-125470424D01*
X123984411Y-125470505D01*
X123747995Y-125470551D01*
X123504569Y-125470561D01*
X123283527Y-125470553D01*
X123032704Y-125470538D01*
X122796956Y-125470517D01*
X122575803Y-125470488D01*
X122368766Y-125470447D01*
X122175366Y-125470393D01*
X121995122Y-125470324D01*
X121827555Y-125470236D01*
X121672186Y-125470129D01*
X121528534Y-125469999D01*
X121396121Y-125469844D01*
X121274466Y-125469662D01*
X121163090Y-125469451D01*
X121061513Y-125469209D01*
X120969255Y-125468932D01*
X120885838Y-125468620D01*
X120810781Y-125468269D01*
X120743605Y-125467877D01*
X120683829Y-125467442D01*
X120630976Y-125466962D01*
X120584564Y-125466434D01*
X120544114Y-125465857D01*
X120509146Y-125465227D01*
X120479182Y-125464543D01*
X120453741Y-125463802D01*
X120432344Y-125463003D01*
X120414510Y-125462142D01*
X120399762Y-125461217D01*
X120387617Y-125460226D01*
X120377598Y-125459168D01*
X120369225Y-125458039D01*
X120362017Y-125456837D01*
X120355496Y-125455560D01*
X120286837Y-125438480D01*
X120190447Y-125403114D01*
X120105531Y-125356946D01*
X120032317Y-125300200D01*
X119971038Y-125233102D01*
X119921921Y-125155877D01*
X119885198Y-125068748D01*
X119861097Y-124971943D01*
X119854031Y-124923410D01*
X119848891Y-124816482D01*
X119858829Y-124714426D01*
X119883749Y-124617553D01*
X119923556Y-124526174D01*
X119978155Y-124440602D01*
X120047451Y-124361149D01*
X120048502Y-124360105D01*
X120124614Y-124295521D01*
X120208411Y-124244857D01*
X120299259Y-124208429D01*
X120396528Y-124186553D01*
X120401197Y-124186155D01*
X120422567Y-124185367D01*
X120459640Y-124184619D01*
X120512246Y-124183911D01*
X120580214Y-124183245D01*
X120663376Y-124182619D01*
X120761562Y-124182036D01*
X120874602Y-124181494D01*
X121002325Y-124180996D01*
X121144564Y-124180541D01*
X121301147Y-124180130D01*
X121471905Y-124179764D01*
X121656668Y-124179443D01*
X121855267Y-124179167D01*
X122067532Y-124178937D01*
X122293294Y-124178753D01*
X122532382Y-124178617D01*
X122784626Y-124178528D01*
X123049858Y-124178487D01*
X123139115Y-124178478D01*
X123353024Y-124178427D01*
X123560689Y-124178334D01*
X123761602Y-124178203D01*
X123955249Y-124178033D01*
X124141121Y-124177827D01*
X124318706Y-124177585D01*
X124487492Y-124177310D01*
X124646969Y-124177003D01*
X124796626Y-124176665D01*
X124935951Y-124176297D01*
X125064433Y-124175901D01*
X125181560Y-124175479D01*
X125286823Y-124175031D01*
X125379709Y-124174559D01*
X125459707Y-124174065D01*
X125526307Y-124173550D01*
X125578996Y-124173016D01*
X125617264Y-124172463D01*
X125640600Y-124171893D01*
X125648492Y-124171308D01*
X125648347Y-124170267D01*
X125644689Y-124157452D01*
X125636848Y-124133321D01*
X125625819Y-124100869D01*
X125612594Y-124063092D01*
X125609392Y-124054038D01*
X125596580Y-124017151D01*
X125586197Y-123986226D01*
X125579237Y-123964278D01*
X125576696Y-123954323D01*
X125582362Y-123952454D01*
X125602866Y-123950695D01*
X125637288Y-123949431D01*
X125684531Y-123948687D01*
X125743497Y-123948488D01*
X125813091Y-123948861D01*
G37*
G36*
X121816194Y-123365574D02*
G01*
X121994809Y-123365632D01*
X122186848Y-123365723D01*
X122392820Y-123365844D01*
X122613229Y-123365993D01*
X122848580Y-123366169D01*
X123099381Y-123366370D01*
X125843267Y-123368625D01*
X125920519Y-123586590D01*
X125934199Y-123625468D01*
X125956015Y-123689056D01*
X125972502Y-123739530D01*
X125983528Y-123776458D01*
X125988959Y-123799409D01*
X125988663Y-123807951D01*
X125981432Y-123808188D01*
X125958766Y-123808454D01*
X125921234Y-123808727D01*
X125869405Y-123809004D01*
X125803846Y-123809285D01*
X125725126Y-123809569D01*
X125633813Y-123809855D01*
X125530477Y-123810141D01*
X125415685Y-123810426D01*
X125290007Y-123810710D01*
X125154010Y-123810991D01*
X125008263Y-123811268D01*
X124853334Y-123811540D01*
X124689792Y-123811805D01*
X124518206Y-123812063D01*
X124339143Y-123812313D01*
X124153173Y-123812553D01*
X123960864Y-123812783D01*
X123762784Y-123813001D01*
X123559501Y-123813205D01*
X123351585Y-123813396D01*
X123139604Y-123813571D01*
X123138068Y-123813573D01*
X122884848Y-123813774D01*
X122647083Y-123813969D01*
X122424275Y-123814163D01*
X122215928Y-123814357D01*
X122021543Y-123814554D01*
X121840625Y-123814757D01*
X121672675Y-123814969D01*
X121517197Y-123815193D01*
X121373693Y-123815431D01*
X121241667Y-123815687D01*
X121120620Y-123815963D01*
X121010056Y-123816262D01*
X120909478Y-123816588D01*
X120818388Y-123816942D01*
X120736290Y-123817327D01*
X120662686Y-123817747D01*
X120597078Y-123818205D01*
X120538970Y-123818702D01*
X120487865Y-123819243D01*
X120443265Y-123819829D01*
X120404673Y-123820464D01*
X120371593Y-123821150D01*
X120343526Y-123821891D01*
X120319975Y-123822689D01*
X120300444Y-123823547D01*
X120284436Y-123824467D01*
X120271452Y-123825454D01*
X120260996Y-123826508D01*
X120252571Y-123827635D01*
X120245679Y-123828835D01*
X120239824Y-123830112D01*
X120214668Y-123836367D01*
X120088297Y-123875754D01*
X119973937Y-123925610D01*
X119871487Y-123986024D01*
X119780845Y-124057084D01*
X119701911Y-124138880D01*
X119634584Y-124231498D01*
X119578763Y-124335029D01*
X119534346Y-124449561D01*
X119509662Y-124540555D01*
X119489289Y-124658287D01*
X119479382Y-124780839D01*
X119479902Y-124904804D01*
X119490810Y-125026777D01*
X119512065Y-125143351D01*
X119543629Y-125251120D01*
X119574840Y-125327331D01*
X119630523Y-125429249D01*
X119698372Y-125521050D01*
X119778074Y-125602469D01*
X119869318Y-125673239D01*
X119971792Y-125733093D01*
X120085183Y-125781767D01*
X120209180Y-125818993D01*
X120214522Y-125820168D01*
X120221026Y-125821297D01*
X120229071Y-125822362D01*
X120239123Y-125823366D01*
X120251645Y-125824310D01*
X120267104Y-125825199D01*
X120285964Y-125826033D01*
X120308691Y-125826816D01*
X120335748Y-125827551D01*
X120367601Y-125828240D01*
X120404715Y-125828886D01*
X120447555Y-125829491D01*
X120496586Y-125830058D01*
X120552273Y-125830590D01*
X120615081Y-125831088D01*
X120685474Y-125831557D01*
X120763918Y-125831998D01*
X120850877Y-125832413D01*
X120946817Y-125832807D01*
X121052203Y-125833181D01*
X121167499Y-125833537D01*
X121293170Y-125833879D01*
X121429682Y-125834209D01*
X121577499Y-125834529D01*
X121737086Y-125834843D01*
X121908908Y-125835153D01*
X122093431Y-125835461D01*
X122291118Y-125835770D01*
X122502436Y-125836083D01*
X122727848Y-125836402D01*
X122967821Y-125836730D01*
X123222818Y-125837070D01*
X123493305Y-125837424D01*
X126718866Y-125841615D01*
X126852678Y-126220540D01*
X126858136Y-126236000D01*
X126884216Y-126309907D01*
X126908691Y-126379339D01*
X126931029Y-126442786D01*
X126950701Y-126498739D01*
X126967176Y-126545688D01*
X126979924Y-126582123D01*
X126988415Y-126606536D01*
X126992118Y-126617415D01*
X126997745Y-126635365D01*
X126759881Y-126635323D01*
X126522016Y-126635281D01*
X126462186Y-126464005D01*
X126402355Y-126292728D01*
X123374937Y-126290023D01*
X123371542Y-126290020D01*
X123097362Y-126289764D01*
X122838737Y-126289500D01*
X122595272Y-126289226D01*
X122366573Y-126288940D01*
X122152246Y-126288641D01*
X121951894Y-126288327D01*
X121765125Y-126287997D01*
X121591542Y-126287649D01*
X121430751Y-126287281D01*
X121282357Y-126286892D01*
X121145967Y-126286480D01*
X121021184Y-126286044D01*
X120907614Y-126285582D01*
X120804863Y-126285092D01*
X120712536Y-126284573D01*
X120630237Y-126284023D01*
X120557573Y-126283440D01*
X120494148Y-126282824D01*
X120439568Y-126282172D01*
X120393438Y-126281483D01*
X120355363Y-126280754D01*
X120324949Y-126279986D01*
X120301800Y-126279175D01*
X120285523Y-126278321D01*
X120275722Y-126277421D01*
X120199131Y-126265493D01*
X120045302Y-126232247D01*
X119902530Y-126187932D01*
X119770245Y-126132254D01*
X119647880Y-126064918D01*
X119534866Y-125985631D01*
X119430634Y-125894096D01*
X119334617Y-125790021D01*
X119278912Y-125718661D01*
X119197815Y-125594364D01*
X119130112Y-125462442D01*
X119076072Y-125323938D01*
X119035963Y-125179896D01*
X119010055Y-125031360D01*
X118998616Y-124879373D01*
X119001914Y-124724979D01*
X119020219Y-124569221D01*
X119023799Y-124548523D01*
X119058457Y-124399514D01*
X119107505Y-124256675D01*
X119170532Y-124120795D01*
X119247126Y-123992663D01*
X119336879Y-123873069D01*
X119439379Y-123762802D01*
X119523856Y-123685960D01*
X119630736Y-123603183D01*
X119741040Y-123534114D01*
X119856700Y-123477839D01*
X119979646Y-123433444D01*
X120111810Y-123400016D01*
X120255121Y-123376639D01*
X120259653Y-123376103D01*
X120270869Y-123374993D01*
X120284383Y-123373956D01*
X120300701Y-123372989D01*
X120320328Y-123372091D01*
X120343771Y-123371259D01*
X120371535Y-123370493D01*
X120404127Y-123369789D01*
X120442051Y-123369147D01*
X120485814Y-123368565D01*
X120535921Y-123368040D01*
X120592879Y-123367571D01*
X120657193Y-123367156D01*
X120729369Y-123366793D01*
X120809912Y-123366480D01*
X120899329Y-123366216D01*
X120998125Y-123365999D01*
X121106807Y-123365827D01*
X121225879Y-123365697D01*
X121355849Y-123365609D01*
X121497220Y-123365560D01*
X121650500Y-123365549D01*
X121816194Y-123365574D01*
G37*
D14*
X128700000Y-118250000D02*
G75*
G02*
X127300000Y-118250000I-700000J0D01*
G01*
X127300000Y-118250000D02*
G75*
G02*
X128700000Y-118250000I700000J0D01*
G01*
X156477064Y-55090000D02*
X155022936Y-55090000D01*
X156477064Y-56910000D02*
X155022936Y-56910000D01*
X128700000Y-120250000D02*
G75*
G02*
X127300000Y-120250000I-700000J0D01*
G01*
X127300000Y-120250000D02*
G75*
G02*
X128700000Y-120250000I700000J0D01*
G01*
X144700000Y-91000000D02*
G75*
G02*
X143300000Y-91000000I-700000J0D01*
G01*
X143300000Y-91000000D02*
G75*
G02*
X144700000Y-91000000I700000J0D01*
G01*
X127522936Y-55090000D02*
X128977064Y-55090000D01*
X127522936Y-56910000D02*
X128977064Y-56910000D01*
X126700000Y-120250000D02*
G75*
G02*
X125300000Y-120250000I-700000J0D01*
G01*
X125300000Y-120250000D02*
G75*
G02*
X126700000Y-120250000I700000J0D01*
G01*
M02*
