M48
; DRILL file KiCad 10.0.0 date 2026-03-28T20:14:03
; FORMAT={-:-/ absolute / metric / decimal}
; #@! TF.CreationDate,2026-03-28T20:14:03+01:00
; #@! TF.GenerationSoftware,Kicad,Pcbnew,10.0.0
; #@! TF.FileFunction,Plated,1,6,PTH
FMAT,2
METRIC
; #@! TA.AperFunction,Plated,PTH,ViaDrill
T1C0.200
; #@! TA.AperFunction,Plated,PTH,ViaDrill
T2C0.500
; #@! TA.AperFunction,Plated,PTH,ComponentDrill
T3C0.500
; #@! TA.AperFunction,Plated,PTH,ComponentDrill
T4C0.700
; #@! TA.AperFunction,Plated,PTH,ComponentDrill
T5C0.750
; #@! TA.AperFunction,Plated,PTH,ComponentDrill
T6C0.800
; #@! TA.AperFunction,Plated,PTH,ComponentDrill
T7C1.150
; #@! TA.AperFunction,Plated,PTH,ComponentDrill
T8C3.200
%
G90
G05
T1
X150.5Y-129.0
X150.5Y-130.0
X150.5Y-132.0
X150.5Y-133.0
X151.25Y-127.75
X151.45Y-133.95
X152.5Y-133.95
X153.5Y-133.95
X154.5Y-133.95
X155.0Y-127.0
X155.0Y-131.0
X155.5Y-130.0
X155.5Y-132.0
X155.5Y-133.0
X156.5Y-126.0
X156.5Y-127.0
X156.5Y-130.0
X156.5Y-131.0
X157.0Y-117.0
X157.0Y-118.0
X157.0Y-119.0
X157.0Y-120.0
X157.0Y-121.0
X157.0Y-122.0
X157.0Y-124.0
X158.0Y-116.0
X158.0Y-124.0
X158.8Y-126.5
X158.8Y-130.5
X158.8Y-134.5
X158.8Y-138.5
X159.0Y-111.0
X159.0Y-112.0
X159.0Y-113.0
X159.0Y-114.0
X159.0Y-115.0
X159.0Y-124.0
X159.45Y-117.95
X159.5Y-100.25
X159.75Y-101.05
X159.9Y-71.6
X159.9Y-77.4
X159.9Y-78.1
X159.9Y-83.9
X159.9Y-84.6
X159.9Y-90.7
X159.95Y-91.5
X160.0Y-111.0
X160.0Y-124.0
X160.6Y-116.5
X160.65Y-110.3
X160.8Y-126.5
X160.8Y-130.5
X160.85Y-72.85
X160.85Y-76.15
X160.85Y-79.35
X160.85Y-82.65
X160.85Y-85.85
X160.85Y-97.75
X160.9Y-90.0
X161.0Y-107.25
X161.0Y-111.0
X161.0Y-124.0
X161.35Y-110.3
X162.0Y-111.0
X162.0Y-124.0
X162.5Y-97.75
X163.0Y-111.0
X163.0Y-122.0
X163.25Y-93.3
X163.75Y-101.05
X163.75Y-117.75
X163.9Y-116.5
X164.0Y-94.3
X164.0Y-111.0
X164.0Y-121.25
X164.65Y-110.3
X164.75Y-91.5
X164.95Y-117.55
X165.0Y-107.25
X165.0Y-121.25
X165.1Y-112.0
X165.1Y-113.0
X165.1Y-114.0
X165.35Y-110.3
X165.65Y-97.75
X166.0Y-113.75
X166.0Y-115.0
X166.0Y-116.0
X166.0Y-119.0
X166.0Y-120.0
X166.0Y-121.0
X166.25Y-130.25
X166.25Y-131.0
X166.25Y-131.75
X166.25Y-134.75
X166.25Y-135.5
X166.25Y-136.25
X167.275Y-117.675
X168.05Y-93.3
X168.1Y-111.3
X168.2Y-123.65
X168.25Y-110.5
X168.5Y-99.45
X168.5Y-104.0
X168.5Y-107.3
X168.8Y-94.3
X168.8Y-123.65
X168.85Y-111.3
X169.0Y-97.75
X169.55Y-91.5
X169.7Y-117.675
X170.0Y-99.45
X170.0Y-101.05
X170.45Y-97.75
X171.5Y-99.45
X171.5Y-101.025
X171.65Y-123.3
X171.675Y-110.35
X172.0Y-97.75
X172.0Y-111.25
X172.0Y-112.75
X172.05Y-115.25
X172.05Y-116.95
X172.35Y-123.3
X172.85Y-93.3
X173.0Y-99.45
X173.0Y-101.025
X173.25Y-102.6
X173.6Y-94.3
X174.0Y-112.3
X174.5Y-115.25
X175.243Y-107.486
X175.25Y-98.05
X175.25Y-103.45
X175.25Y-108.25
X175.25Y-111.55
X175.25Y-116.95
X175.25Y-118.625
X175.25Y-119.2
X176.05Y-95.45
X177.75Y-106.45
X177.75Y-119.95
X178.0Y-97.0
X178.0Y-104.5
X178.0Y-110.5
X178.0Y-118.0
X178.5Y-82.25
X178.5Y-92.75
X178.7Y-95.15
X179.4Y-97.0
X179.4Y-104.25
X179.4Y-110.5
X179.4Y-117.75
X179.5Y-105.25
X179.5Y-118.75
X179.7Y-95.15
X179.75Y-82.25
X179.75Y-92.75
X180.0Y-105.25
X180.0Y-118.75
X180.5Y-105.25
X180.5Y-118.75
X180.75Y-107.7
X180.75Y-108.95
X180.75Y-121.2
X180.75Y-122.45
X180.85Y-97.55
X180.85Y-98.8
X180.85Y-111.05
X180.85Y-112.3
X181.0Y-82.25
X181.0Y-92.75
X182.35Y-92.25
X182.7Y-77.15
X182.7Y-80.15
X184.25Y-130.25
X184.25Y-131.0
X184.25Y-131.75
X184.25Y-134.75
X184.25Y-135.5
X184.25Y-136.25
X184.4Y-84.75
X184.4Y-95.5
X185.1Y-84.75
X185.107Y-95.5
X185.45Y-86.4
X185.45Y-93.55
X186.082Y-86.4
X186.082Y-93.55
X186.718Y-86.2
X186.718Y-93.8
X187.35Y-86.2
X187.35Y-93.8
X188.5Y-134.5
X188.616Y-86.399
X188.75Y-93.8
X189.0Y-137.0
X190.0Y-81.2
X191.0Y-135.25
X191.0Y-140.25
X191.028Y-91.477
X191.15Y-82.0
X191.15Y-83.5
X191.9Y-84.75
X192.0Y-135.25
X192.0Y-140.25
X192.3Y-88.55
X192.6Y-95.2
X192.6Y-100.075
X192.612Y-97.535
X192.625Y-111.045
X192.625Y-113.575
X192.65Y-131.4
X192.75Y-108.95
X192.75Y-122.45
X192.933Y-91.483
X193.0Y-135.25
X193.0Y-140.25
X193.3Y-95.2
X193.5Y-105.25
X193.5Y-118.75
X194.0Y-105.25
X194.0Y-118.75
X194.202Y-88.55
X194.25Y-82.0
X194.5Y-105.25
X194.5Y-118.75
X194.837Y-88.55
X194.85Y-93.8
X195.05Y-82.7
X195.7Y-102.95
X195.7Y-103.55
X195.7Y-116.45
X195.7Y-117.05
X196.075Y-81.675
X196.1Y-107.7
X196.1Y-121.2
X196.35Y-85.65
X196.75Y-133.25
X196.75Y-137.25
X197.75Y-92.65
X197.75Y-133.25
X197.75Y-137.25
X197.85Y-85.65
X198.65Y-78.1
X198.7Y-97.65
X198.7Y-101.25
X198.7Y-111.15
X198.7Y-114.75
X198.75Y-133.25
X198.75Y-137.25
X199.5Y-92.0
X200.75Y-124.5
X201.5Y-124.5
X202.25Y-124.5
X203.5Y-130.5
X204.5Y-130.5
X205.5Y-130.5
X206.5Y-130.5
X207.5Y-130.5
T2
X164.6Y-74.0
T3
X203.35Y-137.75
X204.053Y-136.053
X204.053Y-139.447
X205.75Y-135.35
X205.75Y-140.15
X207.447Y-136.053
X207.447Y-139.447
X208.15Y-137.75
T4
X151.75Y-90.5
X151.75Y-92.5
X151.75Y-94.5
X153.75Y-90.5
X153.75Y-92.5
X153.75Y-94.5
X166.354Y-128.2
X166.354Y-138.36
X168.894Y-128.2
X168.894Y-138.36
X181.594Y-128.2
X184.134Y-128.2
X184.134Y-138.36
X204.75Y-92.0
X204.75Y-94.0
X204.75Y-96.0
X204.75Y-98.0
X204.75Y-100.0
X204.75Y-102.0
X204.75Y-104.0
X204.75Y-106.0
X204.75Y-108.0
X204.75Y-110.0
X206.75Y-92.0
X206.75Y-94.0
X206.75Y-96.0
X206.75Y-98.0
X206.75Y-100.0
X206.75Y-102.0
X206.75Y-104.0
X206.75Y-106.0
X206.75Y-108.0
X206.75Y-110.0
T5
X164.45Y-71.92
X164.45Y-77.0
X164.45Y-78.42
X164.45Y-83.5
X164.45Y-84.92
X164.45Y-90.0
X166.65Y-71.92
X166.65Y-77.0
X166.65Y-78.42
X166.65Y-83.5
X166.65Y-84.92
X166.65Y-90.0
X168.85Y-71.92
X168.85Y-77.0
X168.85Y-78.42
X168.85Y-83.5
X168.85Y-84.92
X168.85Y-90.0
X172.05Y-71.92
X172.05Y-77.0
X172.05Y-78.42
X172.05Y-83.5
X172.05Y-84.92
X172.05Y-90.0
X188.8Y-74.0
X188.8Y-79.08
X192.0Y-74.0
X192.0Y-79.08
X194.2Y-74.0
X194.2Y-79.08
X196.4Y-74.0
X196.4Y-79.08
T6
X151.75Y-104.75
X151.75Y-106.75
X151.75Y-108.75
X151.75Y-110.75
X151.75Y-114.75
X151.75Y-116.75
X151.75Y-118.75
X151.75Y-120.75
X151.75Y-122.75
X151.75Y-124.75
X151.75Y-126.75
X151.75Y-128.75
X151.75Y-130.75
X151.75Y-132.75
X153.75Y-104.75
X153.75Y-106.75
X153.75Y-108.75
X153.75Y-110.75
X153.75Y-114.75
X153.75Y-116.75
X153.75Y-118.75
X153.75Y-120.75
X153.75Y-122.75
X153.75Y-124.75
X153.75Y-126.75
X153.75Y-128.75
X153.75Y-130.75
X153.75Y-132.75
X196.75Y-139.0
X198.75Y-139.0
T7
X176.71Y-83.655
X176.71Y-86.195
X176.71Y-88.735
X176.71Y-91.275
T8
X205.75Y-137.75
M30
