%TF.GenerationSoftware,KiCad,Pcbnew,10.0.0*%
%TF.CreationDate,2026-03-28T20:13:57+01:00*%
%TF.ProjectId,PUTM_AMS_MASTER_ISOLATION,5055544d-5f41-44d5-935f-4d4153544552,rev?*%
%TF.SameCoordinates,Original*%
%TF.FileFunction,Copper,L3,Inr*%
%TF.FilePolarity,Positive*%
%FSLAX46Y46*%
G04 Gerber Fmt 4.6, Leading zero omitted, Abs format (unit mm)*
G04 Created by KiCad (PCBNEW 10.0.0) date 2026-03-28 20:13:57*
%MOMM*%
%LPD*%
G01*
G04 APERTURE LIST*
%TA.AperFunction,ComponentPad*%
%ADD10C,1.200000*%
%TD*%
%TA.AperFunction,ComponentPad*%
%ADD11R,1.200000X1.200000*%
%TD*%
%TA.AperFunction,ComponentPad*%
%ADD12C,1.350000*%
%TD*%
%TA.AperFunction,ComponentPad*%
%ADD13R,1.350000X1.350000*%
%TD*%
%TA.AperFunction,ViaPad*%
%ADD14C,0.450000*%
%TD*%
%TA.AperFunction,Conductor*%
%ADD15C,0.200000*%
%TD*%
%TA.AperFunction,Conductor*%
%ADD16C,1.000000*%
%TD*%
%TA.AperFunction,Conductor*%
%ADD17C,0.500000*%
%TD*%
G04 APERTURE END LIST*
D10*
%TO.N,Net-(PS2-COM)*%
%TO.C,PS2*%
X166354293Y-128200000D03*
%TD*%
%TO.N,/Interface connectors/SDC_IN*%
%TO.C,K2*%
X194200000Y-79080000D03*
%TO.N,/SDC Driver/RELAY-*%
X188800000Y-74000000D03*
%TD*%
D11*
%TO.N,/Interface connectors/AIR_M-*%
%TO.C,J4*%
X153750000Y-94500000D03*
D10*
%TO.N,/Interface connectors/AIR_P-*%
X153750000Y-92500000D03*
%TO.N,/Interface connectors/PRE-*%
X153750000Y-90500000D03*
%TD*%
%TO.N,/Interface connectors/SDC_IN*%
%TO.C,J2*%
X204750000Y-94000000D03*
%TO.N,GNDUSB*%
X206750000Y-96000000D03*
%TD*%
D12*
%TO.N,/Relay Driver PRE/EN*%
%TO.C,J3*%
X151750000Y-110750000D03*
%TO.N,/Relay Driver P/EN*%
X151750000Y-108750000D03*
%TO.N,/Relay Driver M/EN*%
X151750000Y-106750000D03*
%TD*%
D13*
%TO.N,/Stack Connectors/UART_TX*%
%TO.C,J1*%
X151750000Y-114750000D03*
D12*
%TO.N,/Stack Connectors/UART_RX*%
X151750000Y-116750000D03*
%TO.N,/Stack Connectors/USB_DETECTION*%
X153750000Y-116750000D03*
%TO.N,/FDCAN CHG/RXD*%
X151750000Y-118750000D03*
%TO.N,/Stack Connectors/UART_RST*%
X153750000Y-118750000D03*
%TO.N,/FDCAN CHG/TXD*%
X151750000Y-120750000D03*
%TO.N,/FDCAN CAR/RXD*%
X151750000Y-122750000D03*
%TO.N,/FDCAN CAR/TXD*%
X151750000Y-124750000D03*
%TO.N,/SDC Driver/RELAY-*%
X151750000Y-130750000D03*
%TD*%
D14*
%TO.N,Net-(PS2-COM)*%
X158800000Y-130500000D03*
X158800000Y-138500000D03*
X158800000Y-126500000D03*
X158800000Y-134500000D03*
%TO.N,+24V*%
X192650000Y-131400000D03*
X189000000Y-137000000D03*
%TO.N,/Power/F_24V*%
X193000000Y-135250000D03*
X192000000Y-135250000D03*
X205500000Y-130500000D03*
X207500000Y-130500000D03*
X206500000Y-130500000D03*
X191000000Y-135250000D03*
X204500000Y-130500000D03*
X203500000Y-130500000D03*
%TO.N,/USB/RX_LED*%
X194850000Y-93800000D03*
X197850000Y-85650000D03*
%TO.N,/Relay Driver P/EN*%
X169000000Y-97750000D03*
%TO.N,/Interface connectors/AIR_M-*%
X160900000Y-90000000D03*
%TO.N,GNDUSB*%
X197750000Y-92650000D03*
%TO.N,/USB/TX_LED*%
X196350000Y-85650000D03*
X192300000Y-88550000D03*
%TO.N,/Interface connectors/PRE-*%
X160850000Y-76150000D03*
%TO.N,/FDCAN CHG/VDDCAN*%
X198700000Y-97650000D03*
X195700000Y-102950000D03*
%TO.N,/USB/_TXD*%
X191027500Y-91477500D03*
X186717500Y-86200000D03*
%TO.N,/USB/_RXD*%
X186082500Y-86400000D03*
X192932500Y-91482500D03*
%TO.N,/USB/_~{RST}*%
X185450000Y-86400000D03*
X194202500Y-88550000D03*
X194250000Y-82000000D03*
%TO.N,/FDCAN CHG/GNDCANOUT*%
X192612500Y-97535000D03*
X192600000Y-100075000D03*
%TO.N,/FDCAN CHG/RXD*%
X175242851Y-107485702D03*
%TO.N,/FDCAN CHG/TXD*%
X175250000Y-108250000D03*
%TO.N,/Relay Driver PRE/EN*%
X172000000Y-97750000D03*
%TO.N,/FDCAN CAR/VDDCAN*%
X195700000Y-116450000D03*
X198700000Y-111150000D03*
%TO.N,/Stack Connectors/UART_RST*%
X185450000Y-93550000D03*
%TO.N,/Stack Connectors/UART_RX*%
X186082500Y-93550000D03*
%TO.N,/Stack Connectors/UART_TX*%
X186717500Y-93800000D03*
%TO.N,/Stack Connectors/USB_DETECTION*%
X187350000Y-93800000D03*
%TO.N,/Interface connectors/AIR_P-*%
X160850000Y-82650000D03*
%TO.N,/FDCAN CAR/RXD*%
X175250000Y-118624997D03*
%TO.N,/FDCAN CAR/TXD*%
X175250000Y-119200000D03*
%TO.N,/FDCAN CAR/GNDCANOUT*%
X192625000Y-113575000D03*
X192625000Y-111045000D03*
%TO.N,/Relay Driver M/EN*%
X162500000Y-97750000D03*
%TD*%
%TO.N,+24V*%
D15*
X189000000Y-134500000D02*
X189000000Y-137000000D01*
X192100000Y-131400000D02*
X189000000Y-134500000D01*
X192650000Y-131400000D02*
X192100000Y-131400000D01*
%TO.N,/USB/RX_LED*%
X194850000Y-93800000D02*
X194850000Y-89600000D01*
X197850000Y-86600000D02*
X197850000Y-85650000D01*
X194850000Y-89600000D02*
X197850000Y-86600000D01*
%TO.N,/Relay Driver P/EN*%
X169000000Y-97750000D02*
X169000000Y-105750000D01*
X169000000Y-105750000D02*
X166500000Y-108250000D01*
X152750000Y-109750000D02*
X151750000Y-108750000D01*
X154500000Y-109750000D02*
X152750000Y-109750000D01*
X156000000Y-108250000D02*
X154500000Y-109750000D01*
X166500000Y-108250000D02*
X156000000Y-108250000D01*
%TO.N,/Interface connectors/AIR_M-*%
D16*
X160050000Y-89150000D02*
X159100000Y-89150000D01*
X160900000Y-90000000D02*
X160050000Y-89150000D01*
X159100000Y-89150000D02*
X153750000Y-94500000D01*
%TO.N,GNDUSB*%
D17*
X203700000Y-96950000D02*
X199400000Y-92650000D01*
X205800000Y-96950000D02*
X203700000Y-96950000D01*
X199400000Y-92650000D02*
X197750000Y-92650000D01*
X206750000Y-96000000D02*
X205800000Y-96950000D01*
%TO.N,/USB/TX_LED*%
D15*
X195023897Y-89000000D02*
X196350000Y-87673897D01*
X192750000Y-89000000D02*
X195023897Y-89000000D01*
X196350000Y-87673897D02*
X196350000Y-85650000D01*
X192300000Y-88550000D02*
X192750000Y-89000000D01*
%TO.N,/Interface connectors/PRE-*%
D16*
X153750000Y-90500000D02*
X156650000Y-87600000D01*
X156650000Y-87600000D02*
X156650000Y-79200000D01*
X159700000Y-76150000D02*
X160850000Y-76150000D01*
X156650000Y-79200000D02*
X159700000Y-76150000D01*
%TO.N,/SDC Driver/RELAY-*%
D17*
X151750000Y-112700000D02*
X155800000Y-112700000D01*
X155800000Y-112700000D02*
X159000000Y-109500000D01*
X168750000Y-109500000D02*
X172250000Y-106000000D01*
X172250000Y-99000000D02*
X173000000Y-98250000D01*
X149900000Y-130248529D02*
X149900000Y-114550000D01*
X149900000Y-114550000D02*
X151750000Y-112700000D01*
X151750000Y-130750000D02*
X150401471Y-130750000D01*
X159000000Y-109500000D02*
X168750000Y-109500000D01*
X174700000Y-74900000D02*
X187900000Y-74900000D01*
X173000000Y-93998529D02*
X173500000Y-93498529D01*
X173000000Y-98250000D02*
X173000000Y-93998529D01*
X173500000Y-76100000D02*
X174700000Y-74900000D01*
X150401471Y-130750000D02*
X149900000Y-130248529D01*
X172250000Y-106000000D02*
X172250000Y-99000000D01*
X187900000Y-74900000D02*
X188800000Y-74000000D01*
X173500000Y-93498529D02*
X173500000Y-76100000D01*
%TO.N,/USB/_TXD*%
D15*
X186717500Y-86196103D02*
X187163603Y-85750000D01*
X188653498Y-85800000D02*
X190650000Y-87796502D01*
X186717500Y-86200000D02*
X186717500Y-86196103D01*
X190650000Y-91100000D02*
X191027500Y-91477500D01*
X188650000Y-85800000D02*
X188653498Y-85800000D01*
X187163603Y-85750000D02*
X188600000Y-85750000D01*
X190650000Y-87796502D02*
X190650000Y-91100000D01*
X188600000Y-85750000D02*
X188650000Y-85800000D01*
%TO.N,/USB/_RXD*%
X186800000Y-85450000D02*
X186082500Y-86167500D01*
X188800000Y-85450000D02*
X186800000Y-85450000D01*
X186082500Y-86167500D02*
X186082500Y-86400000D01*
X192932500Y-91482500D02*
X190950000Y-89500000D01*
X190950000Y-87600000D02*
X188800000Y-85450000D01*
X190950000Y-89500000D02*
X190950000Y-87600000D01*
%TO.N,/USB/_~{RST}*%
X185450000Y-86350000D02*
X186650000Y-85150000D01*
X186650000Y-85150000D02*
X188924264Y-85150000D01*
X191874264Y-88100000D02*
X192500000Y-88100000D01*
X192950000Y-88550000D02*
X194202500Y-88550000D01*
X185450000Y-86400000D02*
X185450000Y-86350000D01*
X188924264Y-85150000D02*
X191874264Y-88100000D01*
X194250000Y-82000000D02*
X194250000Y-88502500D01*
X192500000Y-88100000D02*
X192950000Y-88550000D01*
X194250000Y-88502500D02*
X194202500Y-88550000D01*
%TO.N,/FDCAN CHG/GNDCANOUT*%
D17*
X192600000Y-100075000D02*
X192612500Y-100062500D01*
X192612500Y-100062500D02*
X192612500Y-97535000D01*
%TO.N,/FDCAN CHG/RXD*%
D15*
X167500000Y-122750000D02*
X156000000Y-122750000D01*
X175242851Y-107507149D02*
X173000000Y-109750000D01*
X154250000Y-119750000D02*
X152750000Y-119750000D01*
X173000000Y-117250000D02*
X167500000Y-122750000D01*
X156000000Y-122750000D02*
X154750000Y-121500000D01*
X154750000Y-120250000D02*
X154250000Y-119750000D01*
X152750000Y-119750000D02*
X151750000Y-118750000D01*
X154750000Y-121500000D02*
X154750000Y-120250000D01*
X173000000Y-109750000D02*
X173000000Y-117250000D01*
X175242851Y-107485702D02*
X175242851Y-107507149D01*
%TO.N,/FDCAN CHG/TXD*%
X154250000Y-121750000D02*
X152750000Y-121750000D01*
X173500000Y-117500000D02*
X167750000Y-123250000D01*
X167750000Y-123250000D02*
X155750000Y-123250000D01*
X152750000Y-121750000D02*
X151750000Y-120750000D01*
X155750000Y-123250000D02*
X154250000Y-121750000D01*
X175250000Y-108250000D02*
X173500000Y-110000000D01*
X173500000Y-110000000D02*
X173500000Y-117500000D01*
%TO.N,/Relay Driver PRE/EN*%
X157750000Y-108750000D02*
X168250000Y-108750000D01*
X151750000Y-110750000D02*
X153000000Y-112000000D01*
X154500000Y-112000000D02*
X157750000Y-108750000D01*
X170750000Y-99000000D02*
X172000000Y-97750000D01*
X168250000Y-108750000D02*
X170750000Y-106250000D01*
X170750000Y-106250000D02*
X170750000Y-99000000D01*
X153000000Y-112000000D02*
X154500000Y-112000000D01*
%TO.N,/Stack Connectors/UART_RST*%
X153750000Y-118750000D02*
X155500000Y-118750000D01*
X185450000Y-93546103D02*
X185450000Y-93550000D01*
X172500000Y-109250000D02*
X176250000Y-105500000D01*
X186750000Y-96000000D02*
X188250000Y-94500000D01*
X188250000Y-93000000D02*
X188000000Y-92750000D01*
X181500000Y-96000000D02*
X186750000Y-96000000D01*
X188000000Y-92750000D02*
X186246103Y-92750000D01*
X176250000Y-105500000D02*
X176250000Y-103250000D01*
X176250000Y-103250000D02*
X179000000Y-100500000D01*
X186246103Y-92750000D02*
X185450000Y-93546103D01*
X172500000Y-113750000D02*
X172500000Y-109250000D01*
X167750000Y-118500000D02*
X172500000Y-113750000D01*
X179000000Y-98500000D02*
X181500000Y-96000000D01*
X179000000Y-100500000D02*
X179000000Y-98500000D01*
X188250000Y-94500000D02*
X188250000Y-93000000D01*
X155500000Y-118750000D02*
X155750000Y-118500000D01*
X155750000Y-118500000D02*
X167750000Y-118500000D01*
%TO.N,/Stack Connectors/UART_RX*%
X180750000Y-95000000D02*
X187000000Y-95000000D01*
X152750000Y-117750000D02*
X155750000Y-117750000D01*
X167750000Y-117000000D02*
X171000000Y-113750000D01*
X187000000Y-95000000D02*
X187800000Y-94200000D01*
X187500000Y-93250000D02*
X186382500Y-93250000D01*
X158000000Y-117000000D02*
X167750000Y-117000000D01*
X171000000Y-110000000D02*
X175750000Y-105250000D01*
X151750000Y-116750000D02*
X152750000Y-117750000D01*
X175750000Y-105250000D02*
X175750000Y-103000000D01*
X175750000Y-103000000D02*
X178500000Y-100250000D01*
X187800000Y-94200000D02*
X187800000Y-93550000D01*
X156000000Y-117500000D02*
X157500000Y-117500000D01*
X157500000Y-117500000D02*
X158000000Y-117000000D01*
X171000000Y-113750000D02*
X171000000Y-110000000D01*
X155750000Y-117750000D02*
X156000000Y-117500000D01*
X186382500Y-93250000D02*
X186082500Y-93550000D01*
X187800000Y-93550000D02*
X187500000Y-93250000D01*
X178500000Y-97250000D02*
X180750000Y-95000000D01*
X178500000Y-100250000D02*
X178500000Y-97250000D01*
%TO.N,/Stack Connectors/UART_TX*%
X176750000Y-100413604D02*
X176750000Y-95500000D01*
X151750000Y-114750000D02*
X152750000Y-115750000D01*
X173750000Y-105750000D02*
X173750000Y-103413603D01*
X156950000Y-114550000D02*
X166450000Y-114550000D01*
X186517500Y-94000000D02*
X186717500Y-93800000D01*
X176750000Y-95500000D02*
X179000000Y-93250000D01*
X183250000Y-93250000D02*
X184000000Y-94000000D01*
X170000000Y-109500000D02*
X173750000Y-105750000D01*
X170000000Y-111000000D02*
X170000000Y-109500000D01*
X184000000Y-94000000D02*
X186517500Y-94000000D01*
X173750000Y-103413603D02*
X176750000Y-100413604D01*
X152750000Y-115750000D02*
X155750000Y-115750000D01*
X155750000Y-115750000D02*
X156950000Y-114550000D01*
X179000000Y-93250000D02*
X183250000Y-93250000D01*
X166450000Y-114550000D02*
X170000000Y-111000000D01*
%TO.N,/Stack Connectors/USB_DETECTION*%
X166250000Y-115500000D02*
X170500000Y-111250000D01*
X177250000Y-95750000D02*
X179250000Y-93750000D01*
X186653897Y-94500000D02*
X187350000Y-93803897D01*
X177250000Y-100750000D02*
X177250000Y-95750000D01*
X174250000Y-106000000D02*
X174250000Y-103750000D01*
X187350000Y-93803897D02*
X187350000Y-93800000D01*
X179250000Y-93750000D02*
X183000000Y-93750000D01*
X156750000Y-115500000D02*
X166250000Y-115500000D01*
X153750000Y-116750000D02*
X155500000Y-116750000D01*
X170500000Y-111250000D02*
X170500000Y-109750000D01*
X183000000Y-93750000D02*
X183750000Y-94500000D01*
X183750000Y-94500000D02*
X186653897Y-94500000D01*
X174250000Y-103750000D02*
X177250000Y-100750000D01*
X170500000Y-109750000D02*
X174250000Y-106000000D01*
X155500000Y-116750000D02*
X156750000Y-115500000D01*
%TO.N,/Interface connectors/AIR_P-*%
D16*
X159947918Y-82650000D02*
X160850000Y-82650000D01*
X153750000Y-92500000D02*
X158000000Y-88250000D01*
X158000000Y-88250000D02*
X158000000Y-84597918D01*
X158000000Y-84597918D02*
X159947918Y-82650000D01*
%TO.N,/Interface connectors/SDC_IN*%
X200400000Y-79500000D02*
X201300000Y-80400000D01*
X202800000Y-92898528D02*
X203901472Y-94000000D01*
X194200000Y-79080000D02*
X195580000Y-77700000D01*
X201300000Y-83800000D02*
X202800000Y-85300000D01*
X195580000Y-77700000D02*
X197000000Y-77700000D01*
X202800000Y-85300000D02*
X202800000Y-92898528D01*
X201300000Y-80400000D02*
X201300000Y-83800000D01*
X203901472Y-94000000D02*
X204750000Y-94000000D01*
X197000000Y-77700000D02*
X198800000Y-79500000D01*
X198800000Y-79500000D02*
X200400000Y-79500000D01*
%TO.N,/FDCAN CAR/RXD*%
D15*
X154250000Y-123750000D02*
X155250000Y-124750000D01*
X151750000Y-122750000D02*
X152750000Y-123750000D01*
X152750000Y-123750000D02*
X154250000Y-123750000D01*
X174625003Y-118624997D02*
X175250000Y-118624997D01*
X155250000Y-124750000D02*
X168500000Y-124750000D01*
X168500000Y-124750000D02*
X174625003Y-118624997D01*
%TO.N,/FDCAN CAR/TXD*%
X168750000Y-125250000D02*
X174800000Y-119200000D01*
X154750000Y-125750000D02*
X155250000Y-125250000D01*
X174800000Y-119200000D02*
X175250000Y-119200000D01*
X151750000Y-124750000D02*
X152750000Y-125750000D01*
X152750000Y-125750000D02*
X154750000Y-125750000D01*
X155250000Y-125250000D02*
X168750000Y-125250000D01*
%TO.N,/FDCAN CAR/GNDCANOUT*%
D17*
X192625000Y-111045000D02*
X192625000Y-113575000D01*
%TO.N,/Relay Driver M/EN*%
D15*
X163250000Y-98500000D02*
X162500000Y-97750000D01*
X167500000Y-99000000D02*
X167000000Y-98500000D01*
X167500000Y-106500000D02*
X167500000Y-99000000D01*
X166250000Y-107750000D02*
X167500000Y-106500000D01*
X151750000Y-106750000D02*
X152750000Y-107750000D01*
X167000000Y-98500000D02*
X163250000Y-98500000D01*
X152750000Y-107750000D02*
X166250000Y-107750000D01*
%TD*%
%TA.AperFunction,Conductor*%
%TO.N,/Interface connectors/PRE-*%
G36*
X154249489Y-89309692D02*
G01*
X154940385Y-90000588D01*
X154943812Y-90008861D01*
X154940592Y-90016922D01*
X154625087Y-90348831D01*
X154403237Y-90631330D01*
X154233109Y-90855888D01*
X154225381Y-90860413D01*
X154216718Y-90858149D01*
X154216676Y-90858117D01*
X153750532Y-90501654D01*
X153748345Y-90499467D01*
X153391882Y-90033323D01*
X153389579Y-90024670D01*
X153394068Y-90016922D01*
X153618681Y-89846754D01*
X153795605Y-89711877D01*
X153982523Y-89552408D01*
X153982533Y-89552397D01*
X153982538Y-89552394D01*
X154047672Y-89489262D01*
X154233075Y-89309562D01*
X154241399Y-89306266D01*
X154249489Y-89309692D01*
G37*
%TD.AperFunction*%
%TD*%
%TA.AperFunction,Conductor*%
%TO.N,/USB/_TXD*%
G36*
X186964431Y-85818498D02*
G01*
X186965820Y-85819121D01*
X186969305Y-85821523D01*
X187091131Y-85943349D01*
X187093667Y-85947143D01*
X187094349Y-85948789D01*
X187094350Y-85957744D01*
X187094348Y-85957749D01*
X187093666Y-85959394D01*
X187091131Y-85963186D01*
X187069529Y-85984788D01*
X187069527Y-85984791D01*
X187062676Y-85996656D01*
X187062035Y-85997646D01*
X187061338Y-85998613D01*
X187060593Y-85999543D01*
X187050728Y-86010645D01*
X187050725Y-86010649D01*
X187018907Y-86059606D01*
X186985445Y-86148280D01*
X186968657Y-86200801D01*
X186968316Y-86201731D01*
X186967938Y-86202640D01*
X186967523Y-86203531D01*
X186911640Y-86311377D01*
X186908789Y-86314943D01*
X186907426Y-86316091D01*
X186898891Y-86318799D01*
X186898887Y-86318799D01*
X186897631Y-86318691D01*
X186892176Y-86316791D01*
X186887118Y-86313444D01*
X186887118Y-86313443D01*
X186887116Y-86313443D01*
X186719758Y-86202669D01*
X186717943Y-86201186D01*
X186716312Y-86199555D01*
X186714829Y-86197740D01*
X186600758Y-86025399D01*
X186599029Y-86021174D01*
X186598689Y-86019425D01*
X186600470Y-86010655D01*
X186600477Y-86010645D01*
X186601247Y-86009503D01*
X186605257Y-86005821D01*
X186689364Y-85959039D01*
X186690177Y-85958628D01*
X186691031Y-85958238D01*
X186691871Y-85957894D01*
X186766269Y-85930847D01*
X186850122Y-85897852D01*
X186900598Y-85865022D01*
X186950001Y-85821076D01*
X186953935Y-85818769D01*
X186955809Y-85818119D01*
X186964431Y-85818498D01*
G37*
%TD.AperFunction*%
%TD*%
%TA.AperFunction,Conductor*%
%TO.N,/USB/RX_LED*%
G36*
X194947225Y-93357750D02*
G01*
X194950633Y-93365353D01*
X194954378Y-93430611D01*
X194966205Y-93487851D01*
X194966205Y-93487853D01*
X195004356Y-93574542D01*
X195028212Y-93621855D01*
X195028924Y-93623607D01*
X195066772Y-93743714D01*
X195065990Y-93752634D01*
X195059129Y-93758389D01*
X195057945Y-93758695D01*
X194852332Y-93800525D01*
X194847667Y-93800525D01*
X194641748Y-93758632D01*
X194634325Y-93753625D01*
X194632616Y-93744834D01*
X194632840Y-93743922D01*
X194632900Y-93743714D01*
X194660368Y-93648573D01*
X194661050Y-93646783D01*
X194682918Y-93601116D01*
X194695636Y-93574560D01*
X194695646Y-93574538D01*
X194732866Y-93490923D01*
X194745358Y-93432618D01*
X194749347Y-93365330D01*
X194753257Y-93357275D01*
X194761026Y-93354323D01*
X194938952Y-93354323D01*
X194947225Y-93357750D01*
G37*
%TD.AperFunction*%
%TD*%
%TA.AperFunction,Conductor*%
%TO.N,/FDCAN CAR/RXD*%
G36*
X152388083Y-122558071D02*
G01*
X152395974Y-122562302D01*
X152396890Y-122563421D01*
X152397998Y-122567097D01*
X152398308Y-122567024D01*
X152455804Y-122810485D01*
X152455941Y-122811154D01*
X152456050Y-122811776D01*
X152456143Y-122812404D01*
X152480078Y-123012148D01*
X152480085Y-123012208D01*
X152496027Y-123151287D01*
X152533900Y-123297415D01*
X152566764Y-123369103D01*
X152613008Y-123444620D01*
X152640825Y-123480567D01*
X152681637Y-123533308D01*
X152681645Y-123533317D01*
X152763032Y-123620857D01*
X152763740Y-123621618D01*
X152766136Y-123625504D01*
X152766800Y-123627288D01*
X152766561Y-123636043D01*
X152765913Y-123637530D01*
X152763460Y-123641129D01*
X152640928Y-123763661D01*
X152637130Y-123766198D01*
X152635258Y-123766973D01*
X152626696Y-123767126D01*
X152625328Y-123766616D01*
X152621758Y-123764499D01*
X152456143Y-123621137D01*
X152455981Y-123620986D01*
X152455817Y-123620855D01*
X152378534Y-123571889D01*
X152305449Y-123537057D01*
X152241407Y-123519462D01*
X152163291Y-123498000D01*
X152134115Y-123494540D01*
X152016280Y-123480567D01*
X152016278Y-123480566D01*
X152012148Y-123480075D01*
X152012142Y-123480074D01*
X152011630Y-123480014D01*
X152011628Y-123480013D01*
X152011601Y-123480011D01*
X151805383Y-123454990D01*
X151804750Y-123454895D01*
X151804107Y-123454781D01*
X151803468Y-123454650D01*
X151568442Y-123399320D01*
X151564290Y-123397429D01*
X151562843Y-123396388D01*
X151558129Y-123388774D01*
X151557894Y-123387331D01*
X151558242Y-123382074D01*
X151746808Y-122757520D01*
X151748952Y-122753496D01*
X151751156Y-122750804D01*
X151756823Y-122747018D01*
X152381769Y-122558334D01*
X152386308Y-122557894D01*
X152388083Y-122558071D01*
G37*
%TD.AperFunction*%
%TD*%
%TA.AperFunction,Conductor*%
%TO.N,/Interface connectors/SDC_IN*%
G36*
X204815205Y-93404925D02*
G01*
X204823422Y-93408483D01*
X204826718Y-93416809D01*
X204826621Y-93418136D01*
X204750907Y-93999164D01*
X204750107Y-94002146D01*
X204524673Y-94544032D01*
X204518332Y-94550354D01*
X204509901Y-94550544D01*
X204352182Y-94493650D01*
X204352176Y-94493648D01*
X204206111Y-94456372D01*
X203962458Y-94422016D01*
X203798899Y-94400812D01*
X203797143Y-94400446D01*
X203647285Y-94356966D01*
X203645459Y-94356266D01*
X203571431Y-94320534D01*
X203570293Y-94319904D01*
X203491754Y-94270562D01*
X203490780Y-94269879D01*
X203401612Y-94200294D01*
X203400842Y-94199637D01*
X203311903Y-94116915D01*
X203308179Y-94108771D01*
X203311304Y-94100380D01*
X203311571Y-94100102D01*
X204002351Y-93409322D01*
X204010623Y-93405896D01*
X204018367Y-93408825D01*
X204070574Y-93454929D01*
X204070576Y-93454930D01*
X204070577Y-93454931D01*
X204070584Y-93454936D01*
X204126810Y-93490835D01*
X204126819Y-93490840D01*
X204136624Y-93494678D01*
X204179876Y-93511611D01*
X204179880Y-93511611D01*
X204179881Y-93511612D01*
X204186218Y-93512603D01*
X204230777Y-93519575D01*
X204330197Y-93506408D01*
X204433267Y-93469988D01*
X204433291Y-93469978D01*
X204433320Y-93469969D01*
X204459674Y-93460368D01*
X204531949Y-93434040D01*
X204533450Y-93433606D01*
X204674469Y-93403005D01*
X204677129Y-93402741D01*
X204815205Y-93404925D01*
G37*
%TD.AperFunction*%
%TD*%
%TA.AperFunction,Conductor*%
%TO.N,/USB/_RXD*%
G36*
X186170801Y-85954330D02*
G01*
X186171030Y-85954553D01*
X186296739Y-86080262D01*
X186300166Y-86088535D01*
X186297793Y-86095599D01*
X186266361Y-86137098D01*
X186254796Y-86181519D01*
X186261171Y-86223915D01*
X186261173Y-86223922D01*
X186277311Y-86267224D01*
X186277488Y-86267734D01*
X186303970Y-86350244D01*
X186304529Y-86353996D01*
X186303387Y-86429908D01*
X186299836Y-86438129D01*
X186291512Y-86441431D01*
X186289448Y-86441216D01*
X186084125Y-86401162D01*
X186079823Y-86399378D01*
X186006978Y-86350244D01*
X185905073Y-86281508D01*
X185900131Y-86274040D01*
X185901885Y-86265312D01*
X185910838Y-86251905D01*
X185910943Y-86251751D01*
X186021071Y-86095627D01*
X186022120Y-86094347D01*
X186154261Y-85954781D01*
X186162437Y-85951130D01*
X186170801Y-85954330D01*
G37*
%TD.AperFunction*%
%TD*%
%TA.AperFunction,Conductor*%
%TO.N,/FDCAN CHG/RXD*%
G36*
X175062687Y-107367047D02*
G01*
X175068243Y-107368955D01*
X175231336Y-107476905D01*
X175240591Y-107483031D01*
X175242406Y-107484514D01*
X175244037Y-107486145D01*
X175245520Y-107487960D01*
X175359694Y-107660456D01*
X175361423Y-107664681D01*
X175361763Y-107666430D01*
X175359978Y-107675205D01*
X175359166Y-107676409D01*
X175355304Y-107680007D01*
X175274433Y-107726568D01*
X175273759Y-107726927D01*
X175273086Y-107727258D01*
X175272410Y-107727564D01*
X175201377Y-107757069D01*
X175125041Y-107790508D01*
X175125010Y-107790524D01*
X175124859Y-107790629D01*
X175073298Y-107824971D01*
X175073284Y-107824981D01*
X175072405Y-107825567D01*
X175072403Y-107825568D01*
X175072401Y-107825570D01*
X175071824Y-107826086D01*
X175071811Y-107826097D01*
X175019125Y-107873329D01*
X175015195Y-107875655D01*
X175013340Y-107876307D01*
X175004688Y-107875952D01*
X175003280Y-107875323D01*
X174999781Y-107872914D01*
X174877113Y-107750246D01*
X174874578Y-107746453D01*
X174873809Y-107744598D01*
X174873667Y-107736003D01*
X174874193Y-107734604D01*
X174876338Y-107731022D01*
X174917757Y-107683753D01*
X174948323Y-107634168D01*
X174977899Y-107543818D01*
X174995537Y-107480144D01*
X174995903Y-107479044D01*
X174996324Y-107477961D01*
X174996796Y-107476905D01*
X175048775Y-107374479D01*
X175051595Y-107370891D01*
X175052952Y-107369730D01*
X175061452Y-107366952D01*
X175062687Y-107367047D01*
G37*
%TD.AperFunction*%
%TD*%
%TA.AperFunction,Conductor*%
%TO.N,/Relay Driver PRE/EN*%
G36*
X152388083Y-110558071D02*
G01*
X152395974Y-110562302D01*
X152396890Y-110563421D01*
X152397998Y-110567097D01*
X152398308Y-110567024D01*
X152455804Y-110810485D01*
X152455941Y-110811154D01*
X152456050Y-110811776D01*
X152456143Y-110812404D01*
X152480078Y-111012148D01*
X152480085Y-111012208D01*
X152496027Y-111151287D01*
X152533900Y-111297415D01*
X152566764Y-111369103D01*
X152613008Y-111444620D01*
X152640825Y-111480567D01*
X152681637Y-111533308D01*
X152681645Y-111533317D01*
X152763032Y-111620857D01*
X152763740Y-111621618D01*
X152766136Y-111625504D01*
X152766800Y-111627288D01*
X152766561Y-111636043D01*
X152765913Y-111637530D01*
X152763460Y-111641129D01*
X152640928Y-111763661D01*
X152637130Y-111766198D01*
X152635258Y-111766973D01*
X152626696Y-111767126D01*
X152625328Y-111766616D01*
X152621758Y-111764499D01*
X152456143Y-111621137D01*
X152455981Y-111620986D01*
X152455817Y-111620855D01*
X152378534Y-111571889D01*
X152305449Y-111537057D01*
X152241407Y-111519462D01*
X152163291Y-111498000D01*
X152134115Y-111494540D01*
X152016280Y-111480567D01*
X152016278Y-111480566D01*
X152012148Y-111480075D01*
X152012142Y-111480074D01*
X152011630Y-111480014D01*
X152011628Y-111480013D01*
X152011601Y-111480011D01*
X151805383Y-111454990D01*
X151804750Y-111454895D01*
X151804107Y-111454781D01*
X151803468Y-111454650D01*
X151568442Y-111399320D01*
X151564290Y-111397429D01*
X151562843Y-111396388D01*
X151558129Y-111388774D01*
X151557894Y-111387331D01*
X151558242Y-111382074D01*
X151746808Y-110757520D01*
X151748952Y-110753496D01*
X151751156Y-110750804D01*
X151756823Y-110747018D01*
X152381769Y-110558334D01*
X152386308Y-110557894D01*
X152388083Y-110558071D01*
G37*
%TD.AperFunction*%
%TD*%
%TA.AperFunction,Conductor*%
%TO.N,/USB/RX_LED*%
G36*
X198057941Y-85691304D02*
G01*
X198058251Y-85691367D01*
X198065674Y-85696374D01*
X198067383Y-85705165D01*
X198067159Y-85706077D01*
X198039634Y-85801416D01*
X198038945Y-85803224D01*
X198004363Y-85875438D01*
X197967132Y-85959080D01*
X197954642Y-86017376D01*
X197954641Y-86017389D01*
X197950653Y-86084669D01*
X197946743Y-86092725D01*
X197938974Y-86095677D01*
X197761048Y-86095677D01*
X197752775Y-86092250D01*
X197749367Y-86084647D01*
X197749209Y-86081896D01*
X197745622Y-86019394D01*
X197733795Y-85962149D01*
X197732444Y-85959080D01*
X197722884Y-85937357D01*
X197695646Y-85875461D01*
X197671785Y-85828142D01*
X197671074Y-85826391D01*
X197633227Y-85706285D01*
X197634009Y-85697365D01*
X197640870Y-85691610D01*
X197642036Y-85691308D01*
X197847670Y-85649474D01*
X197852330Y-85649474D01*
X198057941Y-85691304D01*
G37*
%TD.AperFunction*%
%TD*%
%TA.AperFunction,Conductor*%
%TO.N,/Relay Driver PRE/EN*%
G36*
X171822699Y-97631547D02*
G01*
X171823753Y-97632168D01*
X171998722Y-97747979D01*
X172002020Y-97751277D01*
X172118004Y-97926507D01*
X172119713Y-97935296D01*
X172114706Y-97942720D01*
X172113902Y-97943207D01*
X172027029Y-97991155D01*
X172025264Y-97991947D01*
X171949727Y-98018565D01*
X171864276Y-98051374D01*
X171814217Y-98083768D01*
X171814206Y-98083777D01*
X171763814Y-98128528D01*
X171755352Y-98131459D01*
X171747772Y-98128053D01*
X171621960Y-98002241D01*
X171618533Y-97993968D01*
X171621498Y-97986185D01*
X171664993Y-97937394D01*
X171697108Y-97888554D01*
X171731430Y-97800281D01*
X171748018Y-97749948D01*
X171748752Y-97748211D01*
X171806918Y-97636520D01*
X171813779Y-97630765D01*
X171822699Y-97631547D01*
G37*
%TD.AperFunction*%
%TD*%
%TA.AperFunction,Conductor*%
%TO.N,/Relay Driver P/EN*%
G36*
X169207941Y-97791304D02*
G01*
X169208251Y-97791367D01*
X169215674Y-97796374D01*
X169217383Y-97805165D01*
X169217159Y-97806077D01*
X169189634Y-97901416D01*
X169188945Y-97903224D01*
X169154363Y-97975438D01*
X169117132Y-98059080D01*
X169104642Y-98117376D01*
X169104641Y-98117389D01*
X169100653Y-98184669D01*
X169096743Y-98192725D01*
X169088974Y-98195677D01*
X168911048Y-98195677D01*
X168902775Y-98192250D01*
X168899367Y-98184647D01*
X168899209Y-98181896D01*
X168895622Y-98119394D01*
X168883795Y-98062149D01*
X168882444Y-98059080D01*
X168872884Y-98037357D01*
X168845646Y-97975461D01*
X168821785Y-97928142D01*
X168821074Y-97926391D01*
X168783227Y-97806285D01*
X168784009Y-97797365D01*
X168790870Y-97791610D01*
X168792036Y-97791308D01*
X168997670Y-97749474D01*
X169002330Y-97749474D01*
X169207941Y-97791304D01*
G37*
%TD.AperFunction*%
%TD*%
%TA.AperFunction,Conductor*%
%TO.N,/FDCAN CAR/RXD*%
G36*
X175197806Y-118408582D02*
G01*
X175205746Y-118412716D01*
X175205751Y-118412722D01*
X175206569Y-118413698D01*
X175207904Y-118417940D01*
X175208242Y-118417871D01*
X175208928Y-118421194D01*
X175209257Y-118422239D01*
X175209176Y-118422394D01*
X175250283Y-118621475D01*
X175250525Y-118623841D01*
X175250525Y-118626152D01*
X175250290Y-118628485D01*
X175209096Y-118830966D01*
X175207328Y-118835179D01*
X175206331Y-118836656D01*
X175198869Y-118841594D01*
X175197523Y-118841856D01*
X175192043Y-118841613D01*
X175099047Y-118814765D01*
X175098135Y-118814460D01*
X175097210Y-118814108D01*
X175096334Y-118813731D01*
X175024582Y-118779369D01*
X174959448Y-118750377D01*
X174941444Y-118742362D01*
X174941045Y-118742160D01*
X174940896Y-118742123D01*
X174882627Y-118729639D01*
X174882597Y-118729636D01*
X174817652Y-118725786D01*
X174813240Y-118724634D01*
X174811453Y-118723767D01*
X174805624Y-118717395D01*
X174805083Y-118715971D01*
X174804323Y-118711822D01*
X174804323Y-118538371D01*
X174805212Y-118533897D01*
X174805970Y-118532067D01*
X174811991Y-118525869D01*
X174813390Y-118525242D01*
X174817495Y-118524240D01*
X174880606Y-118520619D01*
X174937850Y-118508792D01*
X175024538Y-118470643D01*
X175071445Y-118446989D01*
X175072285Y-118446607D01*
X175073186Y-118446241D01*
X175074031Y-118445937D01*
X175191497Y-118408922D01*
X175196025Y-118408426D01*
X175197806Y-118408582D01*
G37*
%TD.AperFunction*%
%TD*%
%TA.AperFunction,Conductor*%
%TO.N,/USB/TX_LED*%
G36*
X196557941Y-85691304D02*
G01*
X196558251Y-85691367D01*
X196565674Y-85696374D01*
X196567383Y-85705165D01*
X196567159Y-85706077D01*
X196539634Y-85801416D01*
X196538945Y-85803224D01*
X196504363Y-85875438D01*
X196467132Y-85959080D01*
X196454642Y-86017376D01*
X196454641Y-86017389D01*
X196450653Y-86084669D01*
X196446743Y-86092725D01*
X196438974Y-86095677D01*
X196261048Y-86095677D01*
X196252775Y-86092250D01*
X196249367Y-86084647D01*
X196249209Y-86081896D01*
X196245622Y-86019394D01*
X196233795Y-85962149D01*
X196232444Y-85959080D01*
X196222884Y-85937357D01*
X196195646Y-85875461D01*
X196171785Y-85828142D01*
X196171074Y-85826391D01*
X196133227Y-85706285D01*
X196134009Y-85697365D01*
X196140870Y-85691610D01*
X196142036Y-85691308D01*
X196347670Y-85649474D01*
X196352330Y-85649474D01*
X196557941Y-85691304D01*
G37*
%TD.AperFunction*%
%TD*%
%TA.AperFunction,Conductor*%
%TO.N,Net-(PS2-COM)*%
G36*
X169959191Y-125768907D02*
G01*
X169995155Y-125818407D01*
X170000000Y-125849000D01*
X170000000Y-139401000D01*
X169981093Y-139459191D01*
X169931593Y-139495155D01*
X169901000Y-139500000D01*
X158349000Y-139500000D01*
X158290809Y-139481093D01*
X158254845Y-139431593D01*
X158250000Y-139401000D01*
X158250000Y-138280943D01*
X165753793Y-138280943D01*
X165753793Y-138439057D01*
X165794716Y-138591784D01*
X165873773Y-138728716D01*
X165985577Y-138840520D01*
X166122509Y-138919577D01*
X166275236Y-138960500D01*
X166275238Y-138960500D01*
X166433348Y-138960500D01*
X166433350Y-138960500D01*
X166586077Y-138919577D01*
X166723009Y-138840520D01*
X166834813Y-138728716D01*
X166913870Y-138591784D01*
X166954793Y-138439057D01*
X166954793Y-138280943D01*
X168293793Y-138280943D01*
X168293793Y-138439057D01*
X168334716Y-138591784D01*
X168413773Y-138728716D01*
X168525577Y-138840520D01*
X168662509Y-138919577D01*
X168815236Y-138960500D01*
X168815238Y-138960500D01*
X168973348Y-138960500D01*
X168973350Y-138960500D01*
X169126077Y-138919577D01*
X169263009Y-138840520D01*
X169374813Y-138728716D01*
X169453870Y-138591784D01*
X169494793Y-138439057D01*
X169494793Y-138280943D01*
X169453870Y-138128216D01*
X169374813Y-137991284D01*
X169263009Y-137879480D01*
X169126077Y-137800423D01*
X168973350Y-137759500D01*
X168815236Y-137759500D01*
X168662509Y-137800423D01*
X168525577Y-137879480D01*
X168413773Y-137991284D01*
X168334716Y-138128216D01*
X168293793Y-138280943D01*
X166954793Y-138280943D01*
X166913870Y-138128216D01*
X166834813Y-137991284D01*
X166723009Y-137879480D01*
X166586077Y-137800423D01*
X166433350Y-137759500D01*
X166275236Y-137759500D01*
X166122509Y-137800423D01*
X165985577Y-137879480D01*
X165873773Y-137991284D01*
X165794716Y-138128216D01*
X165753793Y-138280943D01*
X158250000Y-138280943D01*
X158250000Y-134703856D01*
X165899500Y-134703856D01*
X165899500Y-134796144D01*
X165923386Y-134885288D01*
X165969531Y-134965212D01*
X166034788Y-135030469D01*
X166034790Y-135030470D01*
X166034792Y-135030472D01*
X166050021Y-135039265D01*
X166090961Y-135084735D01*
X166097355Y-135145586D01*
X166066761Y-135198573D01*
X166050021Y-135210735D01*
X166034792Y-135219527D01*
X165969529Y-135284790D01*
X165923387Y-135364709D01*
X165923386Y-135364711D01*
X165923386Y-135364712D01*
X165899500Y-135453856D01*
X165899500Y-135546144D01*
X165923386Y-135635288D01*
X165969531Y-135715212D01*
X166034788Y-135780469D01*
X166034790Y-135780470D01*
X166034792Y-135780472D01*
X166050021Y-135789265D01*
X166090961Y-135834735D01*
X166097355Y-135895586D01*
X166066761Y-135948573D01*
X166050021Y-135960735D01*
X166034792Y-135969527D01*
X165969529Y-136034790D01*
X165923387Y-136114709D01*
X165923386Y-136114711D01*
X165923386Y-136114712D01*
X165899500Y-136203856D01*
X165899500Y-136296144D01*
X165923386Y-136385288D01*
X165969531Y-136465212D01*
X166034788Y-136530469D01*
X166114712Y-136576614D01*
X166203856Y-136600500D01*
X166203858Y-136600500D01*
X166296142Y-136600500D01*
X166296144Y-136600500D01*
X166385288Y-136576614D01*
X166465212Y-136530469D01*
X166530469Y-136465212D01*
X166576614Y-136385288D01*
X166600500Y-136296144D01*
X166600500Y-136203856D01*
X166576614Y-136114712D01*
X166530469Y-136034788D01*
X166465212Y-135969531D01*
X166465209Y-135969529D01*
X166465207Y-135969527D01*
X166449980Y-135960736D01*
X166409039Y-135915267D01*
X166402643Y-135854416D01*
X166433236Y-135801428D01*
X166449980Y-135789264D01*
X166465207Y-135780472D01*
X166465207Y-135780471D01*
X166465212Y-135780469D01*
X166530469Y-135715212D01*
X166576614Y-135635288D01*
X166600500Y-135546144D01*
X166600500Y-135453856D01*
X166576614Y-135364712D01*
X166530469Y-135284788D01*
X166465212Y-135219531D01*
X166465209Y-135219529D01*
X166465207Y-135219527D01*
X166449980Y-135210736D01*
X166409039Y-135165267D01*
X166402643Y-135104416D01*
X166433236Y-135051428D01*
X166449980Y-135039264D01*
X166465207Y-135030472D01*
X166465207Y-135030471D01*
X166465212Y-135030469D01*
X166530469Y-134965212D01*
X166576614Y-134885288D01*
X166600500Y-134796144D01*
X166600500Y-134703856D01*
X166576614Y-134614712D01*
X166530469Y-134534788D01*
X166465212Y-134469531D01*
X166385288Y-134423386D01*
X166296144Y-134399500D01*
X166203856Y-134399500D01*
X166114712Y-134423386D01*
X166114711Y-134423386D01*
X166114709Y-134423387D01*
X166034790Y-134469529D01*
X165969529Y-134534790D01*
X165923387Y-134614709D01*
X165923386Y-134614711D01*
X165923386Y-134614712D01*
X165899500Y-134703856D01*
X158250000Y-134703856D01*
X158250000Y-130453856D01*
X160449500Y-130453856D01*
X160449500Y-130546144D01*
X160464065Y-130600500D01*
X160473387Y-130635290D01*
X160516946Y-130710736D01*
X160519531Y-130715212D01*
X160584788Y-130780469D01*
X160664712Y-130826614D01*
X160753856Y-130850500D01*
X160753858Y-130850500D01*
X160846142Y-130850500D01*
X160846144Y-130850500D01*
X160935288Y-130826614D01*
X161015212Y-130780469D01*
X161080469Y-130715212D01*
X161126614Y-130635288D01*
X161150500Y-130546144D01*
X161150500Y-130453856D01*
X161126614Y-130364712D01*
X161080469Y-130284788D01*
X161015212Y-130219531D01*
X160988064Y-130203857D01*
X160988062Y-130203856D01*
X165899500Y-130203856D01*
X165899500Y-130296144D01*
X165923386Y-130385288D01*
X165969531Y-130465212D01*
X166034788Y-130530469D01*
X166034790Y-130530470D01*
X166034792Y-130530472D01*
X166050021Y-130539265D01*
X166090961Y-130584735D01*
X166097355Y-130645586D01*
X166066761Y-130698573D01*
X166050021Y-130710735D01*
X166034792Y-130719527D01*
X165969529Y-130784790D01*
X165923387Y-130864709D01*
X165923386Y-130864711D01*
X165923386Y-130864712D01*
X165899500Y-130953856D01*
X165899500Y-131046144D01*
X165923386Y-131135288D01*
X165969531Y-131215212D01*
X166034788Y-131280469D01*
X166034790Y-131280470D01*
X166034792Y-131280472D01*
X166050021Y-131289265D01*
X166090961Y-131334735D01*
X166097355Y-131395586D01*
X166066761Y-131448573D01*
X166050021Y-131460735D01*
X166034792Y-131469527D01*
X165969529Y-131534790D01*
X165923387Y-131614709D01*
X165923386Y-131614711D01*
X165923386Y-131614712D01*
X165899500Y-131703856D01*
X165899500Y-131796144D01*
X165923386Y-131885288D01*
X165969531Y-131965212D01*
X166034788Y-132030469D01*
X166114712Y-132076614D01*
X166203856Y-132100500D01*
X166203858Y-132100500D01*
X166296142Y-132100500D01*
X166296144Y-132100500D01*
X166385288Y-132076614D01*
X166465212Y-132030469D01*
X166530469Y-131965212D01*
X166576614Y-131885288D01*
X166600500Y-131796144D01*
X166600500Y-131703856D01*
X166576614Y-131614712D01*
X166530469Y-131534788D01*
X166465212Y-131469531D01*
X166465209Y-131469529D01*
X166465207Y-131469527D01*
X166449980Y-131460736D01*
X166409039Y-131415267D01*
X166402643Y-131354416D01*
X166433236Y-131301428D01*
X166449980Y-131289264D01*
X166465207Y-131280472D01*
X166465207Y-131280471D01*
X166465212Y-131280469D01*
X166530469Y-131215212D01*
X166576614Y-131135288D01*
X166600500Y-131046144D01*
X166600500Y-130953856D01*
X166576614Y-130864712D01*
X166530469Y-130784788D01*
X166465212Y-130719531D01*
X166465209Y-130719529D01*
X166465207Y-130719527D01*
X166449980Y-130710736D01*
X166409039Y-130665267D01*
X166402643Y-130604416D01*
X166433236Y-130551428D01*
X166449980Y-130539264D01*
X166465207Y-130530472D01*
X166465207Y-130530471D01*
X166465212Y-130530469D01*
X166530469Y-130465212D01*
X166576614Y-130385288D01*
X166600500Y-130296144D01*
X166600500Y-130203856D01*
X166576614Y-130114712D01*
X166530469Y-130034788D01*
X166465212Y-129969531D01*
X166385288Y-129923386D01*
X166296144Y-129899500D01*
X166203856Y-129899500D01*
X166114712Y-129923386D01*
X166114711Y-129923386D01*
X166114709Y-129923387D01*
X166034790Y-129969529D01*
X165969529Y-130034790D01*
X165923387Y-130114709D01*
X165923386Y-130114711D01*
X165923386Y-130114712D01*
X165899500Y-130203856D01*
X160988062Y-130203856D01*
X160935290Y-130173387D01*
X160935289Y-130173386D01*
X160935288Y-130173386D01*
X160846144Y-130149500D01*
X160753856Y-130149500D01*
X160664712Y-130173386D01*
X160664711Y-130173386D01*
X160664709Y-130173387D01*
X160584790Y-130219529D01*
X160519529Y-130284790D01*
X160473387Y-130364709D01*
X160473386Y-130364711D01*
X160473386Y-130364712D01*
X160449500Y-130453856D01*
X158250000Y-130453856D01*
X158250000Y-128121204D01*
X165554293Y-128121204D01*
X165554293Y-128278795D01*
X165585035Y-128433349D01*
X165645341Y-128578941D01*
X165720878Y-128691991D01*
X166046310Y-128366558D01*
X166074223Y-128414905D01*
X166139388Y-128480070D01*
X166187731Y-128507981D01*
X165862300Y-128833413D01*
X165975351Y-128908951D01*
X166120943Y-128969257D01*
X166275497Y-128999999D01*
X166275501Y-129000000D01*
X166433085Y-129000000D01*
X166433088Y-128999999D01*
X166587642Y-128969257D01*
X166733233Y-128908951D01*
X166846284Y-128833413D01*
X166520852Y-128507981D01*
X166569198Y-128480070D01*
X166634363Y-128414905D01*
X166662274Y-128366559D01*
X166987706Y-128691991D01*
X167063244Y-128578940D01*
X167123550Y-128433349D01*
X167154292Y-128278795D01*
X167154293Y-128278792D01*
X167154293Y-128121207D01*
X167154292Y-128121204D01*
X167154240Y-128120943D01*
X168293793Y-128120943D01*
X168293793Y-128279057D01*
X168334716Y-128431784D01*
X168413773Y-128568716D01*
X168525577Y-128680520D01*
X168662509Y-128759577D01*
X168815236Y-128800500D01*
X168815238Y-128800500D01*
X168973348Y-128800500D01*
X168973350Y-128800500D01*
X169126077Y-128759577D01*
X169263009Y-128680520D01*
X169374813Y-128568716D01*
X169453870Y-128431784D01*
X169494793Y-128279057D01*
X169494793Y-128120943D01*
X169453870Y-127968216D01*
X169374813Y-127831284D01*
X169263009Y-127719480D01*
X169126077Y-127640423D01*
X168973350Y-127599500D01*
X168815236Y-127599500D01*
X168662509Y-127640423D01*
X168525577Y-127719480D01*
X168413773Y-127831284D01*
X168334716Y-127968216D01*
X168293793Y-128120943D01*
X167154240Y-128120943D01*
X167123550Y-127966650D01*
X167063244Y-127821058D01*
X166987706Y-127708007D01*
X166662274Y-128033438D01*
X166634363Y-127985095D01*
X166569198Y-127919930D01*
X166520851Y-127892017D01*
X166846284Y-127566585D01*
X166733234Y-127491048D01*
X166587642Y-127430742D01*
X166433088Y-127400000D01*
X166275497Y-127400000D01*
X166120943Y-127430742D01*
X165975351Y-127491048D01*
X165862300Y-127566585D01*
X166187733Y-127892018D01*
X166139388Y-127919930D01*
X166074223Y-127985095D01*
X166046311Y-128033440D01*
X165720878Y-127708007D01*
X165645341Y-127821058D01*
X165585035Y-127966650D01*
X165554293Y-128121204D01*
X158250000Y-128121204D01*
X158250000Y-126453856D01*
X160449500Y-126453856D01*
X160449500Y-126546144D01*
X160473386Y-126635288D01*
X160519531Y-126715212D01*
X160584788Y-126780469D01*
X160664712Y-126826614D01*
X160753856Y-126850500D01*
X160753858Y-126850500D01*
X160846142Y-126850500D01*
X160846144Y-126850500D01*
X160935288Y-126826614D01*
X161015212Y-126780469D01*
X161080469Y-126715212D01*
X161126614Y-126635288D01*
X161150500Y-126546144D01*
X161150500Y-126453856D01*
X161126614Y-126364712D01*
X161080469Y-126284788D01*
X161015212Y-126219531D01*
X160935288Y-126173386D01*
X160846144Y-126149500D01*
X160753856Y-126149500D01*
X160664712Y-126173386D01*
X160664711Y-126173386D01*
X160664709Y-126173387D01*
X160584790Y-126219529D01*
X160519529Y-126284790D01*
X160473387Y-126364709D01*
X160473386Y-126364711D01*
X160473386Y-126364712D01*
X160449500Y-126453856D01*
X158250000Y-126453856D01*
X158250000Y-125849000D01*
X158268907Y-125790809D01*
X158318407Y-125754845D01*
X158349000Y-125750000D01*
X169901000Y-125750000D01*
X169959191Y-125768907D01*
G37*
%TD.AperFunction*%
%TD*%
%TA.AperFunction,Conductor*%
%TO.N,/USB/_~{RST}*%
G36*
X185673885Y-85995519D02*
G01*
X185675329Y-85996158D01*
X185678864Y-85998583D01*
X185801544Y-86121263D01*
X185804079Y-86125056D01*
X185804862Y-86126945D01*
X185805025Y-86135485D01*
X185804526Y-86136833D01*
X185802438Y-86140384D01*
X185761533Y-86188117D01*
X185761529Y-86188123D01*
X185761524Y-86188130D01*
X185733010Y-86238595D01*
X185733007Y-86238601D01*
X185732852Y-86238877D01*
X185732851Y-86238880D01*
X185732850Y-86238882D01*
X185732850Y-86238883D01*
X185732703Y-86239465D01*
X185732701Y-86239473D01*
X185709423Y-86332149D01*
X185709384Y-86332292D01*
X185709355Y-86332435D01*
X185709334Y-86332532D01*
X185692264Y-86412213D01*
X185692023Y-86413151D01*
X185691744Y-86414073D01*
X185691423Y-86414992D01*
X185671934Y-86464199D01*
X185671589Y-86464985D01*
X185671221Y-86465746D01*
X185670823Y-86466498D01*
X185644458Y-86512209D01*
X185641450Y-86515642D01*
X185640040Y-86516725D01*
X185631396Y-86519047D01*
X185629951Y-86518858D01*
X185625010Y-86517013D01*
X185620796Y-86514224D01*
X185548691Y-86466498D01*
X185452258Y-86402669D01*
X185450443Y-86401186D01*
X185448812Y-86399555D01*
X185447329Y-86397740D01*
X185404047Y-86332349D01*
X185333216Y-86225337D01*
X185331488Y-86221116D01*
X185331147Y-86219364D01*
X185332931Y-86210592D01*
X185332932Y-86210590D01*
X185333721Y-86209420D01*
X185337672Y-86205772D01*
X185476358Y-86127580D01*
X185476496Y-86127504D01*
X185476816Y-86127333D01*
X185539168Y-86095157D01*
X185539167Y-86095157D01*
X185539174Y-86095154D01*
X185539179Y-86095150D01*
X185539335Y-86095070D01*
X185543616Y-86092861D01*
X185545761Y-86090584D01*
X185596894Y-86055117D01*
X185659455Y-85998218D01*
X185663357Y-85995870D01*
X185665192Y-85995210D01*
X185673885Y-85995519D01*
G37*
%TD.AperFunction*%
%TD*%
%TA.AperFunction,Conductor*%
%TO.N,/FDCAN CHG/TXD*%
G36*
X152392905Y-120558553D02*
G01*
X152398577Y-120565482D01*
X152398770Y-120566204D01*
X152455883Y-120810821D01*
X152456106Y-120812089D01*
X152480078Y-121012148D01*
X152480085Y-121012208D01*
X152496027Y-121151287D01*
X152533900Y-121297413D01*
X152566762Y-121369099D01*
X152613003Y-121444612D01*
X152681637Y-121533308D01*
X152681645Y-121533317D01*
X152765324Y-121623322D01*
X152768447Y-121631715D01*
X152765028Y-121639562D01*
X152639283Y-121765307D01*
X152631010Y-121768734D01*
X152623353Y-121765880D01*
X152455823Y-121620860D01*
X152455820Y-121620857D01*
X152378536Y-121571890D01*
X152305451Y-121537058D01*
X152241407Y-121519462D01*
X152163291Y-121498000D01*
X152012148Y-121480078D01*
X152012148Y-121480075D01*
X152012116Y-121480074D01*
X151805058Y-121454951D01*
X151803786Y-121454725D01*
X151566176Y-121398787D01*
X151558908Y-121393555D01*
X151557468Y-121384717D01*
X151557651Y-121384033D01*
X151747480Y-120755296D01*
X151753151Y-120748369D01*
X151755289Y-120747482D01*
X152383994Y-120557663D01*
X152392905Y-120558553D01*
G37*
%TD.AperFunction*%
%TD*%
%TA.AperFunction,Conductor*%
%TO.N,/Stack Connectors/UART_RST*%
G36*
X154078139Y-118160911D02*
G01*
X154078785Y-118161285D01*
X154292133Y-118293867D01*
X154293188Y-118294605D01*
X154451610Y-118419123D01*
X154451597Y-118419139D01*
X154451656Y-118419159D01*
X154561274Y-118506232D01*
X154621368Y-118541587D01*
X154691380Y-118582778D01*
X154691382Y-118582779D01*
X154733802Y-118598531D01*
X154765307Y-118610231D01*
X154851391Y-118630928D01*
X154962657Y-118645116D01*
X154962675Y-118645116D01*
X154962680Y-118645117D01*
X154999913Y-118646472D01*
X155085476Y-118649589D01*
X155093619Y-118653314D01*
X155096750Y-118661281D01*
X155096750Y-118839112D01*
X155093323Y-118847385D01*
X155085890Y-118850782D01*
X154864882Y-118866698D01*
X154864876Y-118866699D01*
X154775615Y-118886719D01*
X154699299Y-118913770D01*
X154699295Y-118913772D01*
X154571156Y-118986675D01*
X154451609Y-119080877D01*
X154451584Y-119080896D01*
X154287411Y-119209539D01*
X154286352Y-119210279D01*
X154078778Y-119338745D01*
X154069940Y-119340185D01*
X154062672Y-119334953D01*
X154062310Y-119334325D01*
X154022042Y-119259225D01*
X153751963Y-118755527D01*
X153751074Y-118746618D01*
X153751961Y-118744475D01*
X154062301Y-118165691D01*
X154069228Y-118160021D01*
X154078139Y-118160911D01*
G37*
%TD.AperFunction*%
%TD*%
%TA.AperFunction,Conductor*%
%TO.N,/Stack Connectors/UART_TX*%
G36*
X152422195Y-114441957D02*
G01*
X152422625Y-114442347D01*
X152426429Y-114450095D01*
X152444233Y-114676381D01*
X152444233Y-114676382D01*
X152444234Y-114676391D01*
X152470701Y-114813655D01*
X152470743Y-114813914D01*
X152507291Y-114948724D01*
X152507296Y-114948740D01*
X152507305Y-114948767D01*
X152606035Y-115201330D01*
X152724589Y-115407633D01*
X152724766Y-115407942D01*
X152724906Y-115408117D01*
X152724946Y-115408169D01*
X152725095Y-115408333D01*
X152805902Y-115506064D01*
X152847837Y-115556782D01*
X152922356Y-115615879D01*
X152959128Y-115645041D01*
X152962080Y-115648517D01*
X152963905Y-115651797D01*
X152965381Y-115657484D01*
X152965381Y-115828203D01*
X152964490Y-115832682D01*
X152963808Y-115834328D01*
X152957475Y-115840659D01*
X152957473Y-115840660D01*
X152957241Y-115840756D01*
X152949944Y-115841299D01*
X152949590Y-115841211D01*
X152946922Y-115840188D01*
X152795023Y-115759449D01*
X152794970Y-115759426D01*
X152794970Y-115759425D01*
X152685314Y-115711029D01*
X152628307Y-115685869D01*
X152628285Y-115685860D01*
X152443753Y-115615879D01*
X152443740Y-115615874D01*
X152443668Y-115615853D01*
X152077182Y-115506072D01*
X152077166Y-115506067D01*
X152077157Y-115506065D01*
X152077150Y-115506063D01*
X152077141Y-115506061D01*
X151948014Y-115480838D01*
X151757872Y-115443697D01*
X151602417Y-115432104D01*
X151524803Y-115426315D01*
X151520409Y-115425096D01*
X151519717Y-115424747D01*
X151518818Y-115424294D01*
X151512973Y-115417514D01*
X151512729Y-115416771D01*
X151512826Y-115409169D01*
X151746576Y-114756760D01*
X151748919Y-114752852D01*
X151751809Y-114749666D01*
X151755485Y-114746947D01*
X152407581Y-114440117D01*
X152412008Y-114439019D01*
X152413789Y-114438936D01*
X152422195Y-114441957D01*
G37*
%TD.AperFunction*%
%TD*%
%TA.AperFunction,Conductor*%
%TO.N,/USB/_~{RST}*%
G36*
X194155134Y-88334009D02*
G01*
X194160889Y-88340870D01*
X194161195Y-88342054D01*
X194203025Y-88547668D01*
X194203025Y-88552333D01*
X194161132Y-88758251D01*
X194156125Y-88765674D01*
X194147334Y-88767383D01*
X194146422Y-88767159D01*
X194051082Y-88739634D01*
X194049274Y-88738945D01*
X193977060Y-88704363D01*
X193911948Y-88675380D01*
X193893424Y-88667134D01*
X193893423Y-88667133D01*
X193893419Y-88667132D01*
X193835123Y-88654642D01*
X193835111Y-88654641D01*
X193767830Y-88650652D01*
X193759775Y-88646742D01*
X193756823Y-88638973D01*
X193756823Y-88461047D01*
X193760250Y-88452774D01*
X193767850Y-88449367D01*
X193833106Y-88445622D01*
X193890350Y-88433795D01*
X193977038Y-88395646D01*
X194024361Y-88371783D01*
X194026102Y-88371076D01*
X194146215Y-88333227D01*
X194155134Y-88334009D01*
G37*
%TD.AperFunction*%
%TD*%
%TA.AperFunction,Conductor*%
%TO.N,/USB/_~{RST}*%
G36*
X194457941Y-82041304D02*
G01*
X194458251Y-82041367D01*
X194465674Y-82046374D01*
X194467383Y-82055165D01*
X194467159Y-82056077D01*
X194439634Y-82151416D01*
X194438945Y-82153224D01*
X194404363Y-82225438D01*
X194367132Y-82309080D01*
X194354642Y-82367376D01*
X194354641Y-82367389D01*
X194350653Y-82434669D01*
X194346743Y-82442725D01*
X194338974Y-82445677D01*
X194161048Y-82445677D01*
X194152775Y-82442250D01*
X194149367Y-82434647D01*
X194149209Y-82431896D01*
X194145622Y-82369394D01*
X194133795Y-82312149D01*
X194132444Y-82309080D01*
X194122884Y-82287357D01*
X194095646Y-82225461D01*
X194071785Y-82178142D01*
X194071074Y-82176391D01*
X194033227Y-82056285D01*
X194034009Y-82047365D01*
X194040870Y-82041610D01*
X194042036Y-82041308D01*
X194247670Y-81999474D01*
X194252330Y-81999474D01*
X194457941Y-82041304D01*
G37*
%TD.AperFunction*%
%TD*%
%TA.AperFunction,Conductor*%
%TO.N,/Stack Connectors/UART_RX*%
G36*
X152388083Y-116558071D02*
G01*
X152395974Y-116562302D01*
X152396890Y-116563421D01*
X152397998Y-116567097D01*
X152398308Y-116567024D01*
X152455804Y-116810485D01*
X152455941Y-116811154D01*
X152456050Y-116811776D01*
X152456143Y-116812404D01*
X152480078Y-117012148D01*
X152480085Y-117012208D01*
X152496027Y-117151287D01*
X152533900Y-117297415D01*
X152566764Y-117369103D01*
X152613008Y-117444620D01*
X152640825Y-117480567D01*
X152681637Y-117533308D01*
X152681645Y-117533317D01*
X152763032Y-117620857D01*
X152763740Y-117621618D01*
X152766136Y-117625504D01*
X152766800Y-117627288D01*
X152766561Y-117636043D01*
X152765913Y-117637530D01*
X152763460Y-117641129D01*
X152640928Y-117763661D01*
X152637130Y-117766198D01*
X152635258Y-117766973D01*
X152626696Y-117767126D01*
X152625328Y-117766616D01*
X152621758Y-117764499D01*
X152456143Y-117621137D01*
X152455981Y-117620986D01*
X152455817Y-117620855D01*
X152378534Y-117571889D01*
X152305449Y-117537057D01*
X152241407Y-117519462D01*
X152163291Y-117498000D01*
X152134115Y-117494540D01*
X152016280Y-117480567D01*
X152016278Y-117480566D01*
X152012148Y-117480075D01*
X152012142Y-117480074D01*
X152011630Y-117480014D01*
X152011628Y-117480013D01*
X152011601Y-117480011D01*
X151805383Y-117454990D01*
X151804750Y-117454895D01*
X151804107Y-117454781D01*
X151803468Y-117454650D01*
X151568442Y-117399320D01*
X151564290Y-117397429D01*
X151562843Y-117396388D01*
X151558129Y-117388774D01*
X151557894Y-117387331D01*
X151558242Y-117382074D01*
X151746808Y-116757520D01*
X151748952Y-116753496D01*
X151751156Y-116750804D01*
X151756823Y-116747018D01*
X152381769Y-116558334D01*
X152386308Y-116557894D01*
X152388083Y-116558071D01*
G37*
%TD.AperFunction*%
%TD*%
%TA.AperFunction,Conductor*%
%TO.N,/Interface connectors/AIR_P-*%
G36*
X154245810Y-91308134D02*
G01*
X154247390Y-91308803D01*
X154251101Y-91311304D01*
X154938739Y-91998942D01*
X154941275Y-92002737D01*
X154941990Y-92004463D01*
X154942047Y-92013280D01*
X154941428Y-92014830D01*
X154939042Y-92018552D01*
X154625089Y-92348828D01*
X154403232Y-92631336D01*
X154234515Y-92854031D01*
X154231100Y-92857063D01*
X154229561Y-92857964D01*
X154220695Y-92859188D01*
X154219482Y-92858871D01*
X154218997Y-92858744D01*
X154214847Y-92856718D01*
X153751148Y-92502125D01*
X153749982Y-92501104D01*
X153748894Y-92500016D01*
X153747873Y-92498850D01*
X153393295Y-92035170D01*
X153391283Y-92031074D01*
X153390825Y-92029352D01*
X153392008Y-92020477D01*
X153392009Y-92020475D01*
X153392889Y-92018957D01*
X153395946Y-92015499D01*
X153415628Y-92000588D01*
X153618681Y-91846754D01*
X153795605Y-91711877D01*
X153982341Y-91552562D01*
X153982480Y-91552450D01*
X154047672Y-91489262D01*
X154231407Y-91311177D01*
X154235231Y-91308707D01*
X154236943Y-91308030D01*
X154245810Y-91308134D01*
G37*
%TD.AperFunction*%
%TD*%
%TA.AperFunction,Conductor*%
%TO.N,/SDC Driver/RELAY-*%
G36*
X151551357Y-130108727D02*
G01*
X151557456Y-130115283D01*
X151557683Y-130115955D01*
X151749959Y-130746588D01*
X151749959Y-130753412D01*
X151557592Y-131384342D01*
X151551902Y-131391256D01*
X151542989Y-131392121D01*
X151542597Y-131391994D01*
X151395531Y-131341426D01*
X151394689Y-131341100D01*
X151266955Y-131285840D01*
X151266005Y-131285377D01*
X151068725Y-131177938D01*
X151068445Y-131177780D01*
X151009000Y-131143251D01*
X150959750Y-131119369D01*
X150849957Y-131066129D01*
X150849951Y-131066127D01*
X150849949Y-131066126D01*
X150766240Y-131039208D01*
X150766236Y-131039207D01*
X150669128Y-131018610D01*
X150548464Y-131004827D01*
X150548455Y-131004826D01*
X150548452Y-131004826D01*
X150539585Y-131004531D01*
X150414561Y-131000375D01*
X150406407Y-130996675D01*
X150403250Y-130988681D01*
X150403250Y-130511031D01*
X150406677Y-130502758D01*
X150414260Y-130499351D01*
X150636023Y-130486293D01*
X150807751Y-130448626D01*
X150943565Y-130392178D01*
X151068597Y-130322131D01*
X151299850Y-130198852D01*
X151301253Y-130198220D01*
X151542410Y-130108403D01*
X151551357Y-130108727D01*
G37*
%TD.AperFunction*%
%TD*%
%TA.AperFunction,Conductor*%
%TO.N,/Power/F_24V*%
G36*
X207915908Y-129504843D02*
G01*
X207928595Y-129508966D01*
X207978095Y-129544927D01*
X207978096Y-129544928D01*
X207981091Y-129549050D01*
X208000000Y-129607240D01*
X207997027Y-129616388D01*
X208000000Y-131385153D01*
X207995154Y-131415912D01*
X207991032Y-131428598D01*
X207955080Y-131478089D01*
X207950959Y-131481084D01*
X207892771Y-131500000D01*
X205000000Y-131500000D01*
X202250000Y-134250000D01*
X200290082Y-136209917D01*
X200265025Y-136228121D01*
X200243267Y-136239208D01*
X200198320Y-136250000D01*
X190614680Y-136250000D01*
X190584087Y-136245154D01*
X190571401Y-136241032D01*
X190521901Y-136205068D01*
X190521894Y-136205058D01*
X190518900Y-136200936D01*
X190500000Y-136142756D01*
X190500000Y-134364680D01*
X190504843Y-134334094D01*
X190508965Y-134321405D01*
X190544923Y-134271906D01*
X190545522Y-134271471D01*
X190549063Y-134268900D01*
X190607243Y-134250000D01*
X198999999Y-134250000D01*
X199000000Y-134250000D01*
X203709920Y-129540079D01*
X203734972Y-129521878D01*
X203756739Y-129510788D01*
X203801680Y-129500000D01*
X207885320Y-129500000D01*
X207915908Y-129504843D01*
G37*
%TD.AperFunction*%
%TD*%
%TA.AperFunction,Conductor*%
%TO.N,/Stack Connectors/UART_RST*%
G36*
X185696931Y-93168498D02*
G01*
X185698320Y-93169121D01*
X185701805Y-93171523D01*
X185823631Y-93293349D01*
X185826167Y-93297143D01*
X185826849Y-93298789D01*
X185826850Y-93307744D01*
X185826848Y-93307749D01*
X185826166Y-93309394D01*
X185823631Y-93313186D01*
X185802029Y-93334788D01*
X185802027Y-93334791D01*
X185795176Y-93346656D01*
X185794535Y-93347646D01*
X185793838Y-93348613D01*
X185793093Y-93349543D01*
X185783228Y-93360645D01*
X185783225Y-93360649D01*
X185751407Y-93409606D01*
X185717945Y-93498280D01*
X185701157Y-93550801D01*
X185700816Y-93551731D01*
X185700438Y-93552640D01*
X185700023Y-93553531D01*
X185644140Y-93661377D01*
X185641289Y-93664943D01*
X185639926Y-93666091D01*
X185631391Y-93668799D01*
X185631387Y-93668799D01*
X185630131Y-93668691D01*
X185624676Y-93666791D01*
X185619618Y-93663444D01*
X185619618Y-93663443D01*
X185619616Y-93663443D01*
X185452258Y-93552669D01*
X185450443Y-93551186D01*
X185448812Y-93549555D01*
X185447329Y-93547740D01*
X185333258Y-93375399D01*
X185331529Y-93371174D01*
X185331189Y-93369425D01*
X185332970Y-93360655D01*
X185332977Y-93360645D01*
X185333747Y-93359503D01*
X185337757Y-93355821D01*
X185421864Y-93309039D01*
X185422677Y-93308628D01*
X185423531Y-93308238D01*
X185424371Y-93307894D01*
X185498769Y-93280847D01*
X185582622Y-93247852D01*
X185633098Y-93215022D01*
X185682501Y-93171076D01*
X185686435Y-93168769D01*
X185688309Y-93168119D01*
X185696931Y-93168498D01*
G37*
%TD.AperFunction*%
%TD*%
%TA.AperFunction,Conductor*%
%TO.N,/Stack Connectors/UART_RX*%
G36*
X186393797Y-93151419D02*
G01*
X186395476Y-93152014D01*
X186402127Y-93158003D01*
X186402773Y-93159358D01*
X186402964Y-93163000D01*
X186403268Y-93162999D01*
X186403913Y-93337903D01*
X186403022Y-93342425D01*
X186402103Y-93344643D01*
X186396747Y-93350515D01*
X186395923Y-93350949D01*
X186392611Y-93352100D01*
X186350741Y-93359885D01*
X186323329Y-93387432D01*
X186323329Y-93387433D01*
X186323328Y-93387434D01*
X186323328Y-93387435D01*
X186319183Y-93404424D01*
X186313062Y-93429512D01*
X186311367Y-93482587D01*
X186311358Y-93482804D01*
X186311342Y-93483097D01*
X186311329Y-93483306D01*
X186304320Y-93578388D01*
X186303102Y-93582789D01*
X186302301Y-93584380D01*
X186295520Y-93590229D01*
X186295519Y-93590229D01*
X186294374Y-93590607D01*
X186288433Y-93590974D01*
X186088567Y-93551399D01*
X186084346Y-93549654D01*
X186080791Y-93547282D01*
X186077533Y-93544014D01*
X185964855Y-93374020D01*
X185963124Y-93369797D01*
X185962742Y-93367840D01*
X185964321Y-93359370D01*
X185965123Y-93358096D01*
X185967962Y-93355000D01*
X186092061Y-93261119D01*
X186146902Y-93217641D01*
X186147774Y-93217014D01*
X186148726Y-93216398D01*
X186149644Y-93215863D01*
X186236343Y-93170755D01*
X186237807Y-93170117D01*
X186238257Y-93169955D01*
X186239305Y-93169582D01*
X186240840Y-93169150D01*
X186307680Y-93155225D01*
X186308531Y-93155081D01*
X186309443Y-93154963D01*
X186310303Y-93154885D01*
X186389280Y-93150763D01*
X186393797Y-93151419D01*
G37*
%TD.AperFunction*%
%TD*%
%TA.AperFunction,Conductor*%
%TO.N,/Stack Connectors/UART_TX*%
G36*
X186540213Y-93681652D02*
G01*
X186541679Y-93682481D01*
X186707271Y-93792537D01*
X186714424Y-93797291D01*
X186719418Y-93804724D01*
X186719433Y-93804803D01*
X186759303Y-94009914D01*
X186757518Y-94018689D01*
X186750790Y-94023462D01*
X186597154Y-94063817D01*
X186533858Y-94082460D01*
X186532547Y-94082766D01*
X186460660Y-94095204D01*
X186459183Y-94095364D01*
X186366884Y-94099458D01*
X186358468Y-94096401D01*
X186354677Y-94088287D01*
X186354666Y-94087769D01*
X186354666Y-93910156D01*
X186358093Y-93901883D01*
X186364719Y-93898572D01*
X186410290Y-93892103D01*
X186444339Y-93869986D01*
X186464725Y-93836011D01*
X186479364Y-93792541D01*
X186488113Y-93764630D01*
X186488701Y-93763129D01*
X186524633Y-93687219D01*
X186531269Y-93681210D01*
X186540213Y-93681652D01*
G37*
%TD.AperFunction*%
%TD*%
%TA.AperFunction,Conductor*%
%TO.N,/Relay Driver P/EN*%
G36*
X152388083Y-108558071D02*
G01*
X152395974Y-108562302D01*
X152396890Y-108563421D01*
X152397998Y-108567097D01*
X152398308Y-108567024D01*
X152455804Y-108810485D01*
X152455941Y-108811154D01*
X152456050Y-108811776D01*
X152456143Y-108812404D01*
X152480078Y-109012148D01*
X152480085Y-109012208D01*
X152496027Y-109151287D01*
X152533900Y-109297415D01*
X152566764Y-109369103D01*
X152613008Y-109444620D01*
X152640825Y-109480567D01*
X152681637Y-109533308D01*
X152681645Y-109533317D01*
X152763032Y-109620857D01*
X152763740Y-109621618D01*
X152766136Y-109625504D01*
X152766800Y-109627288D01*
X152766561Y-109636043D01*
X152765913Y-109637530D01*
X152763460Y-109641129D01*
X152640928Y-109763661D01*
X152637130Y-109766198D01*
X152635258Y-109766973D01*
X152626696Y-109767126D01*
X152625328Y-109766616D01*
X152621758Y-109764499D01*
X152456143Y-109621137D01*
X152455981Y-109620986D01*
X152455817Y-109620855D01*
X152378534Y-109571889D01*
X152305449Y-109537057D01*
X152241407Y-109519462D01*
X152163291Y-109498000D01*
X152134115Y-109494540D01*
X152016280Y-109480567D01*
X152016278Y-109480566D01*
X152012148Y-109480075D01*
X152012142Y-109480074D01*
X152011630Y-109480014D01*
X152011628Y-109480013D01*
X152011601Y-109480011D01*
X151805383Y-109454990D01*
X151804750Y-109454895D01*
X151804107Y-109454781D01*
X151803468Y-109454650D01*
X151568442Y-109399320D01*
X151564290Y-109397429D01*
X151562843Y-109396388D01*
X151558129Y-109388774D01*
X151557894Y-109387331D01*
X151558242Y-109382074D01*
X151746808Y-108757520D01*
X151748952Y-108753496D01*
X151751156Y-108750804D01*
X151756823Y-108747018D01*
X152381769Y-108558334D01*
X152386308Y-108557894D01*
X152388083Y-108558071D01*
G37*
%TD.AperFunction*%
%TD*%
%TA.AperFunction,Conductor*%
%TO.N,/FDCAN CAR/TXD*%
G36*
X175202634Y-118984009D02*
G01*
X175208389Y-118990870D01*
X175208695Y-118992054D01*
X175250525Y-119197668D01*
X175250525Y-119202333D01*
X175208632Y-119408251D01*
X175203625Y-119415674D01*
X175194834Y-119417383D01*
X175193922Y-119417159D01*
X175098582Y-119389634D01*
X175096774Y-119388945D01*
X175024560Y-119354363D01*
X174959448Y-119325380D01*
X174940924Y-119317134D01*
X174940923Y-119317133D01*
X174940919Y-119317132D01*
X174882623Y-119304642D01*
X174882611Y-119304641D01*
X174815330Y-119300652D01*
X174807275Y-119296742D01*
X174804323Y-119288973D01*
X174804323Y-119111047D01*
X174807750Y-119102774D01*
X174815350Y-119099367D01*
X174880606Y-119095622D01*
X174937850Y-119083795D01*
X175024538Y-119045646D01*
X175071861Y-119021783D01*
X175073602Y-119021076D01*
X175193715Y-118983227D01*
X175202634Y-118984009D01*
G37*
%TD.AperFunction*%
%TD*%
%TA.AperFunction,Conductor*%
%TO.N,/Relay Driver M/EN*%
G36*
X162692721Y-97635293D02*
G01*
X162693208Y-97636097D01*
X162741157Y-97722972D01*
X162741949Y-97724737D01*
X162768566Y-97800271D01*
X162801374Y-97885722D01*
X162833768Y-97935781D01*
X162833777Y-97935792D01*
X162878528Y-97986185D01*
X162881459Y-97994647D01*
X162878053Y-98002227D01*
X162752241Y-98128039D01*
X162743968Y-98131466D01*
X162736185Y-98128501D01*
X162687394Y-98085007D01*
X162687395Y-98085007D01*
X162687391Y-98085004D01*
X162638556Y-98052893D01*
X162638553Y-98052891D01*
X162550280Y-98018569D01*
X162550262Y-98018563D01*
X162499953Y-98001982D01*
X162498211Y-98001247D01*
X162386520Y-97943081D01*
X162380765Y-97936220D01*
X162381547Y-97927300D01*
X162382162Y-97926254D01*
X162497981Y-97751274D01*
X162501274Y-97747981D01*
X162676508Y-97631994D01*
X162685298Y-97630286D01*
X162692721Y-97635293D01*
G37*
%TD.AperFunction*%
%TD*%
%TA.AperFunction,Conductor*%
%TO.N,/FDCAN CHG/VDDCAN*%
G36*
X198767183Y-97268907D02*
G01*
X198778996Y-97278996D01*
X199221004Y-97721004D01*
X199248781Y-97775521D01*
X199250000Y-97791008D01*
X199250000Y-103901000D01*
X199231093Y-103959191D01*
X199181593Y-103995155D01*
X199151000Y-104000000D01*
X195984688Y-104000000D01*
X195926497Y-103981093D01*
X195890533Y-103931593D01*
X195890533Y-103870407D01*
X195914684Y-103830996D01*
X195915209Y-103830470D01*
X195915212Y-103830469D01*
X195980469Y-103765212D01*
X196026614Y-103685288D01*
X196050500Y-103596144D01*
X196050500Y-103503856D01*
X196026614Y-103414712D01*
X195980469Y-103334788D01*
X195915212Y-103269531D01*
X195835288Y-103223386D01*
X195746144Y-103199500D01*
X195653856Y-103199500D01*
X195564712Y-103223386D01*
X195564711Y-103223386D01*
X195564709Y-103223387D01*
X195484790Y-103269529D01*
X195484788Y-103269530D01*
X195484788Y-103269531D01*
X195419531Y-103334788D01*
X195419529Y-103334790D01*
X195419004Y-103335316D01*
X195364487Y-103363093D01*
X195304055Y-103353522D01*
X195260790Y-103310257D01*
X195250000Y-103265312D01*
X195250000Y-101203856D01*
X198349500Y-101203856D01*
X198349500Y-101296144D01*
X198373386Y-101385288D01*
X198419531Y-101465212D01*
X198484788Y-101530469D01*
X198564712Y-101576614D01*
X198653856Y-101600500D01*
X198653858Y-101600500D01*
X198746142Y-101600500D01*
X198746144Y-101600500D01*
X198835288Y-101576614D01*
X198915212Y-101530469D01*
X198980469Y-101465212D01*
X199026614Y-101385288D01*
X199050500Y-101296144D01*
X199050500Y-101203856D01*
X199026614Y-101114712D01*
X198980469Y-101034788D01*
X198915212Y-100969531D01*
X198835288Y-100923386D01*
X198746144Y-100899500D01*
X198653856Y-100899500D01*
X198564712Y-100923386D01*
X198564711Y-100923386D01*
X198564709Y-100923387D01*
X198484790Y-100969529D01*
X198419529Y-101034790D01*
X198373387Y-101114709D01*
X198373386Y-101114711D01*
X198373386Y-101114712D01*
X198349500Y-101203856D01*
X195250000Y-101203856D01*
X195250000Y-97349000D01*
X195268907Y-97290809D01*
X195318407Y-97254845D01*
X195349000Y-97250000D01*
X198708992Y-97250000D01*
X198767183Y-97268907D01*
G37*
%TD.AperFunction*%
%TD*%
%TA.AperFunction,Conductor*%
%TO.N,+24V*%
G36*
X189097225Y-136557750D02*
G01*
X189100633Y-136565353D01*
X189104378Y-136630611D01*
X189116205Y-136687851D01*
X189116205Y-136687853D01*
X189154356Y-136774542D01*
X189178212Y-136821855D01*
X189178924Y-136823607D01*
X189216772Y-136943714D01*
X189215990Y-136952634D01*
X189209129Y-136958389D01*
X189207945Y-136958695D01*
X189002332Y-137000525D01*
X188997667Y-137000525D01*
X188791748Y-136958632D01*
X188784325Y-136953625D01*
X188782616Y-136944834D01*
X188782840Y-136943922D01*
X188782900Y-136943714D01*
X188810368Y-136848573D01*
X188811050Y-136846783D01*
X188832918Y-136801116D01*
X188845636Y-136774560D01*
X188845646Y-136774538D01*
X188882866Y-136690923D01*
X188895358Y-136632618D01*
X188899347Y-136565330D01*
X188903257Y-136557275D01*
X188911026Y-136554323D01*
X189088952Y-136554323D01*
X189097225Y-136557750D01*
G37*
%TD.AperFunction*%
%TD*%
%TA.AperFunction,Conductor*%
%TO.N,/SDC Driver/RELAY-*%
G36*
X188256947Y-73775040D02*
G01*
X188257481Y-73775260D01*
X188796207Y-73997437D01*
X188802548Y-74003759D01*
X188802562Y-74003792D01*
X189025023Y-74543207D01*
X189025009Y-74552162D01*
X189018668Y-74558484D01*
X189018367Y-74558604D01*
X188841913Y-74625727D01*
X188841385Y-74625913D01*
X188694067Y-74674016D01*
X188509347Y-74738969D01*
X188433151Y-74776796D01*
X188433142Y-74776801D01*
X188353820Y-74827435D01*
X188251990Y-74908563D01*
X188251974Y-74908576D01*
X188140143Y-75013891D01*
X188131771Y-75017068D01*
X188123849Y-75013646D01*
X187786238Y-74676035D01*
X187782811Y-74667762D01*
X187785878Y-74659865D01*
X187816935Y-74625913D01*
X187928836Y-74503583D01*
X188021753Y-74369410D01*
X188079868Y-74244051D01*
X188125977Y-74105950D01*
X188140768Y-74059152D01*
X188140903Y-74058754D01*
X188241502Y-73781865D01*
X188247548Y-73775260D01*
X188256494Y-73774864D01*
X188256947Y-73775040D01*
G37*
%TD.AperFunction*%
%TD*%
%TA.AperFunction,Conductor*%
%TO.N,/Relay Driver M/EN*%
G36*
X152392905Y-106558553D02*
G01*
X152398577Y-106565482D01*
X152398770Y-106566204D01*
X152455883Y-106810821D01*
X152456106Y-106812089D01*
X152480078Y-107012148D01*
X152480085Y-107012208D01*
X152496027Y-107151287D01*
X152533900Y-107297413D01*
X152566762Y-107369099D01*
X152613003Y-107444612D01*
X152681637Y-107533308D01*
X152681645Y-107533317D01*
X152765324Y-107623322D01*
X152768447Y-107631715D01*
X152765028Y-107639562D01*
X152639283Y-107765307D01*
X152631010Y-107768734D01*
X152623353Y-107765880D01*
X152455823Y-107620860D01*
X152455820Y-107620857D01*
X152378536Y-107571890D01*
X152305451Y-107537058D01*
X152241407Y-107519462D01*
X152163291Y-107498000D01*
X152012148Y-107480078D01*
X152012148Y-107480075D01*
X152012116Y-107480074D01*
X151805058Y-107454951D01*
X151803786Y-107454725D01*
X151566176Y-107398787D01*
X151558908Y-107393555D01*
X151557468Y-107384717D01*
X151557651Y-107384033D01*
X151747480Y-106755296D01*
X151753151Y-106748369D01*
X151755289Y-106747482D01*
X152383994Y-106557663D01*
X152392905Y-106558553D01*
G37*
%TD.AperFunction*%
%TD*%
%TA.AperFunction,Conductor*%
%TO.N,/Interface connectors/SDC_IN*%
G36*
X194699489Y-77889692D02*
G01*
X195390385Y-78580588D01*
X195393812Y-78588861D01*
X195390592Y-78596922D01*
X195075087Y-78928831D01*
X194853237Y-79211330D01*
X194683109Y-79435888D01*
X194675381Y-79440413D01*
X194666718Y-79438149D01*
X194666676Y-79438117D01*
X194200532Y-79081654D01*
X194198345Y-79079467D01*
X193841882Y-78613323D01*
X193839579Y-78604670D01*
X193844068Y-78596922D01*
X194068681Y-78426754D01*
X194245605Y-78291877D01*
X194432523Y-78132408D01*
X194432533Y-78132397D01*
X194432538Y-78132394D01*
X194497672Y-78069262D01*
X194683075Y-77889562D01*
X194691399Y-77886266D01*
X194699489Y-77889692D01*
G37*
%TD.AperFunction*%
%TD*%
%TA.AperFunction,Conductor*%
%TO.N,/FDCAN CHG/TXD*%
G36*
X175072699Y-108131547D02*
G01*
X175073753Y-108132168D01*
X175248722Y-108247979D01*
X175252020Y-108251277D01*
X175368004Y-108426507D01*
X175369713Y-108435296D01*
X175364706Y-108442720D01*
X175363902Y-108443207D01*
X175277029Y-108491155D01*
X175275264Y-108491947D01*
X175199727Y-108518565D01*
X175114276Y-108551374D01*
X175064217Y-108583768D01*
X175064206Y-108583777D01*
X175013814Y-108628528D01*
X175005352Y-108631459D01*
X174997772Y-108628053D01*
X174871960Y-108502241D01*
X174868533Y-108493968D01*
X174871498Y-108486185D01*
X174914993Y-108437394D01*
X174947108Y-108388554D01*
X174981430Y-108300281D01*
X174998018Y-108249948D01*
X174998752Y-108248211D01*
X175056918Y-108136520D01*
X175063779Y-108130765D01*
X175072699Y-108131547D01*
G37*
%TD.AperFunction*%
%TD*%
%TA.AperFunction,Conductor*%
%TO.N,+24V*%
G36*
X192602634Y-131184009D02*
G01*
X192608389Y-131190870D01*
X192608695Y-131192054D01*
X192650525Y-131397668D01*
X192650525Y-131402333D01*
X192608632Y-131608251D01*
X192603625Y-131615674D01*
X192594834Y-131617383D01*
X192593922Y-131617159D01*
X192498582Y-131589634D01*
X192496774Y-131588945D01*
X192424560Y-131554363D01*
X192359448Y-131525380D01*
X192340924Y-131517134D01*
X192340923Y-131517133D01*
X192340919Y-131517132D01*
X192282623Y-131504642D01*
X192282611Y-131504641D01*
X192215330Y-131500652D01*
X192207275Y-131496742D01*
X192204323Y-131488973D01*
X192204323Y-131311047D01*
X192207750Y-131302774D01*
X192215350Y-131299367D01*
X192280606Y-131295622D01*
X192337850Y-131283795D01*
X192424538Y-131245646D01*
X192471861Y-131221783D01*
X192473602Y-131221076D01*
X192593715Y-131183227D01*
X192602634Y-131184009D01*
G37*
%TD.AperFunction*%
%TD*%
%TA.AperFunction,Conductor*%
%TO.N,/USB/TX_LED*%
G36*
X192492721Y-88435293D02*
G01*
X192493208Y-88436097D01*
X192541157Y-88522972D01*
X192541949Y-88524737D01*
X192568566Y-88600271D01*
X192601374Y-88685722D01*
X192633768Y-88735781D01*
X192633777Y-88735792D01*
X192678528Y-88786185D01*
X192681459Y-88794647D01*
X192678053Y-88802227D01*
X192552241Y-88928039D01*
X192543968Y-88931466D01*
X192536185Y-88928501D01*
X192487394Y-88885007D01*
X192487395Y-88885007D01*
X192487391Y-88885004D01*
X192438556Y-88852893D01*
X192438553Y-88852891D01*
X192350280Y-88818569D01*
X192350262Y-88818563D01*
X192299953Y-88801982D01*
X192298211Y-88801247D01*
X192186520Y-88743081D01*
X192180765Y-88736220D01*
X192181547Y-88727300D01*
X192182162Y-88726254D01*
X192297981Y-88551274D01*
X192301274Y-88547981D01*
X192476508Y-88431994D01*
X192485298Y-88430286D01*
X192492721Y-88435293D01*
G37*
%TD.AperFunction*%
%TD*%
%TA.AperFunction,Conductor*%
%TO.N,/USB/_~{RST}*%
G36*
X194347301Y-88109243D02*
G01*
X194350704Y-88116765D01*
X194359326Y-88250780D01*
X194360583Y-88255851D01*
X194383765Y-88349399D01*
X194420189Y-88494227D01*
X194418883Y-88503086D01*
X194411696Y-88508428D01*
X194411174Y-88508546D01*
X194207302Y-88550022D01*
X194198512Y-88548313D01*
X194198434Y-88548261D01*
X194025376Y-88431703D01*
X194020428Y-88424239D01*
X194022208Y-88415463D01*
X194022351Y-88415255D01*
X194071395Y-88346345D01*
X194071396Y-88346344D01*
X194128584Y-88255855D01*
X194128587Y-88255851D01*
X194144823Y-88194641D01*
X194149358Y-88116835D01*
X194153260Y-88108775D01*
X194161038Y-88105816D01*
X194339028Y-88105816D01*
X194347301Y-88109243D01*
G37*
%TD.AperFunction*%
%TD*%
%TA.AperFunction,Conductor*%
%TO.N,GNDUSB*%
G36*
X206206947Y-95775040D02*
G01*
X206207481Y-95775260D01*
X206746207Y-95997437D01*
X206752548Y-96003759D01*
X206752562Y-96003792D01*
X206975023Y-96543207D01*
X206975009Y-96552162D01*
X206968668Y-96558484D01*
X206968367Y-96558604D01*
X206791913Y-96625727D01*
X206791385Y-96625913D01*
X206644067Y-96674016D01*
X206459347Y-96738969D01*
X206383151Y-96776796D01*
X206383142Y-96776801D01*
X206303820Y-96827435D01*
X206201990Y-96908563D01*
X206201974Y-96908576D01*
X206090143Y-97013891D01*
X206081771Y-97017068D01*
X206073849Y-97013646D01*
X205736238Y-96676035D01*
X205732811Y-96667762D01*
X205735878Y-96659865D01*
X205766935Y-96625913D01*
X205878836Y-96503583D01*
X205971753Y-96369410D01*
X206029868Y-96244051D01*
X206075977Y-96105950D01*
X206090768Y-96059152D01*
X206090903Y-96058754D01*
X206191502Y-95781865D01*
X206197548Y-95775260D01*
X206206494Y-95774864D01*
X206206947Y-95775040D01*
G37*
%TD.AperFunction*%
%TD*%
%TA.AperFunction,Conductor*%
%TO.N,/USB/_RXD*%
G36*
X192696313Y-91103997D02*
G01*
X192739526Y-91142519D01*
X192745108Y-91147495D01*
X192776820Y-91168346D01*
X192793946Y-91179608D01*
X192882219Y-91213930D01*
X192931803Y-91230272D01*
X192932546Y-91230517D01*
X192934288Y-91231252D01*
X193045979Y-91289418D01*
X193051734Y-91296279D01*
X193050952Y-91305199D01*
X193050331Y-91306253D01*
X192934520Y-91481222D01*
X192931222Y-91484520D01*
X192755993Y-91600504D01*
X192747203Y-91602213D01*
X192739779Y-91597206D01*
X192739292Y-91596402D01*
X192691343Y-91509528D01*
X192690551Y-91507763D01*
X192682360Y-91484520D01*
X192663930Y-91432219D01*
X192631124Y-91346776D01*
X192598730Y-91296715D01*
X192592250Y-91289418D01*
X192553971Y-91246314D01*
X192551040Y-91237853D01*
X192554445Y-91230273D01*
X192680259Y-91104459D01*
X192688531Y-91101033D01*
X192696313Y-91103997D01*
G37*
%TD.AperFunction*%
%TD*%
%TA.AperFunction,Conductor*%
%TO.N,/USB/_TXD*%
G36*
X190791313Y-91098997D02*
G01*
X190834526Y-91137519D01*
X190840108Y-91142495D01*
X190871820Y-91163346D01*
X190888946Y-91174608D01*
X190977219Y-91208930D01*
X191026803Y-91225272D01*
X191027546Y-91225517D01*
X191029288Y-91226252D01*
X191140979Y-91284418D01*
X191146734Y-91291279D01*
X191145952Y-91300199D01*
X191145331Y-91301253D01*
X191029520Y-91476222D01*
X191026222Y-91479520D01*
X190850993Y-91595504D01*
X190842203Y-91597213D01*
X190834779Y-91592206D01*
X190834292Y-91591402D01*
X190786343Y-91504528D01*
X190785551Y-91502763D01*
X190777360Y-91479520D01*
X190758930Y-91427219D01*
X190726124Y-91341776D01*
X190693730Y-91291715D01*
X190687250Y-91284418D01*
X190648971Y-91241314D01*
X190646040Y-91232853D01*
X190649445Y-91225273D01*
X190775259Y-91099459D01*
X190783531Y-91096033D01*
X190791313Y-91098997D01*
G37*
%TD.AperFunction*%
%TD*%
%TA.AperFunction,Conductor*%
%TO.N,/FDCAN CAR/TXD*%
G36*
X152388083Y-124558071D02*
G01*
X152395974Y-124562302D01*
X152396890Y-124563421D01*
X152397998Y-124567097D01*
X152398308Y-124567024D01*
X152455804Y-124810485D01*
X152455941Y-124811154D01*
X152456050Y-124811776D01*
X152456143Y-124812404D01*
X152480078Y-125012148D01*
X152480085Y-125012208D01*
X152496027Y-125151287D01*
X152533900Y-125297415D01*
X152566764Y-125369103D01*
X152613008Y-125444620D01*
X152640825Y-125480567D01*
X152681637Y-125533308D01*
X152681645Y-125533317D01*
X152763032Y-125620857D01*
X152763740Y-125621618D01*
X152766136Y-125625504D01*
X152766800Y-125627288D01*
X152766561Y-125636043D01*
X152765913Y-125637530D01*
X152763460Y-125641129D01*
X152640928Y-125763661D01*
X152637130Y-125766198D01*
X152635258Y-125766973D01*
X152626696Y-125767126D01*
X152625328Y-125766616D01*
X152621758Y-125764499D01*
X152456143Y-125621137D01*
X152455981Y-125620986D01*
X152455817Y-125620855D01*
X152378534Y-125571889D01*
X152305449Y-125537057D01*
X152241407Y-125519462D01*
X152163291Y-125498000D01*
X152134115Y-125494540D01*
X152016280Y-125480567D01*
X152016278Y-125480566D01*
X152012148Y-125480075D01*
X152012142Y-125480074D01*
X152011630Y-125480014D01*
X152011628Y-125480013D01*
X152011601Y-125480011D01*
X151805383Y-125454990D01*
X151804750Y-125454895D01*
X151804107Y-125454781D01*
X151803468Y-125454650D01*
X151568442Y-125399320D01*
X151564290Y-125397429D01*
X151562843Y-125396388D01*
X151558129Y-125388774D01*
X151557894Y-125387331D01*
X151558242Y-125382074D01*
X151746808Y-124757520D01*
X151748952Y-124753496D01*
X151751156Y-124750804D01*
X151756823Y-124747018D01*
X152381769Y-124558334D01*
X152386308Y-124557894D01*
X152388083Y-124558071D01*
G37*
%TD.AperFunction*%
%TD*%
%TA.AperFunction,Conductor*%
%TO.N,/Interface connectors/AIR_M-*%
G36*
X154426370Y-93129675D02*
G01*
X154431071Y-93132544D01*
X155117341Y-93818814D01*
X155119877Y-93822608D01*
X155120559Y-93824254D01*
X155120560Y-93833209D01*
X155120558Y-93833214D01*
X155120007Y-93834543D01*
X155116917Y-93838855D01*
X155030396Y-93914795D01*
X155030129Y-93915023D01*
X155029859Y-93915246D01*
X155029567Y-93915479D01*
X154908891Y-94008826D01*
X154681200Y-94190124D01*
X154526579Y-94342521D01*
X154425960Y-94481853D01*
X154425949Y-94481870D01*
X154425946Y-94481875D01*
X154368822Y-94615202D01*
X154352433Y-94731292D01*
X154350927Y-94735598D01*
X154350022Y-94737133D01*
X154342868Y-94742519D01*
X154342861Y-94742521D01*
X154342069Y-94742725D01*
X154334689Y-94742211D01*
X153755941Y-94503449D01*
X153752142Y-94500918D01*
X153749108Y-94497892D01*
X153746557Y-94494075D01*
X153621162Y-94190124D01*
X153508228Y-93916376D01*
X153507344Y-93911901D01*
X153507346Y-93910118D01*
X153510780Y-93901854D01*
X153511336Y-93901300D01*
X153518183Y-93897976D01*
X153615968Y-93886138D01*
X153723469Y-93847484D01*
X153824324Y-93788434D01*
X153918884Y-93713385D01*
X154007497Y-93626733D01*
X154090513Y-93532876D01*
X154241153Y-93341131D01*
X154296521Y-93268700D01*
X154296660Y-93268522D01*
X154296899Y-93268227D01*
X154296983Y-93268126D01*
X154410993Y-93133645D01*
X154414561Y-93130811D01*
X154416149Y-93129994D01*
X154425068Y-93129258D01*
X154426370Y-93129675D01*
G37*
%TD.AperFunction*%
%TD*%
%TA.AperFunction,Conductor*%
%TO.N,/Stack Connectors/USB_DETECTION*%
G36*
X187169868Y-93681307D02*
G01*
X187175324Y-93683208D01*
X187347101Y-93796907D01*
X187347102Y-93796907D01*
X187347737Y-93797327D01*
X187349556Y-93798813D01*
X187351186Y-93800443D01*
X187352669Y-93802258D01*
X187466740Y-93974599D01*
X187468469Y-93978824D01*
X187468809Y-93980573D01*
X187467024Y-93989348D01*
X187466249Y-93990497D01*
X187462236Y-93994180D01*
X187378150Y-94040950D01*
X187377318Y-94041370D01*
X187376465Y-94041759D01*
X187375608Y-94042110D01*
X187301180Y-94069168D01*
X187217394Y-94102139D01*
X187217372Y-94102150D01*
X187166906Y-94134974D01*
X187117501Y-94178918D01*
X187113566Y-94181227D01*
X187111696Y-94181877D01*
X187103060Y-94181498D01*
X187101671Y-94180874D01*
X187098193Y-94178475D01*
X186976367Y-94056649D01*
X186973830Y-94052851D01*
X186973149Y-94051206D01*
X186973148Y-94042258D01*
X186973829Y-94040612D01*
X186976362Y-94036817D01*
X186997969Y-94015212D01*
X187004832Y-94003322D01*
X187005472Y-94002335D01*
X187006160Y-94001382D01*
X187006886Y-94000475D01*
X187016771Y-93989353D01*
X187048594Y-93940389D01*
X187082038Y-93851762D01*
X187098846Y-93799174D01*
X187099172Y-93798283D01*
X187099561Y-93797348D01*
X187099958Y-93796497D01*
X187155860Y-93688616D01*
X187158706Y-93685056D01*
X187160072Y-93683906D01*
X187168605Y-93681199D01*
X187169868Y-93681307D01*
G37*
%TD.AperFunction*%
%TD*%
%TA.AperFunction,Conductor*%
%TO.N,/Stack Connectors/USB_DETECTION*%
G36*
X154075494Y-116160646D02*
G01*
X154080500Y-116162351D01*
X154291858Y-116293696D01*
X154292376Y-116294037D01*
X154292925Y-116294421D01*
X154293416Y-116294784D01*
X154448621Y-116416774D01*
X154449821Y-116418556D01*
X154453251Y-116420426D01*
X154561274Y-116506232D01*
X154621368Y-116541587D01*
X154691380Y-116582778D01*
X154691382Y-116582779D01*
X154733802Y-116598531D01*
X154765307Y-116610231D01*
X154851391Y-116630928D01*
X154962462Y-116645091D01*
X154962522Y-116645099D01*
X154962647Y-116645115D01*
X154962650Y-116645115D01*
X154962657Y-116645116D01*
X154962673Y-116645116D01*
X154962675Y-116645116D01*
X154962680Y-116645117D01*
X154997385Y-116646380D01*
X154999912Y-116646472D01*
X154999913Y-116646472D01*
X155083150Y-116649504D01*
X155087589Y-116650556D01*
X155089323Y-116651349D01*
X155095344Y-116657705D01*
X155095937Y-116659212D01*
X155096750Y-116663496D01*
X155096750Y-116836784D01*
X155095858Y-116841264D01*
X155095082Y-116843136D01*
X155089141Y-116849296D01*
X155088548Y-116849566D01*
X155087812Y-116849903D01*
X155083787Y-116850933D01*
X154864879Y-116866698D01*
X154864849Y-116866704D01*
X154775624Y-116886715D01*
X154716045Y-116907834D01*
X154699299Y-116913770D01*
X154699297Y-116913770D01*
X154699294Y-116913772D01*
X154699293Y-116913773D01*
X154571156Y-116986674D01*
X154451689Y-117080813D01*
X154451688Y-117080812D01*
X154451652Y-117080842D01*
X154287680Y-117209328D01*
X154287156Y-117209716D01*
X154286601Y-117210103D01*
X154286066Y-117210455D01*
X154080757Y-117337520D01*
X154076479Y-117339119D01*
X154074721Y-117339405D01*
X154066005Y-117337351D01*
X154066004Y-117337350D01*
X154064824Y-117336500D01*
X154061351Y-117332536D01*
X154022042Y-117259225D01*
X153995892Y-117210455D01*
X153753061Y-116757574D01*
X153751732Y-116753215D01*
X153751386Y-116749750D01*
X153752716Y-116743066D01*
X154061203Y-116167737D01*
X154064099Y-116164218D01*
X154065478Y-116163089D01*
X154074048Y-116160502D01*
X154075494Y-116160646D01*
G37*
%TD.AperFunction*%
%TD*%
%TA.AperFunction,Conductor*%
%TO.N,/FDCAN CAR/VDDCAN*%
G36*
X199209191Y-110768907D02*
G01*
X199245155Y-110818407D01*
X199250000Y-110849000D01*
X199250000Y-117401000D01*
X199231093Y-117459191D01*
X199181593Y-117495155D01*
X199151000Y-117500000D01*
X195984688Y-117500000D01*
X195926497Y-117481093D01*
X195890533Y-117431593D01*
X195890533Y-117370407D01*
X195914684Y-117330996D01*
X195915209Y-117330470D01*
X195915212Y-117330469D01*
X195980469Y-117265212D01*
X196026614Y-117185288D01*
X196050500Y-117096144D01*
X196050500Y-117003856D01*
X196026614Y-116914712D01*
X195980469Y-116834788D01*
X195915212Y-116769531D01*
X195835288Y-116723386D01*
X195746144Y-116699500D01*
X195653856Y-116699500D01*
X195564712Y-116723386D01*
X195564711Y-116723386D01*
X195564709Y-116723387D01*
X195484790Y-116769529D01*
X195484788Y-116769530D01*
X195484788Y-116769531D01*
X195419531Y-116834788D01*
X195419529Y-116834790D01*
X195419004Y-116835316D01*
X195364487Y-116863093D01*
X195304055Y-116853522D01*
X195260790Y-116810257D01*
X195250000Y-116765312D01*
X195250000Y-114703856D01*
X198349500Y-114703856D01*
X198349500Y-114796144D01*
X198373386Y-114885288D01*
X198419531Y-114965212D01*
X198484788Y-115030469D01*
X198564712Y-115076614D01*
X198653856Y-115100500D01*
X198653858Y-115100500D01*
X198746142Y-115100500D01*
X198746144Y-115100500D01*
X198835288Y-115076614D01*
X198915212Y-115030469D01*
X198980469Y-114965212D01*
X199026614Y-114885288D01*
X199050500Y-114796144D01*
X199050500Y-114703856D01*
X199026614Y-114614712D01*
X198980469Y-114534788D01*
X198915212Y-114469531D01*
X198835288Y-114423386D01*
X198746144Y-114399500D01*
X198653856Y-114399500D01*
X198564712Y-114423386D01*
X198564711Y-114423386D01*
X198564709Y-114423387D01*
X198484790Y-114469529D01*
X198419529Y-114534790D01*
X198373387Y-114614709D01*
X198373386Y-114614711D01*
X198373386Y-114614712D01*
X198349500Y-114703856D01*
X195250000Y-114703856D01*
X195250000Y-110849000D01*
X195268907Y-110790809D01*
X195318407Y-110754845D01*
X195349000Y-110750000D01*
X199151000Y-110750000D01*
X199209191Y-110768907D01*
G37*
%TD.AperFunction*%
%TD*%
%TA.AperFunction,Conductor*%
%TO.N,/FDCAN CHG/RXD*%
G36*
X152388083Y-118558071D02*
G01*
X152395974Y-118562302D01*
X152396890Y-118563421D01*
X152397998Y-118567097D01*
X152398308Y-118567024D01*
X152455804Y-118810485D01*
X152455941Y-118811154D01*
X152456050Y-118811776D01*
X152456143Y-118812404D01*
X152480078Y-119012148D01*
X152480085Y-119012208D01*
X152496027Y-119151287D01*
X152533900Y-119297415D01*
X152566764Y-119369103D01*
X152613008Y-119444620D01*
X152640825Y-119480567D01*
X152681637Y-119533308D01*
X152681645Y-119533317D01*
X152763032Y-119620857D01*
X152763740Y-119621618D01*
X152766136Y-119625504D01*
X152766800Y-119627288D01*
X152766561Y-119636043D01*
X152765913Y-119637530D01*
X152763460Y-119641129D01*
X152640928Y-119763661D01*
X152637130Y-119766198D01*
X152635258Y-119766973D01*
X152626696Y-119767126D01*
X152625328Y-119766616D01*
X152621758Y-119764499D01*
X152456143Y-119621137D01*
X152455981Y-119620986D01*
X152455817Y-119620855D01*
X152378534Y-119571889D01*
X152305449Y-119537057D01*
X152241407Y-119519462D01*
X152163291Y-119498000D01*
X152134115Y-119494540D01*
X152016280Y-119480567D01*
X152016278Y-119480566D01*
X152012148Y-119480075D01*
X152012142Y-119480074D01*
X152011630Y-119480014D01*
X152011628Y-119480013D01*
X152011601Y-119480011D01*
X151805383Y-119454990D01*
X151804750Y-119454895D01*
X151804107Y-119454781D01*
X151803468Y-119454650D01*
X151568442Y-119399320D01*
X151564290Y-119397429D01*
X151562843Y-119396388D01*
X151558129Y-119388774D01*
X151557894Y-119387331D01*
X151558242Y-119382074D01*
X151746808Y-118757520D01*
X151748952Y-118753496D01*
X151751156Y-118750804D01*
X151756823Y-118747018D01*
X152381769Y-118558334D01*
X152386308Y-118557894D01*
X152388083Y-118558071D01*
G37*
%TD.AperFunction*%
%TD*%
M02*
