%TF.GenerationSoftware,KiCad,Pcbnew,10.0.0*%
%TF.CreationDate,2026-03-28T20:13:58+01:00*%
%TF.ProjectId,PUTM_AMS_MASTER_ISOLATION,5055544d-5f41-44d5-935f-4d4153544552,rev?*%
%TF.SameCoordinates,Original*%
%TF.FileFunction,Soldermask,Bot*%
%TF.FilePolarity,Negative*%
%FSLAX46Y46*%
G04 Gerber Fmt 4.6, Leading zero omitted, Abs format (unit mm)*
G04 Created by KiCad (PCBNEW 10.0.0) date 2026-03-28 20:13:58*
%MOMM*%
%LPD*%
G01*
G04 APERTURE LIST*
G04 Aperture macros list*
%AMRoundRect*
0 Rectangle with rounded corners*
0 $1 Rounding radius*
0 $2 $3 $4 $5 $6 $7 $8 $9 X,Y pos of 4 corners*
0 Add a 4 corners polygon primitive as box body*
4,1,4,$2,$3,$4,$5,$6,$7,$8,$9,$2,$3,0*
0 Add four circle primitives for the rounded corners*
1,1,$1+$1,$2,$3*
1,1,$1+$1,$4,$5*
1,1,$1+$1,$6,$7*
1,1,$1+$1,$8,$9*
0 Add four rect primitives between the rounded corners*
20,1,$1+$1,$2,$3,$4,$5,0*
20,1,$1+$1,$4,$5,$6,$7,0*
20,1,$1+$1,$6,$7,$8,$9,0*
20,1,$1+$1,$8,$9,$2,$3,0*%
G04 Aperture macros list end*
%ADD10R,1.200000X1.200000*%
%ADD11C,1.200000*%
%ADD12C,3.200000*%
%ADD13C,1.725000*%
%ADD14C,0.800000*%
%ADD15C,6.400000*%
%ADD16C,2.200000*%
%ADD17R,1.350000X1.350000*%
%ADD18C,1.350000*%
%ADD19RoundRect,0.250000X1.310000X-0.400000X1.310000X0.400000X-1.310000X0.400000X-1.310000X-0.400000X0*%
%ADD20RoundRect,0.250000X0.400000X1.310000X-0.400000X1.310000X-0.400000X-1.310000X0.400000X-1.310000X0*%
%ADD21RoundRect,0.250000X-1.310000X0.400000X-1.310000X-0.400000X1.310000X-0.400000X1.310000X0.400000X0*%
%ADD22RoundRect,0.250000X-0.400000X-1.310000X0.400000X-1.310000X0.400000X1.310000X-0.400000X1.310000X0*%
G04 APERTURE END LIST*
D10*
%TO.C,PS2*%
X184134293Y-128200000D03*
D11*
X181594293Y-128200000D03*
X168894293Y-128200000D03*
X166354293Y-128200000D03*
X166354293Y-138360000D03*
X168894293Y-138360000D03*
X184134293Y-138360000D03*
%TD*%
D12*
%TO.C,H1*%
X152750000Y-79750000D03*
%TD*%
D11*
%TO.C,K3*%
X172050000Y-84920000D03*
X168850000Y-84920000D03*
X166650000Y-84920000D03*
X164450000Y-84920000D03*
X164450000Y-90000000D03*
X166650000Y-90000000D03*
X168850000Y-90000000D03*
X172050000Y-90000000D03*
%TD*%
D13*
%TO.C,U3*%
X176710000Y-83655000D03*
X176710000Y-86195000D03*
X176710000Y-88735000D03*
X176710000Y-91275000D03*
%TD*%
D14*
%TO.C,H1*%
X203350000Y-137750000D03*
X204052944Y-136052944D03*
X204052944Y-139447056D03*
X205750000Y-135350000D03*
D15*
X205750000Y-137750000D03*
D14*
X205750000Y-140150000D03*
X207447056Y-136052944D03*
X207447056Y-139447056D03*
X208150000Y-137750000D03*
%TD*%
D12*
%TO.C,H3*%
X152750000Y-137750000D03*
%TD*%
D11*
%TO.C,K1*%
X172050000Y-78420000D03*
X168850000Y-78420000D03*
X166650000Y-78420000D03*
X164450000Y-78420000D03*
X164450000Y-83500000D03*
X166650000Y-83500000D03*
X168850000Y-83500000D03*
X172050000Y-83500000D03*
%TD*%
%TO.C,K2*%
X188800000Y-79080000D03*
X192000000Y-79080000D03*
X194200000Y-79080000D03*
X196400000Y-79080000D03*
X196400000Y-74000000D03*
X194200000Y-74000000D03*
X192000000Y-74000000D03*
X188800000Y-74000000D03*
%TD*%
D16*
%TO.C,J4*%
X152750000Y-98000000D03*
X152750000Y-87000000D03*
D10*
X153750000Y-94500000D03*
D11*
X153750000Y-92500000D03*
X153750000Y-90500000D03*
X151750000Y-94500000D03*
X151750000Y-92500000D03*
X151750000Y-90500000D03*
%TD*%
D16*
%TO.C,J2*%
X205750000Y-88500000D03*
X205750000Y-113500000D03*
D10*
X204750000Y-92000000D03*
D11*
X204750000Y-94000000D03*
X204750000Y-96000000D03*
X204750000Y-98000000D03*
X204750000Y-100000000D03*
X204750000Y-102000000D03*
X204750000Y-104000000D03*
X204750000Y-106000000D03*
X204750000Y-108000000D03*
X204750000Y-110000000D03*
X206750000Y-92000000D03*
X206750000Y-94000000D03*
X206750000Y-96000000D03*
X206750000Y-98000000D03*
X206750000Y-100000000D03*
X206750000Y-102000000D03*
X206750000Y-104000000D03*
X206750000Y-106000000D03*
X206750000Y-108000000D03*
X206750000Y-110000000D03*
%TD*%
D17*
%TO.C,J5*%
X196750000Y-139000000D03*
D18*
X198750000Y-139000000D03*
%TD*%
D11*
%TO.C,K4*%
X172050000Y-71920000D03*
X168850000Y-71920000D03*
X166650000Y-71920000D03*
X164450000Y-71920000D03*
X164450000Y-77000000D03*
X166650000Y-77000000D03*
X168850000Y-77000000D03*
X172050000Y-77000000D03*
%TD*%
D19*
%TO.C,C10*%
X179750000Y-86260000D03*
X179750000Y-81040000D03*
%TD*%
D20*
%TO.C,C21*%
X185860000Y-116750000D03*
X180640000Y-116750000D03*
%TD*%
%TO.C,C8*%
X172610000Y-135500000D03*
X167390000Y-135500000D03*
%TD*%
D17*
%TO.C,J3*%
X153750000Y-110750000D03*
D18*
X151750000Y-110750000D03*
X153750000Y-108750000D03*
X151750000Y-108750000D03*
X153750000Y-106750000D03*
X151750000Y-106750000D03*
X153750000Y-104750000D03*
X151750000Y-104750000D03*
%TD*%
D21*
%TO.C,C26*%
X179750000Y-88790000D03*
X179750000Y-94010000D03*
%TD*%
D22*
%TO.C,C36*%
X187640000Y-116750000D03*
X192860000Y-116750000D03*
%TD*%
%TO.C,C6*%
X177890000Y-131000000D03*
X183110000Y-131000000D03*
%TD*%
D17*
%TO.C,J1*%
X151750000Y-114750000D03*
D18*
X153750000Y-114750000D03*
X151750000Y-116750000D03*
X153750000Y-116750000D03*
X151750000Y-118750000D03*
X153750000Y-118750000D03*
X151750000Y-120750000D03*
X153750000Y-120750000D03*
X151750000Y-122750000D03*
X153750000Y-122750000D03*
X151750000Y-124750000D03*
X153750000Y-124750000D03*
X151750000Y-126750000D03*
X153750000Y-126750000D03*
X151750000Y-128750000D03*
X153750000Y-128750000D03*
X151750000Y-130750000D03*
X153750000Y-130750000D03*
X151750000Y-132750000D03*
X153750000Y-132750000D03*
%TD*%
D20*
%TO.C,C1*%
X172610000Y-131000000D03*
X167390000Y-131000000D03*
%TD*%
%TO.C,C22*%
X185860000Y-103250000D03*
X180640000Y-103250000D03*
%TD*%
D22*
%TO.C,C7*%
X177890000Y-135500000D03*
X183110000Y-135500000D03*
%TD*%
%TO.C,C56*%
X187640000Y-103250000D03*
X192860000Y-103250000D03*
%TD*%
G36*
X152872922Y-76251725D02*
G01*
X152878865Y-76251939D01*
X153040491Y-76261641D01*
X153046417Y-76262139D01*
X153207416Y-76279581D01*
X153213311Y-76280363D01*
X153373283Y-76305503D01*
X153379134Y-76306567D01*
X153537727Y-76339351D01*
X153543520Y-76340695D01*
X153700321Y-76381035D01*
X153706044Y-76382654D01*
X153860761Y-76430475D01*
X153866398Y-76432367D01*
X154018634Y-76487546D01*
X154024175Y-76489706D01*
X154173590Y-76552121D01*
X154179021Y-76554544D01*
X154325286Y-76624058D01*
X154330595Y-76626739D01*
X154473345Y-76703179D01*
X154478517Y-76706111D01*
X154617432Y-76789302D01*
X154622460Y-76792479D01*
X154757238Y-76882243D01*
X154762107Y-76885657D01*
X154892427Y-76981780D01*
X154897127Y-76985423D01*
X155022671Y-77087669D01*
X155027190Y-77091534D01*
X155147726Y-77199716D01*
X155152056Y-77203794D01*
X155267228Y-77317594D01*
X155271357Y-77321874D01*
X155380955Y-77441080D01*
X155384874Y-77445553D01*
X155488634Y-77569882D01*
X155492333Y-77574537D01*
X155590010Y-77703692D01*
X155593483Y-77708520D01*
X155684847Y-77842198D01*
X155688083Y-77847187D01*
X155772944Y-77985109D01*
X155775939Y-77990247D01*
X155854090Y-78132081D01*
X155856834Y-78137357D01*
X155928092Y-78282768D01*
X155930580Y-78288170D01*
X155994781Y-78436824D01*
X155997007Y-78442338D01*
X156054004Y-78593891D01*
X156055964Y-78599506D01*
X156105642Y-78753657D01*
X156107329Y-78759359D01*
X156149547Y-78915666D01*
X156150960Y-78921444D01*
X156185640Y-79079625D01*
X156186774Y-79085462D01*
X156213829Y-79245111D01*
X156214682Y-79250996D01*
X156234055Y-79411782D01*
X156234624Y-79417701D01*
X156246264Y-79579205D01*
X156246549Y-79585145D01*
X156250432Y-79747026D01*
X156250432Y-79752974D01*
X156246549Y-79914854D01*
X156246264Y-79920794D01*
X156234624Y-80082298D01*
X156234055Y-80088217D01*
X156214682Y-80249003D01*
X156213829Y-80254888D01*
X156186774Y-80414537D01*
X156185640Y-80420374D01*
X156150960Y-80578555D01*
X156149547Y-80584333D01*
X156107329Y-80740640D01*
X156105642Y-80746342D01*
X156055964Y-80900493D01*
X156054004Y-80906108D01*
X155997007Y-81057661D01*
X155994781Y-81063175D01*
X155930580Y-81211829D01*
X155928092Y-81217231D01*
X155856834Y-81362642D01*
X155854090Y-81367918D01*
X155775939Y-81509752D01*
X155772944Y-81514890D01*
X155688083Y-81652812D01*
X155684847Y-81657801D01*
X155593483Y-81791479D01*
X155590010Y-81796307D01*
X155492333Y-81925462D01*
X155488634Y-81930117D01*
X155384874Y-82054446D01*
X155380955Y-82058919D01*
X155271357Y-82178125D01*
X155267228Y-82182405D01*
X155152056Y-82296205D01*
X155147726Y-82300283D01*
X155027190Y-82408465D01*
X155022671Y-82412330D01*
X154897127Y-82514576D01*
X154892427Y-82518219D01*
X154762107Y-82614342D01*
X154757238Y-82617756D01*
X154622460Y-82707520D01*
X154617432Y-82710697D01*
X154478517Y-82793888D01*
X154473345Y-82796820D01*
X154330595Y-82873260D01*
X154325286Y-82875941D01*
X154179021Y-82945455D01*
X154173590Y-82947878D01*
X154024175Y-83010293D01*
X154018634Y-83012453D01*
X153866398Y-83067632D01*
X153860761Y-83069524D01*
X153706044Y-83117345D01*
X153700321Y-83118964D01*
X153543520Y-83159304D01*
X153537727Y-83160648D01*
X153379134Y-83193432D01*
X153373283Y-83194496D01*
X153213311Y-83219636D01*
X153207416Y-83220418D01*
X153046417Y-83237860D01*
X153040491Y-83238358D01*
X152878865Y-83248060D01*
X152872922Y-83248274D01*
X152711007Y-83250216D01*
X152705060Y-83250145D01*
X152543212Y-83244320D01*
X152537277Y-83243963D01*
X152375944Y-83230390D01*
X152370030Y-83229750D01*
X152209500Y-83208452D01*
X152203626Y-83207529D01*
X152044299Y-83178559D01*
X152038475Y-83177355D01*
X151880723Y-83140780D01*
X151874964Y-83139298D01*
X151719165Y-83095207D01*
X151713483Y-83093451D01*
X151559963Y-83041936D01*
X151554372Y-83039909D01*
X151403488Y-82981088D01*
X151398002Y-82978796D01*
X151250143Y-82912824D01*
X151244771Y-82910272D01*
X151100208Y-82837267D01*
X151094965Y-82834459D01*
X150954091Y-82754620D01*
X150948990Y-82751565D01*
X150812100Y-82665060D01*
X150807150Y-82661764D01*
X150674571Y-82568800D01*
X150669785Y-82565269D01*
X150541813Y-82466053D01*
X150537202Y-82462298D01*
X150414133Y-82357060D01*
X150409707Y-82353087D01*
X150291815Y-82242058D01*
X150287586Y-82237880D01*
X150175164Y-82121341D01*
X150171137Y-82116961D01*
X150064436Y-81995167D01*
X150060627Y-81990603D01*
X149959875Y-81863819D01*
X149956288Y-81859076D01*
X149861734Y-81727613D01*
X149858378Y-81722703D01*
X149770245Y-81586872D01*
X149767129Y-81581807D01*
X149685599Y-81441888D01*
X149682729Y-81436679D01*
X149608009Y-81293027D01*
X149605392Y-81287687D01*
X149537640Y-81140606D01*
X149535282Y-81135146D01*
X149474668Y-80985004D01*
X149472574Y-80979438D01*
X149419218Y-80826535D01*
X149417394Y-80820875D01*
X149371431Y-80665592D01*
X149369881Y-80659851D01*
X149331423Y-80502573D01*
X149330149Y-80496764D01*
X149299272Y-80337805D01*
X149298278Y-80331942D01*
X149275056Y-80171668D01*
X149274345Y-80165764D01*
X149258835Y-80004578D01*
X149258408Y-79998646D01*
X149250628Y-79836554D01*
X149250487Y-79831352D01*
X149250004Y-79750743D01*
X149250004Y-79749257D01*
X149250487Y-79668647D01*
X149250628Y-79663445D01*
X149258408Y-79501353D01*
X149258835Y-79495421D01*
X149274345Y-79334235D01*
X149275056Y-79328331D01*
X149298278Y-79168057D01*
X149299272Y-79162194D01*
X149330149Y-79003235D01*
X149331423Y-78997426D01*
X149369881Y-78840148D01*
X149371431Y-78834407D01*
X149417394Y-78679124D01*
X149419218Y-78673464D01*
X149472574Y-78520561D01*
X149474668Y-78514995D01*
X149535282Y-78364853D01*
X149537640Y-78359393D01*
X149605392Y-78212312D01*
X149608009Y-78206972D01*
X149682729Y-78063320D01*
X149685599Y-78058111D01*
X149767129Y-77918192D01*
X149770245Y-77913127D01*
X149858378Y-77777296D01*
X149861734Y-77772386D01*
X149956288Y-77640923D01*
X149959875Y-77636180D01*
X150060627Y-77509396D01*
X150064436Y-77504832D01*
X150171137Y-77383038D01*
X150175164Y-77378658D01*
X150287586Y-77262119D01*
X150291815Y-77257941D01*
X150409707Y-77146912D01*
X150414133Y-77142939D01*
X150537202Y-77037701D01*
X150541813Y-77033946D01*
X150669785Y-76934730D01*
X150674571Y-76931199D01*
X150807150Y-76838235D01*
X150812100Y-76834939D01*
X150948990Y-76748434D01*
X150954091Y-76745379D01*
X151094965Y-76665540D01*
X151100208Y-76662732D01*
X151244771Y-76589727D01*
X151250143Y-76587175D01*
X151398002Y-76521203D01*
X151403488Y-76518911D01*
X151554372Y-76460090D01*
X151559963Y-76458063D01*
X151713483Y-76406548D01*
X151719165Y-76404792D01*
X151874964Y-76360701D01*
X151880723Y-76359219D01*
X152038475Y-76322644D01*
X152044299Y-76321440D01*
X152203626Y-76292470D01*
X152209500Y-76291547D01*
X152370030Y-76270249D01*
X152375944Y-76269609D01*
X152537277Y-76256036D01*
X152543212Y-76255679D01*
X152705060Y-76249854D01*
X152711007Y-76249783D01*
X152872922Y-76251725D01*
G37*
G36*
X205786871Y-86249914D02*
G01*
X205913961Y-86255622D01*
X205921358Y-86256176D01*
X206047900Y-86269476D01*
X206055253Y-86270472D01*
X206180759Y-86291314D01*
X206188038Y-86292748D01*
X206312068Y-86321057D01*
X206319247Y-86322923D01*
X206441382Y-86358604D01*
X206448439Y-86360897D01*
X206568212Y-86403816D01*
X206575118Y-86406527D01*
X206692087Y-86456522D01*
X206698819Y-86459640D01*
X206812625Y-86516559D01*
X206819158Y-86520075D01*
X206929335Y-86583686D01*
X206935646Y-86587586D01*
X207041818Y-86657669D01*
X207047885Y-86661940D01*
X207149699Y-86738266D01*
X207155499Y-86742890D01*
X207252538Y-86825142D01*
X207258052Y-86830108D01*
X207350022Y-86918041D01*
X207355228Y-86923326D01*
X207441755Y-87016580D01*
X207446637Y-87022167D01*
X207527456Y-87120458D01*
X207531994Y-87126326D01*
X207606765Y-87229239D01*
X207610944Y-87235370D01*
X207679438Y-87342589D01*
X207683244Y-87348957D01*
X207745207Y-87460087D01*
X207748624Y-87466673D01*
X207803818Y-87581285D01*
X207806836Y-87588062D01*
X207855087Y-87705794D01*
X207857693Y-87712739D01*
X207898819Y-87833149D01*
X207901007Y-87840240D01*
X207934851Y-87962873D01*
X207936609Y-87970080D01*
X207963060Y-88094522D01*
X207964385Y-88101822D01*
X207983347Y-88227629D01*
X207984233Y-88234995D01*
X207995639Y-88361726D01*
X207996082Y-88369131D01*
X207999888Y-88496290D01*
X207999888Y-88503710D01*
X207996082Y-88630868D01*
X207995639Y-88638273D01*
X207984233Y-88765004D01*
X207983347Y-88772370D01*
X207964385Y-88898177D01*
X207963060Y-88905477D01*
X207936609Y-89029919D01*
X207934851Y-89037126D01*
X207901007Y-89159759D01*
X207898819Y-89166850D01*
X207857693Y-89287260D01*
X207855087Y-89294205D01*
X207806836Y-89411937D01*
X207803818Y-89418714D01*
X207748624Y-89533326D01*
X207745207Y-89539912D01*
X207683244Y-89651042D01*
X207679438Y-89657410D01*
X207610944Y-89764629D01*
X207606765Y-89770760D01*
X207531994Y-89873673D01*
X207527456Y-89879541D01*
X207446637Y-89977832D01*
X207441755Y-89983419D01*
X207355228Y-90076673D01*
X207350022Y-90081958D01*
X207258052Y-90169891D01*
X207252538Y-90174857D01*
X207155499Y-90257109D01*
X207149699Y-90261733D01*
X207047885Y-90338059D01*
X207041818Y-90342330D01*
X206935646Y-90412413D01*
X206929335Y-90416313D01*
X206819158Y-90479924D01*
X206812625Y-90483440D01*
X206698819Y-90540359D01*
X206692087Y-90543477D01*
X206575118Y-90593472D01*
X206568212Y-90596183D01*
X206448439Y-90639102D01*
X206441382Y-90641395D01*
X206319247Y-90677076D01*
X206312068Y-90678942D01*
X206188038Y-90707251D01*
X206180759Y-90708685D01*
X206055253Y-90729527D01*
X206047900Y-90730523D01*
X205921358Y-90743823D01*
X205913961Y-90744377D01*
X205786871Y-90750085D01*
X205779451Y-90750196D01*
X205652234Y-90748292D01*
X205644824Y-90747959D01*
X205517964Y-90738453D01*
X205510585Y-90737678D01*
X205384490Y-90720597D01*
X205377171Y-90719381D01*
X205252367Y-90694798D01*
X205245135Y-90693148D01*
X205121976Y-90661134D01*
X205114853Y-90659053D01*
X204993862Y-90619740D01*
X204986879Y-90617237D01*
X204868453Y-90570758D01*
X204861631Y-90567842D01*
X204746175Y-90514354D01*
X204739540Y-90511036D01*
X204627512Y-90450752D01*
X204621086Y-90447042D01*
X204512860Y-90380163D01*
X204506668Y-90376076D01*
X204402630Y-90302840D01*
X204396694Y-90298390D01*
X204297226Y-90219067D01*
X204291567Y-90214270D01*
X204197003Y-90129124D01*
X204191641Y-90123997D01*
X204102367Y-90033378D01*
X204097319Y-90027939D01*
X204013605Y-89932119D01*
X204008895Y-89926389D01*
X203931075Y-89825755D01*
X203926713Y-89819752D01*
X203855046Y-89714634D01*
X203851052Y-89708382D01*
X203785783Y-89599140D01*
X203782171Y-89592662D01*
X203723576Y-89479761D01*
X203720356Y-89473075D01*
X203668601Y-89356830D01*
X203665788Y-89349965D01*
X203621089Y-89230863D01*
X203618691Y-89223844D01*
X203581188Y-89102266D01*
X203579214Y-89095113D01*
X203549048Y-88971500D01*
X203547506Y-88964243D01*
X203524792Y-88839078D01*
X203523686Y-88831743D01*
X203508494Y-88705418D01*
X203507829Y-88698027D01*
X203500194Y-88570576D01*
X203499975Y-88564090D01*
X203499502Y-88500929D01*
X203499502Y-88499071D01*
X203499975Y-88435909D01*
X203500194Y-88429423D01*
X203507829Y-88301972D01*
X203508494Y-88294581D01*
X203523686Y-88168256D01*
X203524792Y-88160921D01*
X203547506Y-88035756D01*
X203549048Y-88028499D01*
X203579214Y-87904886D01*
X203581188Y-87897733D01*
X203618691Y-87776155D01*
X203621089Y-87769136D01*
X203665788Y-87650034D01*
X203668601Y-87643169D01*
X203720356Y-87526924D01*
X203723576Y-87520238D01*
X203782171Y-87407337D01*
X203785783Y-87400859D01*
X203851052Y-87291617D01*
X203855046Y-87285365D01*
X203926713Y-87180247D01*
X203931075Y-87174244D01*
X204008895Y-87073610D01*
X204013605Y-87067880D01*
X204097319Y-86972060D01*
X204102367Y-86966621D01*
X204191641Y-86876002D01*
X204197003Y-86870875D01*
X204291567Y-86785729D01*
X204297226Y-86780932D01*
X204396694Y-86701609D01*
X204402630Y-86697159D01*
X204506668Y-86623923D01*
X204512860Y-86619836D01*
X204621086Y-86552957D01*
X204627512Y-86549247D01*
X204739540Y-86488963D01*
X204746175Y-86485645D01*
X204861631Y-86432157D01*
X204868453Y-86429241D01*
X204986879Y-86382762D01*
X204993862Y-86380259D01*
X205114853Y-86340946D01*
X205121976Y-86338865D01*
X205245135Y-86306851D01*
X205252367Y-86305201D01*
X205377171Y-86280618D01*
X205384490Y-86279402D01*
X205510585Y-86262321D01*
X205517964Y-86261546D01*
X205644824Y-86252040D01*
X205652234Y-86251707D01*
X205779451Y-86249803D01*
X205786871Y-86249914D01*
G37*
G36*
X152786871Y-95749914D02*
G01*
X152913961Y-95755622D01*
X152921358Y-95756176D01*
X153047900Y-95769476D01*
X153055253Y-95770472D01*
X153180759Y-95791314D01*
X153188038Y-95792748D01*
X153312068Y-95821057D01*
X153319247Y-95822923D01*
X153441382Y-95858604D01*
X153448439Y-95860897D01*
X153568212Y-95903816D01*
X153575118Y-95906527D01*
X153692087Y-95956522D01*
X153698819Y-95959640D01*
X153812625Y-96016559D01*
X153819158Y-96020075D01*
X153929335Y-96083686D01*
X153935646Y-96087586D01*
X154041818Y-96157669D01*
X154047885Y-96161940D01*
X154149699Y-96238266D01*
X154155499Y-96242890D01*
X154252538Y-96325142D01*
X154258052Y-96330108D01*
X154350022Y-96418041D01*
X154355228Y-96423326D01*
X154441755Y-96516580D01*
X154446637Y-96522167D01*
X154527456Y-96620458D01*
X154531994Y-96626326D01*
X154606765Y-96729239D01*
X154610944Y-96735370D01*
X154679438Y-96842589D01*
X154683244Y-96848957D01*
X154745207Y-96960087D01*
X154748624Y-96966673D01*
X154803818Y-97081285D01*
X154806836Y-97088062D01*
X154855087Y-97205794D01*
X154857693Y-97212739D01*
X154898819Y-97333149D01*
X154901007Y-97340240D01*
X154934851Y-97462873D01*
X154936609Y-97470080D01*
X154963060Y-97594522D01*
X154964385Y-97601822D01*
X154983347Y-97727629D01*
X154984233Y-97734995D01*
X154995639Y-97861726D01*
X154996082Y-97869131D01*
X154999888Y-97996290D01*
X154999888Y-98003710D01*
X154996082Y-98130868D01*
X154995639Y-98138273D01*
X154984233Y-98265004D01*
X154983347Y-98272370D01*
X154964385Y-98398177D01*
X154963060Y-98405477D01*
X154936609Y-98529919D01*
X154934851Y-98537126D01*
X154901007Y-98659759D01*
X154898819Y-98666850D01*
X154857693Y-98787260D01*
X154855087Y-98794205D01*
X154806836Y-98911937D01*
X154803818Y-98918714D01*
X154748624Y-99033326D01*
X154745207Y-99039912D01*
X154683244Y-99151042D01*
X154679438Y-99157410D01*
X154610944Y-99264629D01*
X154606765Y-99270760D01*
X154531994Y-99373673D01*
X154527456Y-99379541D01*
X154446637Y-99477832D01*
X154441755Y-99483419D01*
X154355228Y-99576673D01*
X154350022Y-99581958D01*
X154258052Y-99669891D01*
X154252538Y-99674857D01*
X154155499Y-99757109D01*
X154149699Y-99761733D01*
X154047885Y-99838059D01*
X154041818Y-99842330D01*
X153935646Y-99912413D01*
X153929335Y-99916313D01*
X153819158Y-99979924D01*
X153812625Y-99983440D01*
X153698819Y-100040359D01*
X153692087Y-100043477D01*
X153575118Y-100093472D01*
X153568212Y-100096183D01*
X153448439Y-100139102D01*
X153441382Y-100141395D01*
X153319247Y-100177076D01*
X153312068Y-100178942D01*
X153188038Y-100207251D01*
X153180759Y-100208685D01*
X153055253Y-100229527D01*
X153047900Y-100230523D01*
X152921358Y-100243823D01*
X152913961Y-100244377D01*
X152786871Y-100250085D01*
X152779451Y-100250196D01*
X152652234Y-100248292D01*
X152644824Y-100247959D01*
X152517964Y-100238453D01*
X152510585Y-100237678D01*
X152384490Y-100220597D01*
X152377171Y-100219381D01*
X152252367Y-100194798D01*
X152245135Y-100193148D01*
X152121976Y-100161134D01*
X152114853Y-100159053D01*
X151993862Y-100119740D01*
X151986879Y-100117237D01*
X151868453Y-100070758D01*
X151861631Y-100067842D01*
X151746175Y-100014354D01*
X151739540Y-100011036D01*
X151627512Y-99950752D01*
X151621086Y-99947042D01*
X151512860Y-99880163D01*
X151506668Y-99876076D01*
X151402630Y-99802840D01*
X151396694Y-99798390D01*
X151297226Y-99719067D01*
X151291567Y-99714270D01*
X151197003Y-99629124D01*
X151191641Y-99623997D01*
X151102367Y-99533378D01*
X151097319Y-99527939D01*
X151013605Y-99432119D01*
X151008895Y-99426389D01*
X150931075Y-99325755D01*
X150926713Y-99319752D01*
X150855046Y-99214634D01*
X150851052Y-99208382D01*
X150785783Y-99099140D01*
X150782171Y-99092662D01*
X150723576Y-98979761D01*
X150720356Y-98973075D01*
X150668601Y-98856830D01*
X150665788Y-98849965D01*
X150621089Y-98730863D01*
X150618691Y-98723844D01*
X150581188Y-98602266D01*
X150579214Y-98595113D01*
X150549048Y-98471500D01*
X150547506Y-98464243D01*
X150524792Y-98339078D01*
X150523686Y-98331743D01*
X150508494Y-98205418D01*
X150507829Y-98198027D01*
X150500194Y-98070576D01*
X150499975Y-98064090D01*
X150499502Y-98000929D01*
X150499502Y-97999071D01*
X150499975Y-97935909D01*
X150500194Y-97929423D01*
X150507829Y-97801972D01*
X150508494Y-97794581D01*
X150523686Y-97668256D01*
X150524792Y-97660921D01*
X150547506Y-97535756D01*
X150549048Y-97528499D01*
X150579214Y-97404886D01*
X150581188Y-97397733D01*
X150618691Y-97276155D01*
X150621089Y-97269136D01*
X150665788Y-97150034D01*
X150668601Y-97143169D01*
X150720356Y-97026924D01*
X150723576Y-97020238D01*
X150782171Y-96907337D01*
X150785783Y-96900859D01*
X150851052Y-96791617D01*
X150855046Y-96785365D01*
X150926713Y-96680247D01*
X150931075Y-96674244D01*
X151008895Y-96573610D01*
X151013605Y-96567880D01*
X151097319Y-96472060D01*
X151102367Y-96466621D01*
X151191641Y-96376002D01*
X151197003Y-96370875D01*
X151291567Y-96285729D01*
X151297226Y-96280932D01*
X151396694Y-96201609D01*
X151402630Y-96197159D01*
X151506668Y-96123923D01*
X151512860Y-96119836D01*
X151621086Y-96052957D01*
X151627512Y-96049247D01*
X151739540Y-95988963D01*
X151746175Y-95985645D01*
X151861631Y-95932157D01*
X151868453Y-95929241D01*
X151986879Y-95882762D01*
X151993862Y-95880259D01*
X152114853Y-95840946D01*
X152121976Y-95838865D01*
X152245135Y-95806851D01*
X152252367Y-95805201D01*
X152377171Y-95780618D01*
X152384490Y-95779402D01*
X152510585Y-95762321D01*
X152517964Y-95761546D01*
X152644824Y-95752040D01*
X152652234Y-95751707D01*
X152779451Y-95749803D01*
X152786871Y-95749914D01*
G37*
G36*
X205787375Y-111249914D02*
G01*
X205914465Y-111255622D01*
X205921862Y-111256176D01*
X206048404Y-111269476D01*
X206055757Y-111270472D01*
X206181263Y-111291314D01*
X206188542Y-111292748D01*
X206312572Y-111321057D01*
X206319751Y-111322923D01*
X206441886Y-111358604D01*
X206448943Y-111360897D01*
X206568716Y-111403816D01*
X206575622Y-111406527D01*
X206692591Y-111456522D01*
X206699323Y-111459640D01*
X206813129Y-111516559D01*
X206819662Y-111520075D01*
X206929839Y-111583686D01*
X206936150Y-111587586D01*
X207042322Y-111657669D01*
X207048389Y-111661940D01*
X207150203Y-111738266D01*
X207156003Y-111742890D01*
X207253042Y-111825142D01*
X207258556Y-111830108D01*
X207350526Y-111918041D01*
X207355732Y-111923326D01*
X207442259Y-112016580D01*
X207447141Y-112022167D01*
X207527960Y-112120458D01*
X207532498Y-112126326D01*
X207607269Y-112229239D01*
X207611448Y-112235370D01*
X207679942Y-112342589D01*
X207683748Y-112348957D01*
X207745711Y-112460087D01*
X207749128Y-112466673D01*
X207804322Y-112581285D01*
X207807340Y-112588062D01*
X207855591Y-112705794D01*
X207858197Y-112712739D01*
X207899323Y-112833149D01*
X207901511Y-112840240D01*
X207935355Y-112962873D01*
X207937113Y-112970080D01*
X207963564Y-113094522D01*
X207964889Y-113101822D01*
X207983851Y-113227629D01*
X207984737Y-113234995D01*
X207996143Y-113361726D01*
X207996586Y-113369131D01*
X208000392Y-113496290D01*
X208000392Y-113503710D01*
X207996586Y-113630868D01*
X207996143Y-113638273D01*
X207984737Y-113765004D01*
X207983851Y-113772370D01*
X207964889Y-113898177D01*
X207963564Y-113905477D01*
X207937113Y-114029919D01*
X207935355Y-114037126D01*
X207901511Y-114159759D01*
X207899323Y-114166850D01*
X207858197Y-114287260D01*
X207855591Y-114294205D01*
X207807340Y-114411937D01*
X207804322Y-114418714D01*
X207749128Y-114533326D01*
X207745711Y-114539912D01*
X207683748Y-114651042D01*
X207679942Y-114657410D01*
X207611448Y-114764629D01*
X207607269Y-114770760D01*
X207532498Y-114873673D01*
X207527960Y-114879541D01*
X207447141Y-114977832D01*
X207442259Y-114983419D01*
X207355732Y-115076673D01*
X207350526Y-115081958D01*
X207258556Y-115169891D01*
X207253042Y-115174857D01*
X207156003Y-115257109D01*
X207150203Y-115261733D01*
X207048389Y-115338059D01*
X207042322Y-115342330D01*
X206936150Y-115412413D01*
X206929839Y-115416313D01*
X206819662Y-115479924D01*
X206813129Y-115483440D01*
X206699323Y-115540359D01*
X206692591Y-115543477D01*
X206575622Y-115593472D01*
X206568716Y-115596183D01*
X206448943Y-115639102D01*
X206441886Y-115641395D01*
X206319751Y-115677076D01*
X206312572Y-115678942D01*
X206188542Y-115707251D01*
X206181263Y-115708685D01*
X206055757Y-115729527D01*
X206048404Y-115730523D01*
X205921862Y-115743823D01*
X205914465Y-115744377D01*
X205787375Y-115750085D01*
X205779955Y-115750196D01*
X205652738Y-115748292D01*
X205645328Y-115747959D01*
X205518468Y-115738453D01*
X205511089Y-115737678D01*
X205384994Y-115720597D01*
X205377675Y-115719381D01*
X205252871Y-115694798D01*
X205245639Y-115693148D01*
X205122480Y-115661134D01*
X205115357Y-115659053D01*
X204994366Y-115619740D01*
X204987383Y-115617237D01*
X204868957Y-115570758D01*
X204862135Y-115567842D01*
X204746679Y-115514354D01*
X204740044Y-115511036D01*
X204628016Y-115450752D01*
X204621590Y-115447042D01*
X204513364Y-115380163D01*
X204507172Y-115376076D01*
X204403134Y-115302840D01*
X204397198Y-115298390D01*
X204297730Y-115219067D01*
X204292071Y-115214270D01*
X204197507Y-115129124D01*
X204192145Y-115123997D01*
X204102871Y-115033378D01*
X204097823Y-115027939D01*
X204014109Y-114932119D01*
X204009399Y-114926389D01*
X203931579Y-114825755D01*
X203927217Y-114819752D01*
X203855550Y-114714634D01*
X203851556Y-114708382D01*
X203786287Y-114599140D01*
X203782675Y-114592662D01*
X203724080Y-114479761D01*
X203720860Y-114473075D01*
X203669105Y-114356830D01*
X203666292Y-114349965D01*
X203621593Y-114230863D01*
X203619195Y-114223844D01*
X203581692Y-114102266D01*
X203579718Y-114095113D01*
X203549552Y-113971500D01*
X203548010Y-113964243D01*
X203525296Y-113839078D01*
X203524190Y-113831743D01*
X203508998Y-113705418D01*
X203508333Y-113698027D01*
X203500698Y-113570576D01*
X203500479Y-113564090D01*
X203500006Y-113500929D01*
X203500006Y-113499071D01*
X203500479Y-113435909D01*
X203500698Y-113429423D01*
X203508333Y-113301972D01*
X203508998Y-113294581D01*
X203524190Y-113168256D01*
X203525296Y-113160921D01*
X203548010Y-113035756D01*
X203549552Y-113028499D01*
X203579718Y-112904886D01*
X203581692Y-112897733D01*
X203619195Y-112776155D01*
X203621593Y-112769136D01*
X203666292Y-112650034D01*
X203669105Y-112643169D01*
X203720860Y-112526924D01*
X203724080Y-112520238D01*
X203782675Y-112407337D01*
X203786287Y-112400859D01*
X203851556Y-112291617D01*
X203855550Y-112285365D01*
X203927217Y-112180247D01*
X203931579Y-112174244D01*
X204009399Y-112073610D01*
X204014109Y-112067880D01*
X204097823Y-111972060D01*
X204102871Y-111966621D01*
X204192145Y-111876002D01*
X204197507Y-111870875D01*
X204292071Y-111785729D01*
X204297730Y-111780932D01*
X204397198Y-111701609D01*
X204403134Y-111697159D01*
X204507172Y-111623923D01*
X204513364Y-111619836D01*
X204621590Y-111552957D01*
X204628016Y-111549247D01*
X204740044Y-111488963D01*
X204746679Y-111485645D01*
X204862135Y-111432157D01*
X204868957Y-111429241D01*
X204987383Y-111382762D01*
X204994366Y-111380259D01*
X205115357Y-111340946D01*
X205122480Y-111338865D01*
X205245639Y-111306851D01*
X205252871Y-111305201D01*
X205377675Y-111280618D01*
X205384994Y-111279402D01*
X205511089Y-111262321D01*
X205518468Y-111261546D01*
X205645328Y-111252040D01*
X205652738Y-111251707D01*
X205779955Y-111249803D01*
X205787375Y-111249914D01*
G37*
G36*
X152872922Y-134251725D02*
G01*
X152878865Y-134251939D01*
X153040491Y-134261641D01*
X153046417Y-134262139D01*
X153207416Y-134279581D01*
X153213311Y-134280363D01*
X153373283Y-134305503D01*
X153379134Y-134306567D01*
X153537727Y-134339351D01*
X153543520Y-134340695D01*
X153700321Y-134381035D01*
X153706044Y-134382654D01*
X153860761Y-134430475D01*
X153866398Y-134432367D01*
X154018634Y-134487546D01*
X154024175Y-134489706D01*
X154173590Y-134552121D01*
X154179021Y-134554544D01*
X154325286Y-134624058D01*
X154330595Y-134626739D01*
X154473345Y-134703179D01*
X154478517Y-134706111D01*
X154617432Y-134789302D01*
X154622460Y-134792479D01*
X154757238Y-134882243D01*
X154762107Y-134885657D01*
X154892427Y-134981780D01*
X154897127Y-134985423D01*
X155022671Y-135087669D01*
X155027190Y-135091534D01*
X155147726Y-135199716D01*
X155152056Y-135203794D01*
X155267228Y-135317594D01*
X155271357Y-135321874D01*
X155380955Y-135441080D01*
X155384874Y-135445553D01*
X155488634Y-135569882D01*
X155492333Y-135574537D01*
X155590010Y-135703692D01*
X155593483Y-135708520D01*
X155684847Y-135842198D01*
X155688083Y-135847187D01*
X155772944Y-135985109D01*
X155775939Y-135990247D01*
X155854090Y-136132081D01*
X155856834Y-136137357D01*
X155928092Y-136282768D01*
X155930580Y-136288170D01*
X155994781Y-136436824D01*
X155997007Y-136442338D01*
X156054004Y-136593891D01*
X156055964Y-136599506D01*
X156105642Y-136753657D01*
X156107329Y-136759359D01*
X156149547Y-136915666D01*
X156150960Y-136921444D01*
X156185640Y-137079625D01*
X156186774Y-137085462D01*
X156213829Y-137245111D01*
X156214682Y-137250996D01*
X156234055Y-137411782D01*
X156234624Y-137417701D01*
X156246264Y-137579205D01*
X156246549Y-137585145D01*
X156250432Y-137747026D01*
X156250432Y-137752974D01*
X156246549Y-137914854D01*
X156246264Y-137920794D01*
X156234624Y-138082298D01*
X156234055Y-138088217D01*
X156214682Y-138249003D01*
X156213829Y-138254888D01*
X156186774Y-138414537D01*
X156185640Y-138420374D01*
X156150960Y-138578555D01*
X156149547Y-138584333D01*
X156107329Y-138740640D01*
X156105642Y-138746342D01*
X156055964Y-138900493D01*
X156054004Y-138906108D01*
X155997007Y-139057661D01*
X155994781Y-139063175D01*
X155930580Y-139211829D01*
X155928092Y-139217231D01*
X155856834Y-139362642D01*
X155854090Y-139367918D01*
X155775939Y-139509752D01*
X155772944Y-139514890D01*
X155688083Y-139652812D01*
X155684847Y-139657801D01*
X155593483Y-139791479D01*
X155590010Y-139796307D01*
X155492333Y-139925462D01*
X155488634Y-139930117D01*
X155384874Y-140054446D01*
X155380955Y-140058919D01*
X155271357Y-140178125D01*
X155267228Y-140182405D01*
X155152056Y-140296205D01*
X155147726Y-140300283D01*
X155027190Y-140408465D01*
X155022671Y-140412330D01*
X154897127Y-140514576D01*
X154892427Y-140518219D01*
X154762107Y-140614342D01*
X154757238Y-140617756D01*
X154622460Y-140707520D01*
X154617432Y-140710697D01*
X154478517Y-140793888D01*
X154473345Y-140796820D01*
X154330595Y-140873260D01*
X154325286Y-140875941D01*
X154179021Y-140945455D01*
X154173590Y-140947878D01*
X154024175Y-141010293D01*
X154018634Y-141012453D01*
X153866398Y-141067632D01*
X153860761Y-141069524D01*
X153706044Y-141117345D01*
X153700321Y-141118964D01*
X153543520Y-141159304D01*
X153537727Y-141160648D01*
X153379134Y-141193432D01*
X153373283Y-141194496D01*
X153213311Y-141219636D01*
X153207416Y-141220418D01*
X153046417Y-141237860D01*
X153040491Y-141238358D01*
X152878865Y-141248060D01*
X152872921Y-141248274D01*
X152741517Y-141249849D01*
X152738409Y-141249847D01*
X152674500Y-141249011D01*
X152671663Y-141248942D01*
X152543215Y-141244320D01*
X152537279Y-141243964D01*
X152512554Y-141241884D01*
X152509987Y-141241641D01*
X152269410Y-141216354D01*
X152266065Y-141215956D01*
X152209508Y-141208453D01*
X152203631Y-141207529D01*
X152137885Y-141195574D01*
X152134288Y-141194865D01*
X151891646Y-141143290D01*
X151889430Y-141142798D01*
X151880736Y-141140783D01*
X151874966Y-141139299D01*
X151782283Y-141113069D01*
X151777732Y-141111686D01*
X151545489Y-141036225D01*
X151538769Y-141033826D01*
X151442209Y-140996184D01*
X151436812Y-140993932D01*
X151216726Y-140895944D01*
X151211264Y-140893350D01*
X151118402Y-140846454D01*
X151112299Y-140843155D01*
X150901728Y-140721582D01*
X150897486Y-140719019D01*
X150812898Y-140665565D01*
X150806255Y-140661059D01*
X150602441Y-140512980D01*
X150599350Y-140510660D01*
X150541801Y-140466043D01*
X150537190Y-140462288D01*
X150499169Y-140429776D01*
X150496784Y-140427683D01*
X150318678Y-140267315D01*
X150316636Y-140265434D01*
X150291815Y-140242058D01*
X150287586Y-140237880D01*
X150229381Y-140177544D01*
X150226474Y-140174425D01*
X150060668Y-139990278D01*
X150055739Y-139984453D01*
X149992226Y-139904530D01*
X149988987Y-139900268D01*
X149846941Y-139704758D01*
X149843237Y-139699367D01*
X149786424Y-139611806D01*
X149783059Y-139606312D01*
X149662344Y-139397229D01*
X149659723Y-139392449D01*
X149612442Y-139301549D01*
X149609170Y-139294764D01*
X149508711Y-139069125D01*
X149507008Y-139065111D01*
X149474663Y-138984993D01*
X149472569Y-138979425D01*
X149462838Y-138951538D01*
X149461984Y-138949004D01*
X149387628Y-138720163D01*
X149386658Y-138717036D01*
X149371434Y-138665600D01*
X149369884Y-138659862D01*
X149353294Y-138592018D01*
X149352455Y-138588345D01*
X149300247Y-138342726D01*
X149299810Y-138340577D01*
X149299273Y-138337811D01*
X149298282Y-138331961D01*
X149284128Y-138234279D01*
X149283525Y-138229459D01*
X149258054Y-137987125D01*
X149257518Y-137980108D01*
X149251424Y-137853143D01*
X149251292Y-137848820D01*
X149250015Y-137751214D01*
X149250006Y-137748848D01*
X149250487Y-137668646D01*
X149250628Y-137663445D01*
X149258408Y-137501353D01*
X149258835Y-137495421D01*
X149274345Y-137334235D01*
X149275056Y-137328331D01*
X149298278Y-137168057D01*
X149299272Y-137162194D01*
X149330149Y-137003235D01*
X149331423Y-136997426D01*
X149369881Y-136840148D01*
X149371431Y-136834407D01*
X149417394Y-136679124D01*
X149419218Y-136673464D01*
X149472574Y-136520561D01*
X149474668Y-136514995D01*
X149535282Y-136364853D01*
X149537640Y-136359393D01*
X149605392Y-136212312D01*
X149608009Y-136206972D01*
X149682729Y-136063320D01*
X149685599Y-136058111D01*
X149767129Y-135918192D01*
X149770245Y-135913127D01*
X149858378Y-135777296D01*
X149861734Y-135772386D01*
X149956288Y-135640923D01*
X149959875Y-135636180D01*
X150060627Y-135509396D01*
X150064436Y-135504832D01*
X150171137Y-135383038D01*
X150175164Y-135378658D01*
X150287586Y-135262119D01*
X150291815Y-135257941D01*
X150409707Y-135146912D01*
X150414133Y-135142939D01*
X150537202Y-135037701D01*
X150541813Y-135033946D01*
X150669785Y-134934730D01*
X150674571Y-134931199D01*
X150807150Y-134838235D01*
X150812100Y-134834939D01*
X150948990Y-134748434D01*
X150954091Y-134745379D01*
X151094965Y-134665540D01*
X151100208Y-134662732D01*
X151244771Y-134589727D01*
X151250143Y-134587175D01*
X151398002Y-134521203D01*
X151403488Y-134518911D01*
X151554372Y-134460090D01*
X151559963Y-134458063D01*
X151713483Y-134406548D01*
X151719165Y-134404792D01*
X151874964Y-134360701D01*
X151880723Y-134359219D01*
X152038475Y-134322644D01*
X152044299Y-134321440D01*
X152203626Y-134292470D01*
X152209500Y-134291547D01*
X152370030Y-134270249D01*
X152375944Y-134269609D01*
X152537277Y-134256036D01*
X152543212Y-134255679D01*
X152705060Y-134249854D01*
X152711007Y-134249783D01*
X152872922Y-134251725D01*
G37*
G36*
X152786871Y-84749914D02*
G01*
X152913961Y-84755622D01*
X152921358Y-84756176D01*
X153047900Y-84769476D01*
X153055253Y-84770472D01*
X153180759Y-84791314D01*
X153188038Y-84792748D01*
X153312068Y-84821057D01*
X153319247Y-84822923D01*
X153441382Y-84858604D01*
X153448439Y-84860897D01*
X153568212Y-84903816D01*
X153575118Y-84906527D01*
X153692087Y-84956522D01*
X153698819Y-84959640D01*
X153812625Y-85016559D01*
X153819158Y-85020075D01*
X153929335Y-85083686D01*
X153935646Y-85087586D01*
X154041818Y-85157669D01*
X154047885Y-85161940D01*
X154149699Y-85238266D01*
X154155499Y-85242890D01*
X154252538Y-85325142D01*
X154258052Y-85330108D01*
X154350022Y-85418041D01*
X154355228Y-85423326D01*
X154441755Y-85516580D01*
X154446637Y-85522167D01*
X154527456Y-85620458D01*
X154531994Y-85626326D01*
X154606765Y-85729239D01*
X154610944Y-85735370D01*
X154679438Y-85842589D01*
X154683244Y-85848957D01*
X154745207Y-85960087D01*
X154748624Y-85966673D01*
X154803818Y-86081285D01*
X154806836Y-86088062D01*
X154855087Y-86205794D01*
X154857693Y-86212739D01*
X154898819Y-86333149D01*
X154901007Y-86340240D01*
X154934851Y-86462873D01*
X154936609Y-86470080D01*
X154963060Y-86594522D01*
X154964385Y-86601822D01*
X154983347Y-86727629D01*
X154984233Y-86734995D01*
X154995639Y-86861726D01*
X154996082Y-86869131D01*
X154999888Y-86996290D01*
X154999888Y-87003710D01*
X154996082Y-87130868D01*
X154995639Y-87138273D01*
X154984233Y-87265004D01*
X154983347Y-87272370D01*
X154964385Y-87398177D01*
X154963060Y-87405477D01*
X154936609Y-87529919D01*
X154934851Y-87537126D01*
X154901007Y-87659759D01*
X154898819Y-87666850D01*
X154857693Y-87787260D01*
X154855087Y-87794205D01*
X154806836Y-87911937D01*
X154803818Y-87918714D01*
X154748624Y-88033326D01*
X154745207Y-88039912D01*
X154683244Y-88151042D01*
X154679438Y-88157410D01*
X154610944Y-88264629D01*
X154606765Y-88270760D01*
X154531994Y-88373673D01*
X154527456Y-88379541D01*
X154446637Y-88477832D01*
X154441755Y-88483419D01*
X154355228Y-88576673D01*
X154350022Y-88581958D01*
X154258052Y-88669891D01*
X154252538Y-88674857D01*
X154155499Y-88757109D01*
X154149699Y-88761733D01*
X154047885Y-88838059D01*
X154041818Y-88842330D01*
X153935646Y-88912413D01*
X153929335Y-88916313D01*
X153819158Y-88979924D01*
X153812625Y-88983440D01*
X153698819Y-89040359D01*
X153692087Y-89043477D01*
X153575118Y-89093472D01*
X153568212Y-89096183D01*
X153448439Y-89139102D01*
X153441382Y-89141395D01*
X153319247Y-89177076D01*
X153312068Y-89178942D01*
X153188038Y-89207251D01*
X153180759Y-89208685D01*
X153055253Y-89229527D01*
X153047900Y-89230523D01*
X152921358Y-89243823D01*
X152913961Y-89244377D01*
X152786871Y-89250085D01*
X152779451Y-89250196D01*
X152652234Y-89248292D01*
X152644824Y-89247959D01*
X152517964Y-89238453D01*
X152510585Y-89237678D01*
X152384490Y-89220597D01*
X152377171Y-89219381D01*
X152252367Y-89194798D01*
X152245135Y-89193148D01*
X152121976Y-89161134D01*
X152114853Y-89159053D01*
X151993862Y-89119740D01*
X151986879Y-89117237D01*
X151868453Y-89070758D01*
X151861631Y-89067842D01*
X151746175Y-89014354D01*
X151739540Y-89011036D01*
X151627512Y-88950752D01*
X151621086Y-88947042D01*
X151512860Y-88880163D01*
X151506668Y-88876076D01*
X151402630Y-88802840D01*
X151396694Y-88798390D01*
X151297226Y-88719067D01*
X151291567Y-88714270D01*
X151197003Y-88629124D01*
X151191641Y-88623997D01*
X151102367Y-88533378D01*
X151097319Y-88527939D01*
X151013605Y-88432119D01*
X151008895Y-88426389D01*
X150931075Y-88325755D01*
X150926713Y-88319752D01*
X150855046Y-88214634D01*
X150851052Y-88208382D01*
X150785783Y-88099140D01*
X150782171Y-88092662D01*
X150723576Y-87979761D01*
X150720356Y-87973075D01*
X150668601Y-87856830D01*
X150665788Y-87849965D01*
X150621089Y-87730863D01*
X150618691Y-87723844D01*
X150581188Y-87602266D01*
X150579214Y-87595113D01*
X150549048Y-87471500D01*
X150547506Y-87464243D01*
X150524792Y-87339078D01*
X150523686Y-87331743D01*
X150508494Y-87205418D01*
X150507829Y-87198027D01*
X150500194Y-87070576D01*
X150499975Y-87064090D01*
X150499502Y-87000929D01*
X150499502Y-86999071D01*
X150499975Y-86935909D01*
X150500194Y-86929423D01*
X150507829Y-86801972D01*
X150508494Y-86794581D01*
X150523686Y-86668256D01*
X150524792Y-86660921D01*
X150547506Y-86535756D01*
X150549048Y-86528499D01*
X150579214Y-86404886D01*
X150581188Y-86397733D01*
X150618691Y-86276155D01*
X150621089Y-86269136D01*
X150665788Y-86150034D01*
X150668601Y-86143169D01*
X150720356Y-86026924D01*
X150723576Y-86020238D01*
X150782171Y-85907337D01*
X150785783Y-85900859D01*
X150851052Y-85791617D01*
X150855046Y-85785365D01*
X150926713Y-85680247D01*
X150931075Y-85674244D01*
X151008895Y-85573610D01*
X151013605Y-85567880D01*
X151097319Y-85472060D01*
X151102367Y-85466621D01*
X151191641Y-85376002D01*
X151197003Y-85370875D01*
X151291567Y-85285729D01*
X151297226Y-85280932D01*
X151396694Y-85201609D01*
X151402630Y-85197159D01*
X151506668Y-85123923D01*
X151512860Y-85119836D01*
X151621086Y-85052957D01*
X151627512Y-85049247D01*
X151739540Y-84988963D01*
X151746175Y-84985645D01*
X151861631Y-84932157D01*
X151868453Y-84929241D01*
X151986879Y-84882762D01*
X151993862Y-84880259D01*
X152114853Y-84840946D01*
X152121976Y-84838865D01*
X152245135Y-84806851D01*
X152252367Y-84805201D01*
X152377171Y-84780618D01*
X152384490Y-84779402D01*
X152510585Y-84762321D01*
X152517964Y-84761546D01*
X152644824Y-84752040D01*
X152652234Y-84751707D01*
X152779451Y-84749803D01*
X152786871Y-84749914D01*
G37*
M02*
